%TF.GenerationSoftware,KiCad,Pcbnew,7.0.1*%
%TF.CreationDate,2023-04-19T20:31:54+02:00*%
%TF.ProjectId,axolotl,61786f6c-6f74-46c2-9e6b-696361645f70,rev?*%
%TF.SameCoordinates,Original*%
%TF.FileFunction,Legend,Bot*%
%TF.FilePolarity,Positive*%
%FSLAX46Y46*%
G04 Gerber Fmt 4.6, Leading zero omitted, Abs format (unit mm)*
G04 Created by KiCad (PCBNEW 7.0.1) date 2023-04-19 20:31:54*
%MOMM*%
%LPD*%
G01*
G04 APERTURE LIST*
%ADD10C,0.150000*%
%ADD11C,0.120000*%
G04 APERTURE END LIST*
D10*
%TO.C,BT1*%
X101885714Y-72638809D02*
X101742857Y-72686428D01*
X101742857Y-72686428D02*
X101695238Y-72734047D01*
X101695238Y-72734047D02*
X101647619Y-72829285D01*
X101647619Y-72829285D02*
X101647619Y-72972142D01*
X101647619Y-72972142D02*
X101695238Y-73067380D01*
X101695238Y-73067380D02*
X101742857Y-73115000D01*
X101742857Y-73115000D02*
X101838095Y-73162619D01*
X101838095Y-73162619D02*
X102219047Y-73162619D01*
X102219047Y-73162619D02*
X102219047Y-72162619D01*
X102219047Y-72162619D02*
X101885714Y-72162619D01*
X101885714Y-72162619D02*
X101790476Y-72210238D01*
X101790476Y-72210238D02*
X101742857Y-72257857D01*
X101742857Y-72257857D02*
X101695238Y-72353095D01*
X101695238Y-72353095D02*
X101695238Y-72448333D01*
X101695238Y-72448333D02*
X101742857Y-72543571D01*
X101742857Y-72543571D02*
X101790476Y-72591190D01*
X101790476Y-72591190D02*
X101885714Y-72638809D01*
X101885714Y-72638809D02*
X102219047Y-72638809D01*
X101361904Y-72162619D02*
X100790476Y-72162619D01*
X101076190Y-73162619D02*
X101076190Y-72162619D01*
X99933333Y-73162619D02*
X100504761Y-73162619D01*
X100219047Y-73162619D02*
X100219047Y-72162619D01*
X100219047Y-72162619D02*
X100314285Y-72305476D01*
X100314285Y-72305476D02*
X100409523Y-72400714D01*
X100409523Y-72400714D02*
X100504761Y-72448333D01*
%TO.C,D1*%
X98956900Y-47793904D02*
X98824597Y-48544233D01*
X99265913Y-48235220D02*
X98515584Y-48102917D01*
%TO.C,D2*%
X107636775Y-54284284D02*
X106920818Y-54544871D01*
X107409090Y-54772555D02*
X107148503Y-54056599D01*
%TO.C,D3*%
X100233244Y-60260144D02*
X99852292Y-59600315D01*
X99712853Y-60120705D02*
X100372682Y-59739753D01*
%TO.C,D4*%
X128731666Y-53759048D02*
X128731666Y-54520953D01*
X129112619Y-54140000D02*
X128350714Y-54140000D01*
D11*
%TO.C,BT1*%
X89100000Y-66600000D02*
X87100000Y-66600000D01*
X88100000Y-67600000D02*
X88100000Y-65600000D01*
X112450000Y-80950000D02*
X112450000Y-76450000D01*
X89750000Y-80950000D02*
X89750000Y-76450000D01*
X89750000Y-80950000D02*
X112450000Y-80950000D01*
X115650000Y-76450000D02*
X115650000Y-74900000D01*
X112450000Y-76450000D02*
X115650000Y-76450000D01*
X86550000Y-76450000D02*
X86550000Y-74900000D01*
X89750000Y-76450000D02*
X86550000Y-76450000D01*
X86550000Y-68750000D02*
X86550000Y-70300000D01*
X89750000Y-68750000D02*
X86550000Y-68750000D01*
X91550000Y-64250000D02*
X89750000Y-66050000D01*
X89750000Y-66050000D02*
X89750000Y-68750000D01*
X112450000Y-64250000D02*
X91550000Y-64250000D01*
X112450000Y-64250000D02*
X112450000Y-68750000D01*
X115650000Y-68750000D02*
X115650000Y-70300000D01*
X112450000Y-68750000D02*
X115650000Y-68750000D01*
%TO.C,SW1*%
X145000000Y-62600000D02*
G75*
G03*
X145000000Y-62600000I-3500000J0D01*
G01*
X143500000Y-62600000D02*
G75*
G03*
X143500000Y-62600000I-2000000J0D01*
G01*
%TD*%
M02*
