%TF.GenerationSoftware,KiCad,Pcbnew,(6.0.5)*%
%TF.CreationDate,2022-06-01T22:30:39+02:00*%
%TF.ProjectId,axolotl,61786f6c-6f74-46c2-9e6b-696361645f70,rev?*%
%TF.SameCoordinates,Original*%
%TF.FileFunction,Copper,L2,Bot*%
%TF.FilePolarity,Positive*%
%FSLAX46Y46*%
G04 Gerber Fmt 4.6, Leading zero omitted, Abs format (unit mm)*
G04 Created by KiCad (PCBNEW (6.0.5)) date 2022-06-01 22:30:39*
%MOMM*%
%LPD*%
G01*
G04 APERTURE LIST*
G04 Aperture macros list*
%AMRoundRect*
0 Rectangle with rounded corners*
0 $1 Rounding radius*
0 $2 $3 $4 $5 $6 $7 $8 $9 X,Y pos of 4 corners*
0 Add a 4 corners polygon primitive as box body*
4,1,4,$2,$3,$4,$5,$6,$7,$8,$9,$2,$3,0*
0 Add four circle primitives for the rounded corners*
1,1,$1+$1,$2,$3*
1,1,$1+$1,$4,$5*
1,1,$1+$1,$6,$7*
1,1,$1+$1,$8,$9*
0 Add four rect primitives between the rounded corners*
20,1,$1+$1,$2,$3,$4,$5,0*
20,1,$1+$1,$4,$5,$6,$7,0*
20,1,$1+$1,$6,$7,$8,$9,0*
20,1,$1+$1,$8,$9,$2,$3,0*%
%AMRotRect*
0 Rectangle, with rotation*
0 The origin of the aperture is its center*
0 $1 length*
0 $2 width*
0 $3 Rotation angle, in degrees counterclockwise*
0 Add horizontal line*
21,1,$1,$2,0,0,$3*%
G04 Aperture macros list end*
%TA.AperFunction,SMDPad,CuDef*%
%ADD10RotRect,1.524000X5.000000X80.000000*%
%TD*%
%TA.AperFunction,SMDPad,CuDef*%
%ADD11RotRect,1.524000X5.000000X20.000000*%
%TD*%
%TA.AperFunction,SMDPad,CuDef*%
%ADD12RotRect,1.524000X5.000000X300.000000*%
%TD*%
%TA.AperFunction,SMDPad,CuDef*%
%ADD13R,5.000000X1.524000*%
%TD*%
%TA.AperFunction,SMDPad,CuDef*%
%ADD14R,5.000000X3.600000*%
%TD*%
%TA.AperFunction,SMDPad,CuDef*%
%ADD15RoundRect,0.750000X2.250000X0.750000X-2.250000X0.750000X-2.250000X-0.750000X2.250000X-0.750000X0*%
%TD*%
%TA.AperFunction,Conductor*%
%ADD16C,0.250000*%
%TD*%
G04 APERTURE END LIST*
D10*
%TO.P,D1,1*%
%TO.N,GND*%
X97869528Y-52050706D03*
%TO.P,D1,2*%
%TO.N,VCC*%
X98310594Y-49549294D03*
%TD*%
D11*
%TO.P,D2,1*%
%TO.N,GND*%
X103406591Y-55470993D03*
%TO.P,D2,2*%
%TO.N,VCC*%
X105793410Y-54602262D03*
%TD*%
D12*
%TO.P,D3,1*%
%TO.N,GND*%
X98330000Y-56300296D03*
%TO.P,D3,2*%
%TO.N,VCC*%
X99600000Y-58500000D03*
%TD*%
D13*
%TO.P,D4,1*%
%TO.N,GND*%
X128400000Y-58140000D03*
%TO.P,D4,2*%
%TO.N,VCC*%
X128400000Y-55600000D03*
%TD*%
D14*
%TO.P,BT1,1*%
%TO.N,+3V0*%
X86450000Y-72600000D03*
%TO.P,BT1,2*%
%TO.N,GND*%
X115750000Y-72600000D03*
%TD*%
D15*
%TO.P,SW1,1*%
%TO.N,VCC*%
X153500000Y-62600000D03*
%TO.P,SW1,2*%
%TO.N,+3V0*%
X129500000Y-62600000D03*
%TD*%
D16*
%TO.N,+3V0*%
X129500000Y-66300000D02*
X129500000Y-62600000D01*
X119500000Y-69700000D02*
X121700000Y-67500000D01*
X89150000Y-75300000D02*
X117999022Y-75300000D01*
X128300000Y-67500000D02*
X129500000Y-66300000D01*
X86450000Y-72600000D02*
X89150000Y-75300000D01*
X117999022Y-75300000D02*
X119500000Y-73799022D01*
X119500000Y-73799022D02*
X119500000Y-69700000D01*
X121700000Y-67500000D02*
X128300000Y-67500000D01*
%TO.N,GND*%
X98330000Y-52511178D02*
X97869528Y-52050706D01*
X124400000Y-66000000D02*
X122500000Y-66000000D01*
X125300000Y-61000000D02*
X125300000Y-65100000D01*
X128160000Y-58140000D02*
X125300000Y-61000000D01*
X125300000Y-65100000D02*
X124400000Y-66000000D01*
X128400000Y-58140000D02*
X128160000Y-58140000D01*
X96729416Y-57900880D02*
X98330000Y-56300296D01*
X115750000Y-72600000D02*
X108400000Y-72600000D01*
X115900000Y-72600000D02*
X115750000Y-72600000D01*
X122500000Y-66000000D02*
X115900000Y-72600000D01*
X99159303Y-55470993D02*
X98330000Y-56300296D01*
X108400000Y-72600000D02*
X96729416Y-60929416D01*
X103406591Y-55470993D02*
X99159303Y-55470993D01*
X98330000Y-56300296D02*
X98330000Y-52511178D01*
X96729416Y-60929416D02*
X96729416Y-57900880D01*
%TO.N,VCC*%
X128400000Y-55600000D02*
X128400000Y-54000000D01*
X111600000Y-48540000D02*
X106540000Y-53600000D01*
X115500000Y-41600000D02*
X118000000Y-41600000D01*
X120900000Y-46200000D02*
X119500000Y-47600000D01*
X101700000Y-60600000D02*
X103000000Y-60600000D01*
X139300000Y-62600000D02*
X153500000Y-62600000D01*
X120800000Y-49300000D02*
X126300000Y-49300000D01*
X127200000Y-50200000D02*
X127200000Y-52800000D01*
X98310594Y-49549294D02*
X100740442Y-49549294D01*
X113400000Y-43700000D02*
X115500000Y-41600000D01*
X126300000Y-49300000D02*
X127200000Y-50200000D01*
X103000000Y-60600000D02*
X106600000Y-57000000D01*
X132300000Y-55600000D02*
X128400000Y-55600000D01*
X111600000Y-48540000D02*
X111600000Y-47700000D01*
X139300000Y-62600000D02*
X132300000Y-55600000D01*
X106540000Y-53855672D02*
X106540000Y-53600000D01*
X113400000Y-45900000D02*
X113400000Y-43700000D01*
X120900000Y-44500000D02*
X120900000Y-46200000D01*
X100740442Y-49549294D02*
X105793410Y-54602262D01*
X105793410Y-54602262D02*
X106540000Y-53855672D01*
X118000000Y-41600000D02*
X120900000Y-44500000D01*
X119500000Y-48000000D02*
X120800000Y-49300000D01*
X119500000Y-47600000D02*
X119500000Y-48000000D01*
X99600000Y-58500000D02*
X101700000Y-60600000D01*
X128400000Y-54000000D02*
X127200000Y-52800000D01*
X111600000Y-47700000D02*
X113400000Y-45900000D01*
%TD*%
M02*
