%TF.GenerationSoftware,KiCad,Pcbnew,7.0.1*%
%TF.CreationDate,2023-04-19T20:31:54+02:00*%
%TF.ProjectId,axolotl,61786f6c-6f74-46c2-9e6b-696361645f70,rev?*%
%TF.SameCoordinates,Original*%
%TF.FileFunction,Profile,NP*%
%FSLAX46Y46*%
G04 Gerber Fmt 4.6, Leading zero omitted, Abs format (unit mm)*
G04 Created by KiCad (PCBNEW 7.0.1) date 2023-04-19 20:31:54*
%MOMM*%
%LPD*%
G01*
G04 APERTURE LIST*
%TA.AperFunction,Profile*%
%ADD10C,0.200000*%
%TD*%
G04 APERTURE END LIST*
D10*
X123952499Y-69949657D02*
X124369122Y-69759975D01*
X80627118Y-74298192D02*
X80803947Y-74299766D01*
X79069505Y-73310950D02*
X79079212Y-73396478D01*
X148651578Y-55410990D02*
X147540496Y-55836530D01*
X85507484Y-39157045D02*
X85479674Y-39457180D01*
X87649367Y-81780821D02*
X88727392Y-82096696D01*
X93430142Y-36414123D02*
X93262234Y-36222604D01*
X127930094Y-50082821D02*
X127866604Y-49736250D01*
X88510423Y-34537498D02*
X88348286Y-34567406D01*
X122409839Y-42690443D02*
X122398033Y-42476886D01*
X121508381Y-73402250D02*
X121388221Y-73289175D01*
X92252684Y-35420322D02*
X92016038Y-35290719D01*
X74141127Y-53320283D02*
X74017032Y-53398989D01*
X122313030Y-47939381D02*
X122189722Y-48025433D01*
X83159913Y-80098600D02*
X83184312Y-80163139D01*
X82816750Y-65619487D02*
X82884963Y-65759585D01*
X105920437Y-83399551D02*
X105965562Y-83486653D01*
X120123398Y-77206136D02*
X120198694Y-76998613D01*
X97667733Y-46942431D02*
X97261080Y-46990705D01*
X161376945Y-59890965D02*
X161489233Y-59632020D01*
X132127807Y-70625222D02*
X132390164Y-70625222D01*
X77166891Y-42658961D02*
X77108123Y-42841822D01*
X116641920Y-39538247D02*
X116473749Y-39603311D01*
X117113900Y-77641120D02*
X117209398Y-77633512D01*
X113519346Y-41841987D02*
X113392365Y-42016715D01*
X102140396Y-83055604D02*
X102927467Y-83060851D01*
X115908369Y-79453994D02*
X115940115Y-79378173D01*
X78154665Y-40927155D02*
X78040015Y-41059907D01*
X84167889Y-69985862D02*
X83959578Y-70156655D01*
X128297394Y-51106006D02*
X128259614Y-51082394D01*
X72950289Y-57856401D02*
X73079368Y-58066285D01*
X83478939Y-40999827D02*
X83303160Y-40795453D01*
X140270058Y-68032104D02*
X140762240Y-68048370D01*
X89199635Y-34518608D02*
X89115943Y-34503916D01*
X149293566Y-55169361D02*
X148651578Y-55410990D01*
X115605872Y-83582413D02*
X115680906Y-83506067D01*
X146134787Y-68049682D02*
X146594174Y-68010591D01*
X155463679Y-65263471D02*
X155831766Y-65072477D01*
X160287376Y-61626181D02*
X160475486Y-61386651D01*
X134895936Y-55973742D02*
X134515256Y-55802161D01*
X121879353Y-40868912D02*
X121777821Y-40720157D01*
X79239774Y-52817873D02*
X78990010Y-52777732D01*
X72835114Y-57638647D02*
X72890996Y-57748311D01*
X86188825Y-36421994D02*
X86082571Y-36661787D01*
X81994261Y-74662341D02*
X82042797Y-74711401D01*
X77454959Y-41965819D02*
X77374940Y-42132939D01*
X101626176Y-46892059D02*
X101359097Y-46866086D01*
X82958685Y-65898371D02*
X83036868Y-66036107D01*
X80968182Y-53204846D02*
X80591700Y-53104627D01*
X107695807Y-83861034D02*
X108202418Y-83852114D01*
X158114272Y-63654448D02*
X158398405Y-63440366D01*
X83057069Y-76793976D02*
X83152830Y-76811554D01*
X82365758Y-76174293D02*
X82407473Y-76255886D01*
X108202418Y-83852114D02*
X108778030Y-83847916D01*
X86430456Y-35974416D02*
X86304525Y-36192696D01*
X146400030Y-56274400D02*
X146289315Y-56315066D01*
X117383341Y-77630101D02*
X117533671Y-77637185D01*
X88847552Y-34503129D02*
X88677020Y-34515985D01*
X116097791Y-78202298D02*
X116132947Y-78113884D01*
X94713855Y-41090077D02*
X94708346Y-40799650D01*
X95771154Y-82382401D02*
X96152097Y-82460845D01*
X80245914Y-39572616D02*
X80093222Y-39619053D01*
X78475266Y-52708733D02*
X78212122Y-52680923D01*
X73544265Y-58647664D02*
X73723717Y-58824229D01*
X82457846Y-64449908D02*
X82511104Y-64695473D01*
X122387539Y-43336361D02*
X122404067Y-43120705D01*
X73272726Y-54068519D02*
X73184311Y-54180807D01*
X78040015Y-41059907D02*
X77930350Y-41198168D01*
X116021445Y-78880748D02*
X116019084Y-78653286D01*
X120269268Y-76790565D02*
X120413565Y-76377356D01*
X115954019Y-82945152D02*
X115960054Y-82847819D01*
X134967559Y-67814087D02*
X134931617Y-67696815D01*
X158671781Y-63223661D02*
X158934663Y-63003807D01*
X85490956Y-42699363D02*
X85534769Y-43229058D01*
X155085360Y-65451580D02*
X155463679Y-65263471D01*
X160268486Y-53354914D02*
X160084836Y-53275682D01*
X88036081Y-34652409D02*
X87886275Y-34707766D01*
X162059335Y-57810489D02*
X162101575Y-57607951D01*
X82591386Y-76493055D02*
X82675602Y-76568350D01*
X119685524Y-39306588D02*
X119554345Y-39274318D01*
X141855744Y-57195529D02*
X141574759Y-57208384D01*
X134675818Y-68765911D02*
X134740096Y-68699536D01*
X77780807Y-48668990D02*
X77904115Y-48931870D01*
X77163218Y-46992017D02*
X77249271Y-47282968D01*
X85320161Y-68696125D02*
X85250899Y-68801329D01*
X121020396Y-47101943D02*
X121183320Y-46817813D01*
X77725187Y-41490694D02*
X77629951Y-41644434D01*
X84599204Y-67922965D02*
X84787052Y-68097955D01*
X133911835Y-69208504D02*
X134031469Y-69162592D01*
X89684995Y-34616991D02*
X89337372Y-34577638D01*
X119510532Y-78089223D02*
X119586353Y-78040949D01*
X85534769Y-43229058D02*
X85584879Y-43724647D01*
X129913251Y-71750462D02*
X129979365Y-71741542D01*
X137066416Y-67707046D02*
X137486449Y-67768962D01*
X118227081Y-39182494D02*
X118046317Y-39199022D01*
X103439851Y-83057440D02*
X103913405Y-83048258D01*
X131471914Y-70703928D02*
X131576595Y-70677955D01*
X77549670Y-48128539D02*
X77662484Y-48401388D01*
X82860039Y-40343153D02*
X82712070Y-40214074D01*
X82563576Y-40096014D02*
X82414819Y-39988449D01*
X98514097Y-46862675D02*
X98086193Y-46899405D01*
X72583776Y-56933961D02*
X72631000Y-57112625D01*
X120413565Y-76377356D02*
X120448196Y-76287893D01*
X74828503Y-52989715D02*
X74682108Y-53047171D01*
X133498885Y-70431341D02*
X133548995Y-70375197D01*
X88190085Y-34605710D02*
X88036081Y-34652409D01*
X134526537Y-68891579D02*
X134604720Y-68829926D01*
X143678076Y-68093495D02*
X144047737Y-68102415D01*
X73184311Y-54180807D02*
X73100357Y-54297293D01*
X76965139Y-43409558D02*
X76928671Y-43604751D01*
X79082098Y-73144879D02*
X79070292Y-73226997D01*
X116217426Y-77970901D02*
X116266749Y-77914232D01*
X122611592Y-47748124D02*
X122454178Y-47846245D01*
X134349184Y-69008065D02*
X134441271Y-68951134D01*
X158844937Y-52978696D02*
X158613538Y-52958495D01*
X82883389Y-76711859D02*
X82923792Y-76738881D01*
X108778030Y-83847916D02*
X110516932Y-83813023D01*
X160819173Y-60899195D02*
X160974751Y-60651270D01*
X92481197Y-83029631D02*
X92547835Y-83014939D01*
X84152148Y-41856154D02*
X83988962Y-41637875D01*
X94637509Y-39720322D02*
X94607338Y-39470560D01*
X142916191Y-57103180D02*
X142661180Y-57131777D01*
X118590183Y-39168851D02*
X118408370Y-39172262D01*
X106889059Y-83874151D02*
X107257933Y-83869954D01*
X117671146Y-77657124D02*
X117797602Y-77688082D01*
X161253637Y-60147286D02*
X161376945Y-59890965D01*
X112934552Y-42743439D02*
X112832233Y-42929449D01*
X129667685Y-71733147D02*
X129756624Y-71748364D01*
X107777400Y-47420967D02*
X107441845Y-47535879D01*
X115935392Y-82665219D02*
X115904696Y-82583365D01*
X82923792Y-76738881D02*
X82966556Y-76761444D01*
X105813395Y-82955909D02*
X105829399Y-83053767D01*
X85748066Y-37709108D02*
X85685362Y-37989041D01*
X114669257Y-81439497D02*
X114480885Y-81299924D01*
X104468815Y-47401028D02*
X104055603Y-47301858D01*
X123824731Y-47177239D02*
X123597005Y-47259619D01*
X75294711Y-52842009D02*
X75134936Y-52887134D01*
X154696547Y-65636803D02*
X155085360Y-65451580D01*
X78439061Y-49931180D02*
X78580996Y-50167300D01*
X127787109Y-49371577D02*
X127737524Y-49185305D01*
X142963153Y-68080378D02*
X143318122Y-68084575D01*
X83250689Y-76816801D02*
X83340415Y-76812078D01*
X84691029Y-69490274D02*
X84532828Y-69651360D01*
X79905636Y-52020051D02*
X80191606Y-52359801D01*
X84232166Y-76537130D02*
X84300117Y-76528210D01*
X77085036Y-46697129D02*
X77163218Y-46992017D01*
X119429726Y-78128576D02*
X119510532Y-78089223D01*
X126251009Y-68946149D02*
X126668419Y-69283538D01*
X112175553Y-44409393D02*
X112053033Y-44759637D01*
X133011163Y-70614203D02*
X133124764Y-70598986D01*
X98293717Y-82807678D02*
X98771469Y-82863297D01*
X159698647Y-53142668D02*
X159495582Y-53089148D01*
X105892102Y-83323206D02*
X105920437Y-83399551D01*
X127441848Y-48438905D02*
X127336380Y-48257880D01*
X86304525Y-36192696D02*
X86188825Y-36421994D01*
X95801588Y-47213707D02*
X95205250Y-47327306D01*
X161249439Y-54018147D02*
X161099371Y-53885133D01*
X77825407Y-41341938D02*
X77725187Y-41490694D01*
X75030255Y-59686328D02*
X75282381Y-59794418D01*
X116016198Y-79013500D02*
X116021445Y-78880748D01*
X114941584Y-40450718D02*
X114675816Y-40651944D01*
X97832756Y-82746549D02*
X98293717Y-82807678D01*
X92016038Y-35290719D02*
X91767323Y-35171348D01*
X100959789Y-83023596D02*
X101353325Y-83038026D01*
X82176861Y-74911054D02*
X82197588Y-74961688D01*
X115222830Y-40257625D02*
X115080370Y-40353122D01*
X122040178Y-74807161D02*
X122083730Y-74746295D01*
X144868390Y-56746640D02*
X144492694Y-56834791D01*
X79494261Y-72567961D02*
X79399812Y-72644831D01*
X100266380Y-46806007D02*
X99989068Y-46803383D01*
X83201366Y-79738911D02*
X83170145Y-79811846D01*
X120068040Y-39429370D02*
X119942371Y-39383983D01*
X126442267Y-47369545D02*
X126329716Y-47301858D01*
X82327979Y-63519335D02*
X82349230Y-63741812D01*
X161895362Y-58448274D02*
X161956229Y-58230782D01*
X135667790Y-56283583D02*
X135280027Y-56134303D01*
X121837901Y-73753806D02*
X121735057Y-73635746D01*
X122170570Y-74567106D02*
X122184475Y-74508076D01*
X75800798Y-52732870D02*
X75627642Y-52764877D01*
X116473749Y-39603311D02*
X116308201Y-39672573D01*
X115808674Y-83333700D02*
X115861670Y-83244499D01*
X139723043Y-57169031D02*
X139304059Y-57130465D01*
X76088341Y-60052313D02*
X76443048Y-60140464D01*
X120603249Y-76030785D02*
X120659393Y-75974903D01*
X80803947Y-74299766D02*
X80979726Y-74306850D01*
X79923739Y-74232603D02*
X80019762Y-74250706D01*
X122055920Y-41182426D02*
X121971965Y-41023177D01*
X120040493Y-77407624D02*
X120123398Y-77206136D01*
X162220160Y-56665047D02*
X162225407Y-56490056D01*
X162208879Y-56844236D02*
X162220160Y-56665047D01*
X82349230Y-63741812D02*
X82377565Y-63971898D01*
X79943941Y-39673098D02*
X79798332Y-39734489D01*
X118765438Y-78158747D02*
X118859099Y-78184720D01*
X85985761Y-36911286D02*
X85898134Y-37169444D01*
X133217900Y-70583769D02*
X133301330Y-70558583D01*
X119150053Y-39203220D02*
X119012316Y-39188266D01*
X129979365Y-71741542D02*
X130043905Y-71727375D01*
X121998463Y-45025403D02*
X122066676Y-44821553D01*
X142399085Y-57156963D02*
X142130432Y-57178214D01*
X79165002Y-73658833D02*
X79210390Y-73747247D01*
X80217579Y-74274843D02*
X80420906Y-74288485D01*
X137656982Y-56864699D02*
X137252689Y-56770514D01*
X119286479Y-39222634D02*
X119150053Y-39203220D01*
X130549991Y-71421207D02*
X130646276Y-71326497D01*
X120439800Y-72533855D02*
X120164325Y-72304294D01*
X122134889Y-74211353D02*
X122081631Y-74101426D01*
X83011157Y-76779546D02*
X83057069Y-76793976D01*
X114675816Y-40651944D02*
X114426314Y-40859730D01*
X105965562Y-83486653D02*
X106027216Y-83578215D01*
X77108123Y-42841822D02*
X77055127Y-43027832D01*
X79125911Y-40114641D02*
X78884280Y-40284647D01*
X121869646Y-74996844D02*
X121989806Y-74869077D01*
X92347919Y-83032254D02*
X92406950Y-83034615D01*
X111585250Y-46567264D02*
X111419440Y-46572773D01*
X135280027Y-56134303D02*
X134895936Y-55973742D01*
X106502344Y-83869954D02*
X106574230Y-83874151D01*
X108907634Y-47067575D02*
X108515672Y-47183798D01*
X94487179Y-38766661D02*
X94436806Y-38546545D01*
X72515038Y-55851484D02*
X72501133Y-56031460D01*
X120519557Y-76138351D02*
X120557861Y-76082207D01*
X121282491Y-47970863D02*
X120957431Y-47871693D01*
X76853899Y-44205019D02*
X76840519Y-44409393D01*
X121573183Y-48050357D02*
X121282491Y-47970863D01*
X83170145Y-79811846D02*
X83150206Y-79887667D01*
X111247072Y-46584579D02*
X111068669Y-46602157D01*
X115517982Y-40074763D02*
X115368701Y-40164751D01*
X83584407Y-66824746D02*
X83786160Y-67069524D01*
X83390000Y-66570000D02*
X83584407Y-66824746D01*
X159894890Y-53204846D02*
X159698647Y-53142668D01*
X82675602Y-76568350D02*
X82772674Y-76641548D01*
X122000825Y-48167630D02*
X121960946Y-48152151D01*
X115479416Y-83675024D02*
X115523492Y-83647477D01*
X82754047Y-65478603D02*
X82816750Y-65619487D01*
X78274038Y-40799913D02*
X78154665Y-40927155D01*
X162191301Y-57028409D02*
X162208879Y-56844236D01*
X76833173Y-44615605D02*
X76831861Y-44823652D01*
X112314078Y-44047606D02*
X112175553Y-44409393D01*
X78884280Y-40284647D02*
X78659440Y-40454391D01*
X80889475Y-39483677D02*
X80723666Y-39489712D01*
X82413507Y-64208279D02*
X82457846Y-64449908D01*
X128626390Y-70971793D02*
X129110701Y-71412287D01*
X79651675Y-74145239D02*
X79739302Y-74180657D01*
X76928671Y-43604751D02*
X76897975Y-43802304D01*
X104055603Y-47301858D02*
X103614056Y-47205049D01*
X76347025Y-52662034D02*
X76160490Y-52681448D01*
X93312082Y-81775311D02*
X93410465Y-81803908D01*
X131264914Y-70789718D02*
X131366184Y-70740395D01*
X134828773Y-67473288D02*
X134766069Y-67367821D01*
X83490483Y-70498766D02*
X83228388Y-70667198D01*
X72631000Y-57112625D02*
X72688719Y-57289977D01*
X116320795Y-77866221D02*
X116379825Y-77825556D01*
X120830975Y-39825788D02*
X120662804Y-39719797D01*
X130737314Y-71228638D02*
X130899976Y-71069126D01*
X104734320Y-83018349D02*
X105373422Y-82983456D01*
X150680910Y-54659868D02*
X149974645Y-54916713D01*
X130052562Y-52231247D02*
X129751639Y-52021888D01*
X121708821Y-71251725D02*
X122166634Y-70953952D01*
X162086620Y-55383443D02*
X162042020Y-55241509D01*
X115670149Y-39987399D02*
X115517982Y-40074763D01*
X115368701Y-40164751D02*
X115222830Y-40257625D01*
X119062426Y-78207282D02*
X119156612Y-78202298D01*
X80019762Y-74250706D02*
X80217579Y-74274843D01*
X133551618Y-55104559D02*
X133353014Y-54927732D01*
X121667894Y-40576386D02*
X121549308Y-40437863D01*
X103913405Y-83048258D02*
X104345507Y-83034615D01*
X89115943Y-34503916D02*
X89022544Y-34498932D01*
X122242456Y-44194262D02*
X122289417Y-43981230D01*
X81322364Y-74347515D02*
X81405269Y-74365093D01*
X94572445Y-39228406D02*
X94532304Y-38993861D01*
X82197588Y-74961688D02*
X82214378Y-75013110D01*
X78300011Y-49689289D02*
X78439061Y-49931180D01*
X82407473Y-76255886D02*
X82458370Y-76336166D01*
X127002137Y-47826568D02*
X126921856Y-47744976D01*
X75627642Y-52764877D02*
X75458947Y-52801344D01*
X131085987Y-52988404D02*
X130721311Y-52714505D01*
X128025592Y-50586543D02*
X127991223Y-50427294D01*
X108137091Y-47302645D02*
X107777400Y-47420967D01*
X106308987Y-83813810D02*
X106369592Y-83838996D01*
X74787313Y-59567481D02*
X75030255Y-59686328D01*
X127679805Y-48997721D02*
X127612117Y-48810137D01*
X73671246Y-53660819D02*
X73564991Y-53756317D01*
X91767323Y-35171348D02*
X91506803Y-35061945D01*
X79567458Y-74102213D02*
X79651675Y-74145239D01*
X93262234Y-36222604D02*
X93083306Y-36041317D01*
X119657189Y-77984018D02*
X119723303Y-77919479D01*
X161800126Y-54710764D02*
X161724043Y-54586933D01*
X94708346Y-40799650D02*
X94698114Y-40517619D01*
X129578221Y-71707699D02*
X129667685Y-71733147D01*
X92714957Y-82913670D02*
X92754573Y-82864609D01*
X79739302Y-74180657D02*
X79830078Y-74209779D01*
X157199171Y-64279378D02*
X157514786Y-64073954D01*
X137921700Y-67827205D02*
X138370855Y-67881250D01*
X79518135Y-39874324D02*
X79383546Y-39951194D01*
X124422380Y-47020613D02*
X124300122Y-47045275D01*
X161099371Y-53885133D02*
X160944318Y-53761039D01*
X94184943Y-37735868D02*
X94108860Y-37549596D01*
X77662484Y-48401388D02*
X77780807Y-48668990D01*
X128998937Y-51522888D02*
X128636359Y-51297788D01*
X161458275Y-54235902D02*
X161357005Y-54125450D01*
X86453806Y-81424542D02*
X87649367Y-81780821D01*
X143638722Y-56999812D02*
X143164381Y-57071435D01*
X83036868Y-66036107D02*
X83119773Y-66172269D01*
X84311661Y-42076008D02*
X84152148Y-41856154D01*
X111774672Y-45702279D02*
X111709082Y-45968045D01*
X76443048Y-60140464D02*
X76833435Y-60245669D01*
X81796444Y-74516734D02*
X81868854Y-74561859D01*
X119012316Y-39188266D02*
X118873004Y-39177509D01*
X151633791Y-66868822D02*
X151973281Y-66749713D01*
X125044166Y-46960796D02*
X124918760Y-46963420D01*
X127148795Y-47994738D02*
X127077958Y-47909734D01*
X81486862Y-74386606D02*
X81567144Y-74412054D01*
X77055127Y-43027832D02*
X77007378Y-43217252D01*
X130226768Y-71656539D02*
X130340368Y-71589376D01*
X121849969Y-45422871D02*
X121925791Y-45225842D01*
X130106346Y-71708223D02*
X130167475Y-71684611D01*
X162157457Y-55679117D02*
X162125187Y-55529312D01*
X85630267Y-38274483D02*
X85582518Y-38564910D01*
X84787052Y-68097955D02*
X84962044Y-68255106D01*
X121368807Y-75422384D02*
X121557179Y-75271792D01*
X115954019Y-82753895D02*
X115935392Y-82665219D01*
X83311293Y-80347575D02*
X83351172Y-80385879D01*
X136663435Y-67643032D02*
X137066416Y-67707046D01*
X141574759Y-57208384D02*
X141288003Y-57216255D01*
X124300122Y-47045275D02*
X124059540Y-47105092D01*
X90652043Y-34794606D02*
X90342200Y-34725344D01*
X97388585Y-82680436D02*
X97832756Y-82746549D01*
X85455800Y-42141596D02*
X85490956Y-42699363D01*
X111419440Y-46572773D02*
X111247072Y-46584579D01*
X82306466Y-76009534D02*
X82332439Y-76092176D01*
X151973281Y-66749713D02*
X152320379Y-66623782D01*
X104850807Y-47500198D02*
X104468815Y-47401028D01*
X115999407Y-79155171D02*
X116016198Y-79013500D01*
X85006120Y-78747471D02*
X84385383Y-79027142D01*
X120457903Y-72097033D02*
X120829663Y-71840713D01*
X99989068Y-46803383D02*
X99831654Y-46803383D01*
X138064422Y-56947604D02*
X137656982Y-56864699D01*
X82272884Y-75845038D02*
X82287051Y-75927155D01*
X114426314Y-40859730D02*
X114194391Y-41071975D01*
X129474590Y-51834041D02*
X128998937Y-51522888D01*
X103614056Y-47205049D02*
X103147060Y-47113225D01*
X93650522Y-36710060D02*
X93542956Y-36559468D01*
X90518766Y-82601729D02*
X91226081Y-82788526D01*
X139303272Y-67971763D02*
X139783123Y-68006131D01*
X115386016Y-83717263D02*
X115433765Y-83698374D01*
X131848921Y-70635191D02*
X131999514Y-70626533D01*
X81965664Y-39728979D02*
X81814546Y-39663653D01*
X87326406Y-35011311D02*
X87196276Y-35107595D01*
X82647268Y-70992519D02*
X82224610Y-71199517D01*
X78870900Y-50622223D02*
X79018345Y-50840765D01*
X114500561Y-80778362D02*
X114864713Y-80489771D01*
X130899976Y-71069126D02*
X130985767Y-70991207D01*
X75978414Y-52705060D02*
X75800798Y-52732870D01*
X85685362Y-37989041D02*
X85630267Y-38274483D01*
X80420906Y-74288485D02*
X80627118Y-74298192D01*
X120793982Y-72802768D02*
X120606922Y-72665819D01*
X94381449Y-38333775D02*
X94321107Y-38127564D01*
X158127390Y-52942491D02*
X157944527Y-52944590D01*
X82511104Y-64695473D02*
X82574070Y-64944185D01*
X81242346Y-61660812D02*
X81888793Y-61887487D01*
X117509272Y-39285337D02*
X117332706Y-39325740D01*
X133353014Y-54927732D02*
X132967349Y-54569093D01*
X117866340Y-39221847D02*
X117687150Y-39250706D01*
X121142917Y-40054562D02*
X120991012Y-39937289D01*
X90949294Y-34873575D02*
X90652043Y-34794606D01*
X156873061Y-64481916D02*
X157199171Y-64279378D01*
X118408370Y-39172262D02*
X118227081Y-39182494D01*
X116132947Y-78113884D02*
X116172825Y-78037014D01*
X132285221Y-53939441D02*
X131869385Y-53601003D01*
X82574070Y-64944185D02*
X82647268Y-65194472D01*
X77442891Y-47851229D02*
X77549670Y-48128539D01*
X85638138Y-44179833D02*
X85418283Y-43792334D01*
X92669307Y-82955909D02*
X92714957Y-82913670D01*
X85432188Y-41562579D02*
X85455800Y-42141596D01*
X82332439Y-76092176D02*
X82365758Y-76174293D01*
X94378301Y-45744518D02*
X94430247Y-45169961D01*
X102658289Y-47028746D02*
X102150103Y-46954237D01*
X81510212Y-39563171D02*
X81356471Y-39528278D01*
X78580996Y-50167300D02*
X78725030Y-50397647D01*
X161489233Y-59632020D02*
X161590503Y-59370190D01*
X132704992Y-70625222D02*
X132904908Y-70622073D01*
X106434132Y-83857885D02*
X106502344Y-83869954D01*
X72539175Y-55672820D02*
X72515038Y-55851484D01*
X113153620Y-42375617D02*
X113041594Y-42558741D01*
X119947881Y-77597307D02*
X119995630Y-77504171D01*
X83792981Y-76695068D02*
X83959053Y-76633152D01*
X130043905Y-71727375D02*
X130106346Y-71708223D01*
X122302798Y-41870321D02*
X122254786Y-41690870D01*
X74979358Y-52936195D02*
X74828503Y-52989715D01*
X79991165Y-72261268D02*
X79848967Y-72339187D01*
X115904696Y-83145067D02*
X115935392Y-83044847D01*
X83614578Y-76754623D02*
X83792981Y-76695068D01*
X74017032Y-53398989D02*
X73897135Y-53482156D01*
X120659393Y-75974903D02*
X120800541Y-75852646D01*
X77930350Y-41198168D02*
X77825407Y-41341938D01*
X83145746Y-80043768D02*
X83159913Y-80098600D01*
X155887910Y-53163919D02*
X155162756Y-53283553D01*
X79166577Y-51053273D02*
X79315333Y-51259746D01*
X78164110Y-49442150D02*
X78300011Y-49689289D01*
X127533148Y-48623603D02*
X127441848Y-48438905D01*
X133892158Y-69229755D02*
X133911835Y-69208504D01*
X120829663Y-71840713D02*
X121254944Y-71553171D01*
X92789204Y-82806104D02*
X92820162Y-82736318D01*
X92848759Y-82652889D02*
X92875782Y-82553719D01*
X118327826Y-77944927D02*
X118501506Y-78041212D01*
X93013519Y-82001724D02*
X93060743Y-81846147D01*
X122404067Y-43120705D02*
X122411676Y-42905312D01*
X151398719Y-54405121D02*
X150680910Y-54659868D01*
X161357005Y-54125450D02*
X161249439Y-54018147D01*
X133710869Y-70034398D02*
X133729759Y-69960676D01*
X78734737Y-52741003D02*
X78475266Y-52708733D01*
X102150103Y-46954237D02*
X101626176Y-46892059D01*
X79252630Y-40031737D02*
X79125911Y-40114641D01*
X162225407Y-56490056D02*
X162224095Y-56319263D01*
X111656349Y-46203377D02*
X111615159Y-46404341D01*
X94714642Y-41389424D02*
X94713855Y-41090077D01*
X79798332Y-39734489D02*
X79656397Y-39801652D01*
X106369592Y-83838996D02*
X106434132Y-83857885D01*
X94355476Y-47378990D02*
X94339734Y-47191669D01*
X133729759Y-69960676D02*
X133758881Y-69815856D01*
X162224095Y-56319263D02*
X162216749Y-56153192D01*
X94027792Y-37369620D02*
X93941476Y-37195941D01*
X134994845Y-68121567D02*
X134997730Y-68058602D01*
X147563321Y-67891744D02*
X148075705Y-67808315D01*
X83591228Y-79408082D02*
X83434339Y-79492822D01*
X116040860Y-78418478D02*
X116067095Y-78303304D01*
X126746077Y-47588087D02*
X126650316Y-47512791D01*
X129303008Y-71565240D02*
X129396145Y-71624007D01*
X96152097Y-82460845D02*
X96548518Y-82536928D01*
X78619825Y-60784546D02*
X79554603Y-61088616D01*
X125392577Y-46984671D02*
X125219946Y-46966830D01*
X144432352Y-68106613D02*
X144840580Y-68103990D01*
X113651574Y-41670931D02*
X113519346Y-41841987D01*
X116019084Y-78653286D02*
X116019084Y-78548344D01*
X72890996Y-57748311D02*
X72950289Y-57856401D01*
X123377674Y-47349869D02*
X123168314Y-47446153D01*
X90020025Y-34666314D02*
X89684995Y-34616991D01*
X74330549Y-59299354D02*
X74554077Y-59438402D01*
X77249271Y-47282968D02*
X77342670Y-47569198D01*
X120867705Y-47353542D02*
X121020396Y-47101943D01*
X94687620Y-42340199D02*
X94701262Y-42014092D01*
X162125187Y-55529312D02*
X162086620Y-55383443D01*
X149164224Y-67585314D02*
X149450456Y-67516577D01*
X121960946Y-48152151D02*
X121918707Y-48141394D01*
X133688306Y-70107333D02*
X133710869Y-70034398D01*
X115336431Y-83731168D02*
X115386016Y-83717263D01*
X162216749Y-56153192D02*
X162203369Y-55991057D01*
X136851545Y-56665572D02*
X136453550Y-56549349D01*
X120548416Y-39653159D02*
X120431667Y-39590718D01*
X133836276Y-69395563D02*
X133854116Y-69327876D01*
X76864918Y-45455403D02*
X76888268Y-45667911D01*
X92547835Y-83014939D02*
X92609752Y-82990277D01*
X127326673Y-69835008D02*
X127726243Y-70177644D01*
X133124764Y-70598986D02*
X133217900Y-70583769D01*
X82265800Y-39891377D02*
X82115995Y-39805062D01*
X83733950Y-70327973D02*
X83490483Y-70498766D01*
X83396822Y-80423658D02*
X83448244Y-80460650D01*
X85479674Y-39457180D02*
X85457636Y-39759150D01*
X84962044Y-68255106D02*
X85120770Y-68392842D01*
X101353325Y-83038026D02*
X102140396Y-83055604D01*
X117797602Y-77688082D02*
X117914614Y-77728484D01*
X107257933Y-83869954D02*
X107695807Y-83861034D01*
X80174028Y-53003882D02*
X79721724Y-52906811D01*
X77946092Y-52658361D02*
X77677963Y-52641832D01*
X84959683Y-69187254D02*
X84832964Y-69335222D01*
X122188148Y-74415727D02*
X122182113Y-74366929D01*
X160475486Y-61386651D02*
X160652839Y-61144235D01*
X115960054Y-82847819D02*
X115954019Y-82753895D01*
X97261080Y-46990705D02*
X96868856Y-47043176D01*
X87740143Y-34771256D02*
X87598470Y-34842879D01*
X133629801Y-70248217D02*
X133661546Y-70178956D01*
X74117253Y-59150337D02*
X74330549Y-59299354D01*
X121254944Y-71553171D02*
X121708821Y-71251725D01*
X72501133Y-56031460D02*
X72497198Y-56211960D01*
X119896984Y-77685983D02*
X119947881Y-77597307D01*
X81868854Y-74561859D02*
X81938904Y-74613018D01*
X72573282Y-55495206D02*
X72539175Y-55672820D01*
X127829611Y-49555750D02*
X127787109Y-49371577D01*
X88348286Y-34567406D02*
X88190085Y-34605710D01*
X154669524Y-53389807D02*
X154394836Y-53458544D01*
X144082106Y-56920056D02*
X143638722Y-56999812D01*
X115940115Y-79378173D02*
X115965301Y-79302877D01*
X72617095Y-55319166D02*
X72573282Y-55495206D01*
X113789049Y-41503811D02*
X113651574Y-41670931D01*
X145259564Y-68094545D02*
X145690354Y-68076967D01*
X83434339Y-79492822D02*
X83360616Y-79545556D01*
X121557179Y-75271792D02*
X121724825Y-75130382D01*
X105777714Y-47773310D02*
X105508274Y-47688832D01*
X83652095Y-41208924D02*
X83478939Y-40999827D01*
X85898134Y-37169444D02*
X85818902Y-37435734D01*
X159659031Y-62327718D02*
X159879148Y-62096584D01*
X81152882Y-74321804D02*
X81322364Y-74347515D01*
X81405269Y-74365093D02*
X81486862Y-74386606D01*
X110111853Y-46762456D02*
X109711234Y-46853755D01*
X160783755Y-53646128D02*
X160617683Y-53540136D01*
X81356471Y-39528278D02*
X81201943Y-39503354D01*
X126549046Y-47440119D02*
X126442267Y-47369545D01*
X138474748Y-57019751D02*
X138064422Y-56947604D01*
X133592546Y-70313806D02*
X133629801Y-70248217D01*
X122182113Y-74366929D02*
X122171094Y-74316557D01*
X116379825Y-77825556D02*
X116443840Y-77790925D01*
X112319850Y-83785738D02*
X113965353Y-83763175D01*
X81662904Y-39608296D02*
X81510212Y-39563171D01*
X72756669Y-57465230D02*
X72835114Y-57638647D01*
X115748594Y-83422114D02*
X115808674Y-83333700D01*
X94436806Y-38546545D02*
X94381449Y-38333775D01*
X99389320Y-46813615D02*
X98949347Y-46833816D01*
X128192189Y-51013132D02*
X128162542Y-50968270D01*
X134698906Y-67267077D02*
X135256152Y-67383825D01*
X121422065Y-40304586D02*
X121286689Y-40176819D01*
X140568620Y-57213369D02*
X140144651Y-57196841D01*
X161641925Y-54466512D02*
X161553248Y-54349501D01*
X152812299Y-53927897D02*
X152113642Y-54159032D01*
X121624605Y-73518211D02*
X121508381Y-73402250D01*
X159068990Y-53007293D02*
X158844937Y-52978696D01*
X94339734Y-47191669D02*
X94330814Y-46942169D01*
X134740096Y-68699536D02*
X134797027Y-68631323D01*
X139783123Y-68006131D02*
X140270058Y-68032104D01*
X153480260Y-53718538D02*
X152812299Y-53927897D01*
X127278137Y-48168941D02*
X127215696Y-48081052D01*
X100172718Y-82982931D02*
X100566254Y-83005494D01*
X107441845Y-47535879D02*
X107135937Y-47644494D01*
X94662696Y-39977954D02*
X94637509Y-39720322D01*
X122066676Y-44821553D02*
X122130691Y-44614817D01*
X77408260Y-52631338D02*
X77137770Y-52627665D01*
X72688719Y-57289977D02*
X72756669Y-57465230D01*
X96960419Y-82610387D02*
X97388585Y-82680436D01*
X146752900Y-56141649D02*
X146400030Y-56274400D01*
X120312557Y-39532475D02*
X120191348Y-39478693D01*
X93410465Y-81803908D02*
X93508849Y-81827782D01*
X93115314Y-81722840D02*
X93213698Y-81746714D01*
X72503757Y-56392985D02*
X72520023Y-56573748D01*
X142661180Y-57131777D02*
X142399085Y-57156963D01*
X73365862Y-53960167D02*
X73272726Y-54068519D01*
X80723666Y-39489712D02*
X80561267Y-39507027D01*
X162203369Y-55991057D02*
X162183430Y-55833119D01*
X78526425Y-40563268D02*
X78397870Y-40678442D01*
X94717266Y-82140509D02*
X95405166Y-82302382D01*
X118024279Y-77776233D02*
X118128697Y-77829229D01*
X83523278Y-76779546D02*
X83614578Y-76754623D01*
X124811193Y-69562684D02*
X125655458Y-69195387D01*
X124918760Y-46963420D02*
X124793878Y-46970766D01*
X127612117Y-48810137D02*
X127533148Y-48623603D01*
X82151413Y-74860681D02*
X82176861Y-74911054D01*
X80402016Y-39535099D02*
X80245914Y-39572616D01*
X73100357Y-54297293D02*
X73020863Y-54417976D01*
X83119773Y-66172269D02*
X83206350Y-66306595D01*
X83206350Y-66306595D02*
X83390000Y-66570000D01*
X77230906Y-42480034D02*
X77166891Y-42658961D01*
X82966556Y-76761444D02*
X83011157Y-76779546D01*
X82237203Y-75117789D02*
X82248747Y-75225355D01*
X121522548Y-46165598D02*
X121689932Y-45803811D01*
X143318122Y-68084575D02*
X143678076Y-68093495D01*
X81099361Y-71727113D02*
X80681164Y-71922305D01*
X152675086Y-66489981D02*
X153037663Y-66348834D01*
X76888268Y-45667911D02*
X76917914Y-45881205D01*
X131764705Y-70644373D02*
X131848921Y-70635191D01*
X129845300Y-71753348D02*
X129913251Y-71750462D01*
X116266749Y-77914232D02*
X116320795Y-77866221D01*
X75811817Y-59977542D02*
X76088341Y-60052313D01*
X79612321Y-51653016D02*
X79905636Y-52020051D01*
X134515256Y-55802161D02*
X134425530Y-55754675D01*
X76873051Y-44002481D02*
X76853899Y-44205019D01*
X130646276Y-71326497D02*
X130737314Y-71228638D01*
X83722931Y-80594713D02*
X85144120Y-81028649D01*
X134425530Y-55754675D02*
X134333705Y-55700630D01*
X161553248Y-54349501D02*
X161458275Y-54235902D01*
X115541594Y-82177764D02*
X115402545Y-82050784D01*
X82263439Y-75763708D02*
X82272884Y-75845038D01*
X130376311Y-52462119D02*
X130052562Y-52231247D01*
X134931617Y-67696815D02*
X134884655Y-67582952D01*
X82115995Y-39805062D02*
X81965664Y-39728979D01*
X105198430Y-47597007D02*
X104850807Y-47500198D01*
X85173766Y-43381749D02*
X84906162Y-42954372D01*
X122131216Y-41346923D02*
X122055920Y-41182426D01*
X161724043Y-54586933D02*
X161641925Y-54466512D01*
X84300117Y-76528210D02*
X85533195Y-78522109D01*
X131673929Y-70658541D02*
X131764705Y-70644373D01*
X157011848Y-53008867D02*
X156635103Y-53053992D01*
X113882711Y-41395459D02*
X113789049Y-41503811D01*
X118859099Y-78184720D02*
X118957745Y-78201511D01*
X94330814Y-46942169D02*
X94331863Y-46623145D01*
X120800541Y-75852646D02*
X120971073Y-75720681D01*
X119942371Y-39383983D02*
X119814866Y-39343055D01*
X77539963Y-41802896D02*
X77454959Y-41965819D01*
X121871745Y-48130637D02*
X121817175Y-48115158D01*
X79246858Y-72803818D02*
X79187828Y-72886984D01*
X121817175Y-48115158D02*
X121573183Y-48050357D01*
X82772674Y-76641548D02*
X82883389Y-76711859D01*
X124793878Y-46970766D02*
X124669258Y-46983096D01*
X136453550Y-56549349D02*
X136058965Y-56422106D01*
X133661546Y-70178956D02*
X133688306Y-70107333D01*
X128259614Y-51082394D02*
X128224459Y-51051174D01*
X122189722Y-48025433D02*
X122000825Y-48167630D01*
X98086193Y-46899405D02*
X97667733Y-46942431D01*
X115528739Y-79932792D02*
X115620826Y-79843853D01*
X131074968Y-70917223D02*
X131168105Y-70849273D01*
X73897135Y-53482156D02*
X73781961Y-53569258D01*
X133949352Y-55432765D02*
X133751010Y-55274303D01*
X82298333Y-62908573D02*
X82303055Y-63101666D01*
X81645326Y-74441963D02*
X81721934Y-74476856D01*
X122398033Y-42476886D02*
X122375471Y-42264903D01*
X94331863Y-46623145D02*
X94346818Y-46226465D01*
X122197330Y-41516404D02*
X122131216Y-41346923D01*
X91506803Y-35061945D02*
X91234214Y-34962775D01*
X82248747Y-75225355D02*
X82253207Y-75336856D01*
X93213698Y-81746714D02*
X93312082Y-81775311D01*
X133751010Y-55274303D02*
X133551618Y-55104559D01*
X133375577Y-70523953D02*
X133441166Y-70481451D01*
X127737524Y-49185305D02*
X127679805Y-48997721D01*
X115620826Y-79843853D02*
X115704256Y-79755177D01*
X85425366Y-41266905D02*
X85432188Y-41562579D01*
X130985767Y-70991207D02*
X131074968Y-70917223D01*
X85582518Y-38564910D02*
X85541853Y-38859272D01*
X73723717Y-58824229D02*
X73914976Y-58992136D01*
X72808878Y-54805212D02*
X72735156Y-54973907D01*
X92754573Y-82864609D02*
X92789204Y-82806104D01*
X84532828Y-69651360D02*
X84358623Y-69816906D01*
X94321107Y-38127564D02*
X94255517Y-37928437D01*
X115433765Y-83698374D02*
X115479416Y-83675024D01*
X150041546Y-67362574D02*
X150346405Y-67276522D01*
X150976324Y-67085790D02*
X151301384Y-66980585D01*
X118046317Y-39199022D02*
X117866340Y-39221847D01*
X121388221Y-73289175D02*
X121265700Y-73180035D01*
X79399812Y-72644831D02*
X79317432Y-72723275D01*
X154394836Y-53458544D02*
X154103882Y-53536988D01*
X79105447Y-73065124D02*
X79082098Y-73144879D01*
X122341889Y-42054757D02*
X122302798Y-41870321D01*
X132790783Y-54396988D02*
X132616316Y-54234590D01*
X140762240Y-68048370D02*
X141257832Y-68054142D01*
X91803529Y-82929673D02*
X91838684Y-82933871D01*
X161933666Y-54968659D02*
X161870176Y-54838007D01*
X83813969Y-79296843D02*
X83591228Y-79408082D01*
X83243867Y-79669387D02*
X83201366Y-79738911D01*
X82697378Y-65336931D02*
X82754047Y-65478603D01*
X83786160Y-67069524D02*
X83991847Y-67303282D01*
X83360616Y-79545556D02*
X83297126Y-79604848D01*
X119554345Y-39274318D02*
X119421330Y-39246246D01*
X112053033Y-44759637D02*
X111945991Y-45094402D01*
X85422743Y-40968345D02*
X85425366Y-41266905D01*
X95405166Y-82302382D02*
X95771154Y-82382401D01*
X133548995Y-70375197D02*
X133592546Y-70313806D01*
X134766069Y-67367821D02*
X134698906Y-67267077D01*
X115904696Y-82583365D02*
X115861670Y-82509905D01*
X112734636Y-43116508D02*
X112641762Y-43303829D01*
X116019084Y-78548344D02*
X116040860Y-78418478D01*
X86713802Y-35574587D02*
X86639030Y-35669822D01*
X121777821Y-40720157D02*
X121667894Y-40576386D01*
X152320379Y-66623782D02*
X152675086Y-66489981D01*
X82084774Y-74760987D02*
X82120979Y-74810572D01*
X76933393Y-52629764D02*
X76733477Y-52636323D01*
X121925791Y-45225842D02*
X121998463Y-45025403D01*
X72546784Y-56754248D02*
X72583776Y-56933961D01*
X116308201Y-39672573D02*
X116144753Y-39745770D01*
X85168256Y-68919127D02*
X85071184Y-69048205D01*
X92875782Y-82553719D02*
X92931664Y-82300021D01*
X84906162Y-42954372D02*
X84618094Y-42517026D01*
X92892835Y-35870786D02*
X92691082Y-35710225D01*
X96493161Y-47098533D02*
X96136618Y-47155726D01*
X124059540Y-47105092D02*
X123824731Y-47177239D01*
X121735057Y-73635746D02*
X121624605Y-73518211D01*
X134144283Y-69114056D02*
X134250275Y-69062373D01*
X149974645Y-54916713D02*
X149293566Y-55169361D01*
X77904115Y-48931870D02*
X78032145Y-49189765D01*
X120971073Y-75720681D02*
X121161282Y-75583732D01*
X94645642Y-43019699D02*
X94668992Y-42675227D01*
X94532304Y-38993861D02*
X94487179Y-38766661D01*
X104345507Y-83034615D02*
X104734320Y-83018349D01*
X121724825Y-75130382D02*
X121869646Y-74996844D01*
X105373422Y-82983456D02*
X105813395Y-82955909D01*
X122289417Y-43981230D02*
X122329558Y-43767148D01*
X141625132Y-68054142D02*
X142294142Y-68057553D01*
X119842938Y-77769674D02*
X119896984Y-77685983D01*
X141288003Y-57216255D02*
X140995475Y-57218879D01*
X120785849Y-47813188D02*
X120610332Y-47747861D01*
X125561535Y-47013267D02*
X125392577Y-46984671D01*
X122993321Y-70439474D02*
X123163329Y-70340566D01*
X117016041Y-77656337D02*
X117113900Y-77641120D01*
X123597005Y-47259619D02*
X123377674Y-47349869D01*
X107135937Y-47644494D02*
X106633261Y-47831290D01*
X113965353Y-83763175D02*
X115232013Y-83742974D01*
X79338945Y-73920401D02*
X79410831Y-73990712D01*
X142628648Y-68065161D02*
X142963153Y-68080378D01*
X79718838Y-72415795D02*
X79600515Y-72491878D01*
X77252944Y-60365303D02*
X77694754Y-60496743D01*
X105874786Y-83282803D02*
X105892102Y-83323206D01*
X158613538Y-52958495D02*
X158374268Y-52946427D01*
X79600515Y-72491878D02*
X79494261Y-72567961D01*
X139304059Y-57130465D02*
X138887961Y-57080618D01*
X110505126Y-46685061D02*
X110111853Y-46762456D01*
X114864713Y-80489771D02*
X115323838Y-80112767D01*
X101359097Y-46866086D02*
X101089394Y-46844311D01*
X142130432Y-57178214D02*
X141855744Y-57195529D01*
X121931300Y-73871603D02*
X121837901Y-73753806D01*
X121022758Y-72977235D02*
X120793982Y-72802768D01*
X118128697Y-77829229D02*
X118327826Y-77944927D01*
X133804793Y-69544319D02*
X133836276Y-69395563D01*
X144492694Y-56834791D02*
X144082106Y-56920056D01*
X85424317Y-40667423D02*
X85422743Y-40968345D01*
X137252689Y-56770514D02*
X136851545Y-56665572D01*
X127215696Y-48081052D02*
X127148795Y-47994738D01*
X153037663Y-66348834D02*
X153467929Y-66175155D01*
X91899551Y-82951711D02*
X91934707Y-82955909D01*
X128224459Y-51051174D02*
X128192189Y-51013132D01*
X122411676Y-42905312D02*
X122409839Y-42690443D01*
X91838684Y-82933871D02*
X91869118Y-82942791D01*
X154297240Y-65819139D02*
X154696547Y-65636803D01*
X126836590Y-47665482D02*
X126746077Y-47588087D01*
X145207880Y-56658488D02*
X144868390Y-56746640D01*
X94682897Y-40243720D02*
X94662696Y-39977954D01*
X76733477Y-52636323D02*
X76538021Y-52647080D01*
X80191606Y-52359801D02*
X80466556Y-52671216D01*
X77137770Y-52627665D02*
X76933393Y-52629764D01*
X115965301Y-79302877D02*
X115984715Y-79228368D01*
X128134995Y-50917373D02*
X128109809Y-50860704D01*
X132616316Y-54234590D02*
X132285221Y-53939441D01*
X115861670Y-82509905D02*
X115777978Y-82412309D01*
X116067095Y-78303304D02*
X116097791Y-78202298D01*
X112832233Y-42929449D02*
X112734636Y-43116508D01*
X84358623Y-69816906D02*
X84167889Y-69985862D01*
X77694754Y-60496743D02*
X78619825Y-60784546D01*
X131168105Y-70849273D02*
X131264914Y-70789718D01*
X81888793Y-61887487D02*
X82332439Y-62046212D01*
X99779183Y-82955909D02*
X100172718Y-82982931D01*
X134797027Y-68631323D02*
X134846875Y-68561012D01*
X117914614Y-77728484D02*
X118024279Y-77776233D01*
X93508849Y-81827782D02*
X94086035Y-81980735D01*
X73376619Y-58462179D02*
X73544265Y-58647664D01*
X79070292Y-73226997D02*
X79069505Y-73310950D01*
X87196276Y-35107595D02*
X87070083Y-35212275D01*
X125655458Y-69195387D02*
X126251009Y-68946149D01*
X88727392Y-82096696D02*
X89684995Y-82370857D01*
X94430247Y-45169961D02*
X94505806Y-44494659D01*
X77677963Y-52641832D02*
X77408260Y-52631338D01*
X153798499Y-53623827D02*
X153480260Y-53718538D01*
X115768271Y-79680931D02*
X115823366Y-79605635D01*
X72735156Y-54973907D02*
X72671141Y-55145487D01*
X134250275Y-69062373D02*
X134349184Y-69008065D01*
X116937334Y-77656337D02*
X117016041Y-77656337D01*
X134884655Y-67582952D02*
X134828773Y-67473288D01*
X84198322Y-67524185D02*
X84401649Y-67731183D01*
X106003604Y-47847819D02*
X105777714Y-47773310D01*
X141257832Y-68054142D02*
X141441482Y-68054142D01*
X82647268Y-65194472D02*
X82697378Y-65336931D01*
X120957431Y-47871693D02*
X120785849Y-47813188D01*
X85375781Y-68605088D02*
X85320161Y-68696125D01*
X80681164Y-71922305D02*
X80311765Y-72098608D01*
X72874992Y-54671936D02*
X72808878Y-54805212D01*
X122013155Y-73987826D02*
X121931300Y-73871603D01*
X160084836Y-53275682D02*
X159894890Y-53204846D01*
X109711234Y-46853755D02*
X109307991Y-46956599D01*
X158374268Y-52946427D02*
X158127390Y-52942491D01*
X82332439Y-62046212D02*
X82313812Y-62269738D01*
X89684995Y-82370857D02*
X90518766Y-82601729D01*
X135256152Y-67383825D02*
X135915455Y-67511854D01*
X158398405Y-63440366D02*
X158671781Y-63223661D01*
X94086035Y-81980735D02*
X94717266Y-82140509D01*
X92691082Y-35710225D02*
X92477786Y-35560158D01*
X154926109Y-53331039D02*
X154669524Y-53389807D01*
X82947404Y-70832220D02*
X82647268Y-70992519D01*
X94698114Y-40517619D02*
X94682897Y-40243720D01*
X120198694Y-76998613D02*
X120269268Y-76790565D01*
X110697171Y-46652791D02*
X110505126Y-46685061D01*
X116587349Y-77736617D02*
X116751585Y-77694641D01*
X85418283Y-43792334D02*
X85173766Y-43381749D01*
X106199322Y-83748221D02*
X106252318Y-83783377D01*
X115777978Y-82412309D02*
X115669100Y-82300021D01*
X79656397Y-39801652D02*
X79518135Y-39874324D01*
X117332706Y-39325740D02*
X117157451Y-39371389D01*
X113981619Y-41287368D02*
X113882711Y-41395459D01*
X82414819Y-39988449D02*
X82265800Y-39891377D01*
X106252318Y-83783377D02*
X106308987Y-83813810D01*
X115402545Y-82050784D02*
X115116313Y-81801547D01*
X85120770Y-68392842D02*
X85375781Y-68605088D01*
X82287051Y-75927155D02*
X82306466Y-76009534D01*
X96868856Y-47043176D02*
X96493161Y-47098533D01*
X91934707Y-82955909D02*
X92052768Y-82979258D01*
X159186788Y-62781330D02*
X159428156Y-62555967D01*
X72671141Y-55145487D02*
X72617095Y-55319166D01*
X136058965Y-56422106D02*
X135667790Y-56283583D01*
X77629951Y-41644434D02*
X77539963Y-41802896D01*
X121989806Y-74869077D02*
X122040178Y-74807161D01*
X121918707Y-48141394D02*
X121871745Y-48130637D01*
X159495582Y-53089148D02*
X159285959Y-53044023D01*
X77007378Y-43217252D02*
X76965139Y-43409558D01*
X89022544Y-34498932D02*
X88847552Y-34503129D01*
X159879148Y-62096584D02*
X160088771Y-61862825D01*
X118501506Y-78041212D02*
X118587822Y-78085550D01*
X121352278Y-46504561D02*
X121522548Y-46165598D01*
X120483352Y-76207612D02*
X120519557Y-76138351D01*
X82300432Y-62560165D02*
X82298333Y-62908573D01*
X94585038Y-43737502D02*
X94645642Y-43019699D01*
X116443840Y-77790925D02*
X116513102Y-77761804D01*
X140995475Y-57218879D02*
X140568620Y-57213369D01*
X83222354Y-80234238D02*
X83276924Y-80309533D01*
X114864713Y-81591663D02*
X114669257Y-81439497D01*
X133758881Y-69815856D02*
X133780656Y-69680743D01*
X78990010Y-52777732D02*
X78734737Y-52741003D01*
X119156612Y-78202298D02*
X119246076Y-78187606D01*
X80311765Y-72098608D02*
X79991165Y-72261268D01*
X144840580Y-68103990D02*
X145259564Y-68094545D01*
X94255517Y-37928437D02*
X94184943Y-37735868D01*
X82253207Y-75336856D02*
X82253732Y-75452554D01*
X134846875Y-68561012D02*
X134889639Y-68489127D01*
X94346818Y-46226465D02*
X94378301Y-45744518D01*
X83431453Y-76799223D02*
X83523278Y-76779546D01*
X156635103Y-53053992D02*
X156259933Y-53106463D01*
X92052768Y-82979258D02*
X92170828Y-83005232D01*
X75458947Y-52801344D02*
X75294711Y-52842009D01*
X120557861Y-76082207D02*
X120603249Y-76030785D01*
X76954120Y-46095025D02*
X77015249Y-46398045D01*
X118873004Y-39177509D02*
X118732118Y-39170950D01*
X79079212Y-73396478D02*
X79098888Y-73483055D01*
X128162542Y-50968270D02*
X128134995Y-50917373D01*
X122081631Y-74101426D02*
X122013155Y-73987826D01*
X98771469Y-82863297D02*
X99266537Y-82912883D01*
X125219946Y-46966830D02*
X125044166Y-46960796D01*
X94701262Y-42014092D02*
X94710445Y-41697429D01*
X74554077Y-59438402D02*
X74787313Y-59567481D01*
X83988962Y-41637875D02*
X83822102Y-41421694D01*
X85533195Y-78522109D02*
X85006120Y-78747471D01*
X122454178Y-47846245D02*
X122313030Y-47939381D01*
X152113642Y-54159032D02*
X151398719Y-54405121D01*
X155162756Y-53283553D02*
X154926109Y-53331039D01*
X148609076Y-67706522D02*
X149164224Y-67585314D01*
X84832964Y-69335222D02*
X84691029Y-69490274D01*
X114480885Y-81299924D02*
X114156349Y-81066952D01*
X113270369Y-42194854D02*
X113153620Y-42375617D01*
X120606922Y-72665819D02*
X120439800Y-72533855D01*
X92931664Y-82300021D02*
X92971542Y-82161760D01*
X121971965Y-41023177D02*
X121879353Y-40868912D01*
X82458370Y-76336166D02*
X82519237Y-76415397D01*
X111709082Y-45968045D02*
X111656349Y-46203377D01*
X84401649Y-67731183D02*
X84599204Y-67922965D01*
X76847603Y-45243682D02*
X76864918Y-45455403D01*
X121265700Y-73180035D02*
X121022758Y-72977235D01*
X81046365Y-39488662D02*
X80889475Y-39483677D01*
X84618094Y-42517026D02*
X84311661Y-42076008D01*
X120164325Y-72304294D02*
X120457903Y-72097033D01*
X84385383Y-79027142D02*
X83813969Y-79296843D01*
X88677020Y-34515985D02*
X88510423Y-34537498D01*
X81823991Y-71389462D02*
X81099361Y-71727113D01*
X79383546Y-39951194D02*
X79252630Y-40031737D01*
X132390164Y-70625222D02*
X132704992Y-70625222D01*
X78725030Y-50397647D02*
X78870900Y-50622223D01*
X162042020Y-55241509D02*
X161990860Y-55103248D01*
X83571027Y-80531223D02*
X83643175Y-80564018D01*
X126329716Y-47301858D02*
X126188306Y-47226824D01*
X79018345Y-50840765D02*
X79166577Y-51053273D01*
X122083730Y-74746295D02*
X122119935Y-74685953D01*
X157819908Y-63865644D02*
X158114272Y-63654448D01*
X94668992Y-42675227D02*
X94687620Y-42340199D01*
X83506225Y-80496593D02*
X83571027Y-80531223D01*
X121183320Y-46817813D02*
X121352278Y-46504561D01*
X125726295Y-47052621D02*
X125561535Y-47013267D01*
X79830078Y-74209779D02*
X79923739Y-74232603D01*
X85250899Y-68801329D02*
X85168256Y-68919127D01*
X85071184Y-69048205D02*
X84959683Y-69187254D01*
X162167689Y-57216780D02*
X162191301Y-57028409D01*
X120610332Y-47747861D02*
X120729442Y-47569985D01*
X132967349Y-54569093D02*
X132790783Y-54396988D01*
X74682108Y-53047171D02*
X74540172Y-53109087D01*
X82519237Y-76415397D02*
X82591386Y-76493055D01*
X138887961Y-57080618D02*
X138474748Y-57019751D01*
X115861670Y-83244499D02*
X115904696Y-83145067D01*
X98949347Y-46833816D02*
X98514097Y-46862675D01*
X141441482Y-68054142D02*
X141625132Y-68054142D01*
X151301384Y-66980585D02*
X151633791Y-66868822D01*
X161990860Y-55103248D02*
X161933666Y-54968659D01*
X143164381Y-57071435D02*
X142916191Y-57103180D01*
X86947562Y-35325088D02*
X86828714Y-35445771D01*
X72520023Y-56573748D02*
X72546784Y-56754248D01*
X78659440Y-40454391D02*
X78526425Y-40563268D01*
X83297126Y-79604848D02*
X83243867Y-79669387D01*
X93849651Y-37028297D02*
X93752841Y-36866423D01*
X85541853Y-38859272D02*
X85507484Y-39157045D01*
X122149056Y-74626398D02*
X122170570Y-74567106D01*
X119421330Y-39246246D02*
X119286479Y-39222634D01*
X132904908Y-70622073D02*
X133011163Y-70614203D01*
X114194391Y-41071975D02*
X113981619Y-41287368D01*
X134996156Y-67996424D02*
X134990384Y-67934771D01*
X130340368Y-71589376D02*
X130448197Y-71509883D01*
X116983771Y-39422286D02*
X116811927Y-39477906D01*
X149742984Y-67442330D02*
X150041546Y-67362574D01*
X144047737Y-68102415D02*
X144432352Y-68106613D01*
X158934663Y-63003807D02*
X159186788Y-62781330D01*
X84149262Y-76561005D02*
X84232166Y-76537130D01*
X87598470Y-34842879D02*
X87460470Y-34922897D01*
X128398926Y-51159002D02*
X128297394Y-51106006D01*
X80466556Y-52671216D02*
X80726552Y-52953248D01*
X82313812Y-62269738D02*
X82300432Y-62560165D01*
X105508274Y-47688832D02*
X105198430Y-47597007D01*
X78397870Y-40678442D02*
X78274038Y-40799913D01*
X129110701Y-71412287D02*
X129208035Y-71494666D01*
X106027216Y-83578215D02*
X106064208Y-83623602D01*
X133301330Y-70558583D02*
X133375577Y-70523953D01*
X94505806Y-44494659D02*
X94585038Y-43737502D01*
X134031469Y-69162592D02*
X134144283Y-69114056D01*
X145508541Y-56573223D02*
X145207880Y-56658488D01*
X160652839Y-61144235D02*
X160819173Y-60899195D01*
X76836846Y-45033011D02*
X76847603Y-45243682D01*
X76833435Y-60245669D02*
X77252944Y-60365303D01*
X119723303Y-77919479D02*
X119784957Y-77847856D01*
X122166634Y-70953952D02*
X122602934Y-70677168D01*
X106633261Y-47831290D02*
X106311873Y-47957745D01*
X85430351Y-40364928D02*
X85424317Y-40667423D01*
X89337372Y-34577638D02*
X89273357Y-34543270D01*
X74269682Y-53245774D02*
X74141127Y-53320283D01*
X115984715Y-79228368D02*
X115999407Y-79155171D01*
X91234214Y-34962775D02*
X90949294Y-34873575D01*
X117157451Y-39371389D02*
X116983771Y-39422286D01*
X111945991Y-45094402D02*
X111853379Y-45409753D01*
X85584879Y-43724647D02*
X85638138Y-44179833D01*
X130448197Y-71509883D02*
X130549991Y-71421207D01*
X82224610Y-71199517D02*
X81823991Y-71389462D01*
X127866604Y-49736250D02*
X127829611Y-49555750D01*
X86639030Y-35669822D02*
X86566882Y-35768205D01*
X81201943Y-39503354D02*
X81046365Y-39488662D01*
X119246076Y-78187606D02*
X119335539Y-78162944D01*
X161956229Y-58230782D02*
X162010799Y-58018274D01*
X105829399Y-83053767D02*
X105842779Y-83149527D01*
X162101575Y-57607951D02*
X162137780Y-57409873D01*
X76160490Y-52681448D02*
X75978414Y-52705060D01*
X119335539Y-78162944D02*
X119429726Y-78128576D01*
X123312610Y-70257925D02*
X123590708Y-70119663D01*
X100542642Y-46814140D02*
X100266380Y-46806007D01*
X116751585Y-77694641D02*
X116937334Y-77656337D01*
X85818902Y-37435734D02*
X85748066Y-37709108D01*
X90342200Y-34725344D02*
X90020025Y-34666314D01*
X162137780Y-57409873D02*
X162167689Y-57216780D01*
X133873006Y-69271207D02*
X133892158Y-69229755D01*
X85144120Y-81028649D02*
X86453806Y-81424542D01*
X159285959Y-53044023D02*
X159068990Y-53007293D01*
X82884963Y-65759585D02*
X82958685Y-65898371D01*
X106064208Y-83623602D02*
X106105136Y-83667678D01*
X72497198Y-56211960D02*
X72503757Y-56392985D01*
X120729442Y-47569985D02*
X120867705Y-47353542D01*
X161119572Y-60400721D02*
X161253637Y-60147286D01*
X146594174Y-68010591D02*
X147069828Y-67958645D01*
X162183430Y-55833119D02*
X162157457Y-55679117D01*
X93941476Y-37195941D02*
X93849651Y-37028297D01*
X138831816Y-67929786D02*
X139303272Y-67971763D01*
X103147060Y-47113225D02*
X102658289Y-47028746D01*
X134144283Y-55576274D02*
X133949352Y-55432765D01*
X79098888Y-73483055D02*
X79127485Y-73570682D01*
X101089394Y-46844311D02*
X100817067Y-46826995D01*
X106574230Y-83874151D02*
X106889059Y-83874151D01*
X134997730Y-68058602D02*
X134996156Y-67996424D01*
X134990384Y-67934771D02*
X134967559Y-67814087D01*
X77300431Y-42304519D02*
X77230906Y-42480034D01*
X119995630Y-77504171D02*
X120040493Y-77407624D01*
X122119935Y-74685953D02*
X122149056Y-74626398D01*
X124669258Y-46983096D02*
X124545426Y-46999625D01*
X83152830Y-76811554D02*
X83250689Y-76816801D01*
X161828461Y-58671014D02*
X161895362Y-58448274D01*
X126650316Y-47512791D02*
X126549046Y-47440119D01*
X130721311Y-52714505D02*
X130376311Y-52462119D01*
X92288889Y-83025958D02*
X92347919Y-83032254D01*
X83276924Y-80309533D02*
X83311293Y-80347575D01*
X73221566Y-58268299D02*
X73376619Y-58462179D01*
X113392365Y-42016715D02*
X113270369Y-42194854D01*
X92971542Y-82161760D02*
X93013519Y-82001724D01*
X131366184Y-70740395D02*
X131471914Y-70703928D01*
X145690354Y-68076967D02*
X146134787Y-68049682D01*
X119814866Y-39343055D02*
X119685524Y-39306588D01*
X83959578Y-70156655D02*
X83733950Y-70327973D01*
X134973856Y-68263501D02*
X134987499Y-68185320D01*
X93752841Y-36866423D02*
X93650522Y-36710060D01*
X83991847Y-67303282D02*
X84198322Y-67524185D01*
X83448244Y-80460650D02*
X83506225Y-80496593D01*
X95205250Y-47327306D02*
X94723300Y-47429625D01*
X86082571Y-36661787D02*
X85985761Y-36911286D01*
X76538021Y-52647080D02*
X76347025Y-52662034D01*
X127991223Y-50427294D02*
X127930094Y-50082821D01*
X76831861Y-44823652D02*
X76836846Y-45033011D01*
X120448196Y-76287893D02*
X120483352Y-76207612D01*
X123168314Y-47446153D02*
X122969972Y-47546110D01*
X160088771Y-61862825D02*
X160287376Y-61626181D01*
X131469291Y-53284078D02*
X131085987Y-52988404D01*
X127077958Y-47909734D02*
X127002137Y-47826568D01*
X81938904Y-74613018D02*
X81994261Y-74662341D01*
X77342670Y-47569198D02*
X77442891Y-47851229D01*
X156536457Y-64681568D02*
X156873061Y-64481916D01*
X120662804Y-39719797D02*
X120548416Y-39653159D01*
X94723300Y-47429625D02*
X94374628Y-47511742D01*
X115523492Y-83647477D02*
X115605872Y-83582413D01*
X129396145Y-71624007D02*
X129487708Y-71671494D01*
X82312762Y-63305516D02*
X82327979Y-63519335D01*
X73564991Y-53756317D02*
X73463197Y-53856274D01*
X116144753Y-39745770D02*
X115983666Y-39822903D01*
X93060743Y-81846147D02*
X93086979Y-81778722D01*
X119586353Y-78040949D02*
X119657189Y-77984018D01*
X100817067Y-46826995D02*
X100542642Y-46814140D01*
X111068669Y-46602157D02*
X110885281Y-46624982D01*
X115704256Y-79755177D02*
X115768271Y-79680931D01*
X128162018Y-70558321D02*
X128626390Y-70971793D01*
X75134936Y-52887134D02*
X74979358Y-52936195D01*
X79272044Y-73839596D02*
X79338945Y-73920401D01*
X112641762Y-43303829D02*
X112469131Y-43677685D01*
X102927467Y-83060851D02*
X103439851Y-83057440D01*
X79140866Y-72974086D02*
X79105447Y-73065124D01*
X82255044Y-75604458D02*
X82263439Y-75763708D01*
X115823366Y-79605635D02*
X115869803Y-79529814D01*
X130167475Y-71684611D02*
X130226768Y-71656539D01*
X89273357Y-34543270D02*
X89199635Y-34518608D01*
X108515672Y-47183798D02*
X108137091Y-47302645D01*
X111853379Y-45409753D02*
X111774672Y-45702279D01*
X81814546Y-39663653D02*
X81662904Y-39608296D01*
X92477786Y-35560158D02*
X92252684Y-35420322D01*
X145769061Y-56493467D02*
X145508541Y-56573223D01*
X80979726Y-74306850D02*
X81152882Y-74321804D01*
X115080370Y-40353122D02*
X114941584Y-40450718D01*
X83340415Y-76812078D02*
X83431453Y-76799223D01*
X133854116Y-69327876D02*
X133873006Y-69271207D01*
X115232013Y-83742974D02*
X115285271Y-83740088D01*
X94607338Y-39470560D02*
X94572445Y-39228406D01*
X82303055Y-63101666D02*
X82312762Y-63305516D01*
X157514786Y-64073954D02*
X157819908Y-63865644D01*
X87460470Y-34922897D02*
X87326406Y-35011311D01*
X79848967Y-72339187D02*
X79718838Y-72415795D01*
X142294142Y-68057553D02*
X142628648Y-68065161D01*
X122184475Y-74508076D02*
X122188935Y-74462951D01*
X122171094Y-74316557D02*
X122134889Y-74211353D01*
X73463197Y-53856274D02*
X73365862Y-53960167D01*
X122188935Y-74462951D02*
X122188148Y-74415727D01*
X115983666Y-39822903D02*
X115825465Y-39903446D01*
X160617683Y-53540136D02*
X160446102Y-53443065D01*
X121689932Y-45803811D02*
X121771000Y-45615440D01*
X145987342Y-56422106D02*
X145769061Y-56493467D01*
X129208035Y-71494666D02*
X129303008Y-71565240D01*
X94108860Y-37549596D02*
X94027792Y-37369620D01*
X99831654Y-46803383D02*
X99389320Y-46813615D01*
X78032145Y-49189765D02*
X78164110Y-49442150D01*
X122375471Y-42264903D02*
X122341889Y-42054757D01*
X116811927Y-39477906D02*
X116641920Y-39538247D01*
X79410831Y-73990712D02*
X79487177Y-74051054D01*
X105861406Y-83240039D02*
X105874786Y-83282803D01*
X86566882Y-35768205D02*
X86430456Y-35974416D01*
X120191348Y-39478693D02*
X120068040Y-39429370D01*
X161676032Y-59131709D02*
X161755263Y-58898738D01*
X129487708Y-71671494D02*
X129578221Y-71707699D01*
X73914976Y-58992136D02*
X74117253Y-59150337D01*
X161870176Y-54838007D02*
X161800126Y-54710764D01*
X160944318Y-53761039D02*
X160783755Y-53646128D01*
X118732118Y-39170950D02*
X118590183Y-39168851D01*
X83155453Y-40633842D02*
X83008009Y-40482988D01*
X80726552Y-52953248D02*
X80968182Y-53204846D01*
X79554603Y-61088616D02*
X80446617Y-61387700D01*
X115869803Y-79529814D02*
X115908369Y-79453994D01*
X160974751Y-60651270D02*
X161119572Y-60400721D01*
X136279345Y-67577443D02*
X136663435Y-67643032D01*
X73079368Y-58066285D02*
X73221566Y-58268299D01*
X92820162Y-82736318D02*
X92848759Y-82652889D01*
X140144651Y-57196841D02*
X139723043Y-57169031D01*
X82377565Y-63971898D02*
X82413507Y-64208279D01*
X92406950Y-83034615D02*
X92481197Y-83029631D01*
X150346405Y-67276522D02*
X150658085Y-67184435D01*
X122969972Y-47546110D02*
X122783960Y-47647379D01*
X122189459Y-44405458D02*
X122242456Y-44194262D01*
X157387543Y-52973712D02*
X157011848Y-53008867D01*
X131869385Y-53601003D02*
X131469291Y-53284078D01*
X121161282Y-75583732D02*
X121368807Y-75422384D01*
X77015249Y-46398045D02*
X77085036Y-46697129D01*
X156259933Y-53106463D02*
X155887910Y-53163919D01*
X118587822Y-78085550D02*
X118675449Y-78125428D01*
X99266537Y-82912883D02*
X99779183Y-82955909D01*
X87070083Y-35212275D02*
X86947562Y-35325088D01*
X160446102Y-53443065D02*
X160268486Y-53354914D01*
X76917914Y-45881205D02*
X76954120Y-46095025D01*
X87886275Y-34707766D02*
X87740143Y-34771256D01*
X161590503Y-59370190D02*
X161676032Y-59131709D01*
X111615159Y-46404341D02*
X111585250Y-46567264D01*
X82712070Y-40214074D02*
X82563576Y-40096014D01*
X124369122Y-69759975D02*
X124811193Y-69562684D01*
X150658085Y-67184435D02*
X150976324Y-67085790D01*
X83822102Y-41421694D02*
X83652095Y-41208924D01*
X129756624Y-71748364D02*
X129845300Y-71753348D01*
X115323838Y-80112767D02*
X115528739Y-79932792D01*
X110885281Y-46624982D02*
X110697171Y-46652791D01*
X162010799Y-58018274D02*
X162059335Y-57810489D01*
X83008009Y-40482988D02*
X82860039Y-40343153D01*
X86828714Y-35445771D02*
X86713802Y-35574587D01*
X80093222Y-39619053D02*
X79943941Y-39673098D01*
X79317432Y-72723275D02*
X79246858Y-72803818D01*
X94374628Y-47511742D02*
X94355476Y-47378990D01*
X129751639Y-52021888D02*
X129474590Y-51834041D01*
X83351172Y-80385879D02*
X83396822Y-80423658D01*
X93542956Y-36559468D02*
X93430142Y-36414123D01*
X134889639Y-68489127D02*
X134925058Y-68415405D01*
X115116313Y-81801547D02*
X114864713Y-81591663D01*
X109307991Y-46956599D02*
X108907634Y-47067575D01*
X105842779Y-83149527D02*
X105861406Y-83240039D01*
X122329558Y-43767148D02*
X122362353Y-43552017D01*
X80446617Y-61387700D02*
X81242346Y-61660812D01*
X121286689Y-40176819D02*
X121142917Y-40054562D01*
X126668419Y-69283538D02*
X127326673Y-69835008D01*
X128064421Y-50732150D02*
X128025592Y-50586543D01*
X122254786Y-41690870D02*
X122197330Y-41516404D01*
X155831766Y-65072477D02*
X156189096Y-64878334D01*
X82120979Y-74810572D02*
X82151413Y-74860681D01*
X106150261Y-83709393D02*
X106199322Y-83748221D01*
X75542901Y-59891490D02*
X75811817Y-59977542D01*
X128636359Y-51297788D02*
X128398926Y-51159002D01*
X83150206Y-79887667D02*
X83142073Y-79965324D01*
X96548518Y-82536928D02*
X96960419Y-82610387D01*
X156189096Y-64878334D02*
X156536457Y-64681568D01*
X131999514Y-70626533D02*
X132127807Y-70625222D01*
X154103882Y-53536988D02*
X153798499Y-53623827D01*
X85441370Y-40061908D02*
X85430351Y-40364928D01*
X123163329Y-70340566D02*
X123312610Y-70257925D01*
X81721934Y-74476856D02*
X81796444Y-74516734D01*
X157760090Y-52950624D02*
X157387543Y-52973712D01*
X74402697Y-53175200D02*
X74269682Y-53245774D01*
X126921856Y-47744976D02*
X126836590Y-47665482D01*
X115935392Y-83044847D02*
X115954019Y-82945152D01*
X121549308Y-40437863D02*
X121422065Y-40304586D01*
X122362353Y-43552017D02*
X122387539Y-43336361D01*
X83303160Y-40795453D02*
X83155453Y-40633842D01*
X83142073Y-79965324D02*
X83145746Y-80043768D01*
X127726243Y-70177644D02*
X128162018Y-70558321D01*
X106311873Y-47957745D02*
X106003604Y-47847819D01*
X112469131Y-43677685D02*
X112314078Y-44047606D01*
X80561267Y-39507027D02*
X80402016Y-39535099D01*
X122783960Y-47647379D02*
X122611592Y-47748124D01*
X153887700Y-65998590D02*
X154297240Y-65819139D01*
X119784957Y-77847856D02*
X119842938Y-77769674D01*
X93086979Y-81778722D02*
X93115314Y-81722840D01*
X134987499Y-68185320D02*
X134994845Y-68121567D01*
X80591700Y-53104627D02*
X80174028Y-53003882D01*
X78212122Y-52680923D02*
X77946092Y-52658361D01*
X115285271Y-83740088D02*
X115336431Y-83731168D01*
X82042797Y-74711401D02*
X82084774Y-74760987D01*
X76897975Y-43802304D02*
X76873051Y-44002481D01*
X134925058Y-68415405D02*
X134953130Y-68340109D01*
X92609752Y-82990277D02*
X92669307Y-82955909D01*
X120991012Y-39937289D02*
X120830975Y-39825788D01*
X126188306Y-47226824D02*
X126040336Y-47159924D01*
X146289315Y-56315066D02*
X145987342Y-56422106D01*
X83959053Y-76633152D02*
X84149262Y-76561005D01*
X79721724Y-52906811D02*
X79239774Y-52817873D01*
X133441166Y-70481451D02*
X133498885Y-70431341D01*
X117687150Y-39250706D02*
X117509272Y-39285337D01*
X85457636Y-39759150D02*
X85441370Y-40061908D01*
X134333705Y-55700630D02*
X134144283Y-55576274D01*
X123590708Y-70119663D02*
X123952499Y-69949657D01*
X79210390Y-73747247D02*
X79272044Y-73839596D01*
X118675449Y-78125428D02*
X118765438Y-78158747D01*
X147540496Y-55836530D02*
X146752900Y-56141649D01*
X79315333Y-51259746D02*
X79612321Y-51653016D01*
X138370855Y-67881250D02*
X138831816Y-67929786D01*
X79487177Y-74051054D02*
X79567458Y-74102213D01*
X149450456Y-67516577D02*
X149742984Y-67442330D01*
X82253732Y-75452554D02*
X82255044Y-75604458D01*
X94710445Y-41697429D02*
X94714642Y-41389424D01*
X134441271Y-68951134D02*
X134526537Y-68891579D01*
X122130691Y-44614817D02*
X122189459Y-44405458D01*
X125886070Y-47101681D02*
X125726295Y-47052621D01*
X159428156Y-62555967D02*
X159659031Y-62327718D01*
X73020863Y-54417976D02*
X72945566Y-54542857D01*
X91226081Y-82788526D02*
X91803529Y-82929673D01*
X128109809Y-50860704D02*
X128064421Y-50732150D01*
X117533671Y-77637185D02*
X117671146Y-77657124D01*
X83228388Y-70667198D02*
X82947404Y-70832220D01*
X89022544Y-34498932D02*
X89022544Y-34498932D01*
X74540172Y-53109087D02*
X74402697Y-53175200D01*
X79187828Y-72886984D02*
X79140866Y-72974086D01*
X126040336Y-47159924D02*
X125886070Y-47101681D01*
X91869118Y-82942791D02*
X91899551Y-82951711D01*
X114156349Y-81066952D02*
X114322421Y-80925018D01*
X100566254Y-83005494D02*
X100959789Y-83023596D01*
X114322421Y-80925018D02*
X114500561Y-80778362D01*
X161755263Y-58898738D02*
X161828461Y-58671014D01*
X137486449Y-67768962D02*
X137921700Y-67827205D01*
X117209398Y-77633512D02*
X117383341Y-77630101D01*
X82214378Y-75013110D02*
X82237203Y-75117789D01*
X72945566Y-54542857D02*
X72874992Y-54671936D01*
X118957745Y-78201511D02*
X119062426Y-78207282D01*
X79127485Y-73570682D02*
X79165002Y-73658833D01*
X106105136Y-83667678D02*
X106150261Y-83709393D01*
X83184312Y-80163139D02*
X83222354Y-80234238D01*
X116172825Y-78037014D02*
X116217426Y-77970901D01*
X134604720Y-68829926D02*
X134675818Y-68765911D01*
X76840519Y-44409393D02*
X76833173Y-44615605D01*
X148075705Y-67808315D02*
X148609076Y-67706522D01*
X110516932Y-83813023D02*
X112319850Y-83785738D01*
X115669100Y-82300021D02*
X115541594Y-82177764D01*
X124545426Y-46999625D02*
X124422380Y-47020613D01*
X75282381Y-59794418D02*
X75542901Y-59891490D01*
X113041594Y-42558741D02*
X112934552Y-42743439D01*
X127336380Y-48257880D02*
X127278137Y-48168941D01*
X157944527Y-52944590D02*
X157760090Y-52950624D01*
X73781961Y-53569258D02*
X73671246Y-53660819D01*
X121771000Y-45615440D02*
X121849969Y-45422871D01*
X147069828Y-67958645D02*
X147563321Y-67891744D01*
X115825465Y-39903446D02*
X115670149Y-39987399D01*
X96136618Y-47155726D02*
X95801588Y-47213707D01*
X122602934Y-70677168D02*
X122993321Y-70439474D01*
X133780656Y-69680743D02*
X133804793Y-69544319D01*
X83643175Y-80564018D02*
X83722931Y-80594713D01*
X153467929Y-66175155D02*
X153887700Y-65998590D01*
X135915455Y-67511854D02*
X136279345Y-67577443D01*
X120431667Y-39590718D02*
X120312557Y-39532475D01*
X92170828Y-83005232D02*
X92288889Y-83025958D01*
X93083306Y-36041317D02*
X92892835Y-35870786D01*
X81567144Y-74412054D02*
X81645326Y-74441963D01*
X77374940Y-42132939D02*
X77300431Y-42304519D01*
X134953130Y-68340109D02*
X134973856Y-68263501D01*
X131576595Y-70677955D02*
X131673929Y-70658541D01*
X115680906Y-83506067D02*
X115748594Y-83422114D01*
X116513102Y-77761804D02*
X116587349Y-77736617D01*
M02*
