%TF.GenerationSoftware,KiCad,Pcbnew,7.0.1*%
%TF.CreationDate,2023-04-19T20:31:54+02:00*%
%TF.ProjectId,axolotl,61786f6c-6f74-46c2-9e6b-696361645f70,rev?*%
%TF.SameCoordinates,Original*%
%TF.FileFunction,Copper,L2,Bot*%
%TF.FilePolarity,Positive*%
%FSLAX46Y46*%
G04 Gerber Fmt 4.6, Leading zero omitted, Abs format (unit mm)*
G04 Created by KiCad (PCBNEW 7.0.1) date 2023-04-19 20:31:54*
%MOMM*%
%LPD*%
G01*
G04 APERTURE LIST*
G04 Aperture macros list*
%AMRoundRect*
0 Rectangle with rounded corners*
0 $1 Rounding radius*
0 $2 $3 $4 $5 $6 $7 $8 $9 X,Y pos of 4 corners*
0 Add a 4 corners polygon primitive as box body*
4,1,4,$2,$3,$4,$5,$6,$7,$8,$9,$2,$3,0*
0 Add four circle primitives for the rounded corners*
1,1,$1+$1,$2,$3*
1,1,$1+$1,$4,$5*
1,1,$1+$1,$6,$7*
1,1,$1+$1,$8,$9*
0 Add four rect primitives between the rounded corners*
20,1,$1+$1,$2,$3,$4,$5,0*
20,1,$1+$1,$4,$5,$6,$7,0*
20,1,$1+$1,$6,$7,$8,$9,0*
20,1,$1+$1,$8,$9,$2,$3,0*%
%AMRotRect*
0 Rectangle, with rotation*
0 The origin of the aperture is its center*
0 $1 length*
0 $2 width*
0 $3 Rotation angle, in degrees counterclockwise*
0 Add horizontal line*
21,1,$1,$2,0,0,$3*%
G04 Aperture macros list end*
%TA.AperFunction,SMDPad,CuDef*%
%ADD10R,5.000000X3.600000*%
%TD*%
%TA.AperFunction,SMDPad,CuDef*%
%ADD11RoundRect,0.500000X1.500000X0.500000X-1.500000X0.500000X-1.500000X-0.500000X1.500000X-0.500000X0*%
%TD*%
%TA.AperFunction,WasherPad*%
%ADD12C,5.500000*%
%TD*%
%TA.AperFunction,SMDPad,CuDef*%
%ADD13RotRect,1.524000X5.000000X80.000000*%
%TD*%
%TA.AperFunction,SMDPad,CuDef*%
%ADD14RotRect,1.524000X5.000000X20.000000*%
%TD*%
%TA.AperFunction,SMDPad,CuDef*%
%ADD15RotRect,1.524000X5.000000X300.000000*%
%TD*%
%TA.AperFunction,SMDPad,CuDef*%
%ADD16R,5.000000X1.524000*%
%TD*%
%TA.AperFunction,Conductor*%
%ADD17C,1.000000*%
%TD*%
G04 APERTURE END LIST*
D10*
%TO.P,BT1,2,-*%
%TO.N,GND*%
X115750000Y-72600000D03*
%TO.P,BT1,1,+*%
%TO.N,+3V0*%
X86450000Y-72600000D03*
%TD*%
D11*
%TO.P,SW1,2*%
%TO.N,+3V0*%
X130500000Y-62600000D03*
%TO.P,SW1,1*%
%TO.N,VCC*%
X152500000Y-62600000D03*
%TD*%
D12*
%TO.P,REF\u002A\u002A,*%
%TO.N,*%
X109225000Y-50625000D03*
%TD*%
D13*
%TO.P,D1,1,K*%
%TO.N,GND*%
X97869528Y-52050706D03*
%TO.P,D1,2,A*%
%TO.N,VCC*%
X98310594Y-49549294D03*
%TD*%
D14*
%TO.P,D2,1,K*%
%TO.N,GND*%
X103406591Y-55470993D03*
%TO.P,D2,2,A*%
%TO.N,VCC*%
X105793410Y-54602262D03*
%TD*%
D15*
%TO.P,D3,1,K*%
%TO.N,GND*%
X98330000Y-56300296D03*
%TO.P,D3,2,A*%
%TO.N,VCC*%
X99600000Y-58500000D03*
%TD*%
D16*
%TO.P,D4,1,K*%
%TO.N,GND*%
X128400000Y-58140000D03*
%TO.P,D4,2,A*%
%TO.N,VCC*%
X128400000Y-55600000D03*
%TD*%
D17*
%TO.N,VCC*%
X99600000Y-58500000D02*
X99600000Y-60450000D01*
X99600000Y-60450000D02*
X106425000Y-67275000D01*
X106425000Y-67275000D02*
X123002944Y-67275000D01*
X124775000Y-57103000D02*
X126278000Y-55600000D01*
X123002944Y-67275000D02*
X124775000Y-65502944D01*
X124775000Y-65502944D02*
X124775000Y-57103000D01*
X126278000Y-55600000D02*
X128400000Y-55600000D01*
%TO.N,+3V0*%
X86450000Y-72600000D02*
X90550000Y-68500000D01*
X90550000Y-68500000D02*
X123475000Y-68500000D01*
X129375000Y-62600000D02*
X130500000Y-62600000D01*
X123475000Y-68500000D02*
X129375000Y-62600000D01*
%TO.N,VCC*%
X152500000Y-62600000D02*
X138725000Y-62600000D01*
X138725000Y-62600000D02*
X131725000Y-55600000D01*
X131725000Y-55600000D02*
X128400000Y-55600000D01*
X105793410Y-54602262D02*
X105793410Y-53968410D01*
X105793410Y-53968410D02*
X101374294Y-49549294D01*
X101374294Y-49549294D02*
X98310594Y-49549294D01*
X99600000Y-58500000D02*
X100157823Y-59057823D01*
X100157823Y-59057823D02*
X104469418Y-59057823D01*
X104469418Y-59057823D02*
X105793410Y-57733831D01*
X105793410Y-57733831D02*
X105793410Y-54602262D01*
%TD*%
%TA.AperFunction,Conductor*%
%TO.N,GND*%
G36*
X89025842Y-34599749D02*
G01*
X89097081Y-34603551D01*
X89111894Y-34605240D01*
X89165747Y-34614694D01*
X89183640Y-34619231D01*
X89223343Y-34632513D01*
X89242645Y-34640849D01*
X89246612Y-34642979D01*
X89261492Y-34653531D01*
X89266037Y-34655598D01*
X89266038Y-34655599D01*
X89289033Y-34666058D01*
X89296335Y-34669674D01*
X89303857Y-34673713D01*
X89303859Y-34673713D01*
X89306863Y-34675326D01*
X89310250Y-34675709D01*
X89310251Y-34675710D01*
X89315352Y-34676287D01*
X89318722Y-34676669D01*
X89326795Y-34677852D01*
X89351658Y-34682339D01*
X89351658Y-34682338D01*
X89356586Y-34683228D01*
X89374817Y-34683019D01*
X89669968Y-34716431D01*
X89674058Y-34716963D01*
X90001553Y-34765178D01*
X90005729Y-34765868D01*
X90319856Y-34823422D01*
X90324506Y-34824368D01*
X90625763Y-34891711D01*
X90630542Y-34892880D01*
X90918767Y-34969451D01*
X90923974Y-34970957D01*
X91199331Y-35057163D01*
X91204612Y-35058949D01*
X91467337Y-35154531D01*
X91472926Y-35156720D01*
X91723256Y-35261844D01*
X91728857Y-35264362D01*
X91857034Y-35325881D01*
X91967122Y-35378718D01*
X91973031Y-35381751D01*
X92198997Y-35505504D01*
X92204861Y-35508928D01*
X92221982Y-35519563D01*
X92419298Y-35642138D01*
X92425216Y-35646054D01*
X92627841Y-35788613D01*
X92633691Y-35792993D01*
X92825182Y-35945387D01*
X92830651Y-35950005D01*
X93011091Y-36111555D01*
X93016627Y-36116827D01*
X93065199Y-36166040D01*
X93186048Y-36288483D01*
X93191034Y-36293843D01*
X93350149Y-36475332D01*
X93354864Y-36481045D01*
X93455418Y-36610593D01*
X93460824Y-36617557D01*
X93463764Y-36621505D01*
X93495971Y-36666596D01*
X93566085Y-36764756D01*
X93568932Y-36768920D01*
X93606754Y-36826718D01*
X93666257Y-36917649D01*
X93668918Y-36921901D01*
X93761214Y-37076228D01*
X93763548Y-37080304D01*
X93851179Y-37240291D01*
X93853467Y-37244673D01*
X93935882Y-37410502D01*
X93937900Y-37414762D01*
X94015592Y-37587241D01*
X94017326Y-37591281D01*
X94090358Y-37770085D01*
X94091991Y-37774303D01*
X94159872Y-37959523D01*
X94161220Y-37963398D01*
X94224477Y-38155439D01*
X94225697Y-38159361D01*
X94264822Y-38293066D01*
X94284032Y-38358715D01*
X94285027Y-38362316D01*
X94338710Y-38568647D01*
X94339580Y-38572208D01*
X94388492Y-38785940D01*
X94389241Y-38789446D01*
X94433143Y-39010491D01*
X94433742Y-39013729D01*
X94472887Y-39242456D01*
X94473396Y-39245689D01*
X94507495Y-39482335D01*
X94507868Y-39485149D01*
X94537425Y-39729823D01*
X94537732Y-39732628D01*
X94562440Y-39985349D01*
X94562671Y-39988017D01*
X94582513Y-40249076D01*
X94582679Y-40251595D01*
X94597649Y-40521041D01*
X94597758Y-40523424D01*
X94607839Y-40801306D01*
X94607899Y-40803450D01*
X94613338Y-41090166D01*
X94613360Y-41092192D01*
X94614137Y-41387914D01*
X94614125Y-41389930D01*
X94609976Y-41694351D01*
X94609936Y-41696255D01*
X94600846Y-42009705D01*
X94600790Y-42011293D01*
X94587272Y-42334458D01*
X94587189Y-42336160D01*
X94568716Y-42668378D01*
X94568623Y-42669880D01*
X94545500Y-43011017D01*
X94545344Y-43013063D01*
X94485086Y-43726762D01*
X94484853Y-43729235D01*
X94405927Y-44483468D01*
X94405831Y-44484351D01*
X94334049Y-45125899D01*
X94332940Y-45130105D01*
X94330367Y-45158555D01*
X94330103Y-45161160D01*
X94326928Y-45189555D01*
X94327172Y-45193893D01*
X94281152Y-45702917D01*
X94279985Y-45707795D01*
X94278196Y-45735176D01*
X94277957Y-45738245D01*
X94275486Y-45765581D01*
X94275883Y-45770575D01*
X94248639Y-46187626D01*
X94247510Y-46192971D01*
X94246505Y-46219589D01*
X94246330Y-46222984D01*
X94244592Y-46249612D01*
X94245168Y-46255050D01*
X94232623Y-46587804D01*
X94231457Y-46594311D01*
X94231376Y-46618954D01*
X94231289Y-46623210D01*
X94230359Y-46647875D01*
X94231259Y-46654419D01*
X94230416Y-46910761D01*
X94229386Y-46918024D01*
X94230221Y-46941402D01*
X94230299Y-46946225D01*
X94230223Y-46969575D01*
X94231486Y-46976798D01*
X94238224Y-47165261D01*
X94237385Y-47173880D01*
X94239134Y-47194708D01*
X94239489Y-47200640D01*
X94240238Y-47221542D01*
X94242099Y-47229997D01*
X94252921Y-47358767D01*
X94252481Y-47368913D01*
X94255053Y-47386748D01*
X94255887Y-47394056D01*
X94257397Y-47412013D01*
X94260110Y-47421793D01*
X94268223Y-47478029D01*
X94268928Y-47501340D01*
X94274537Y-47525157D01*
X94276567Y-47535868D01*
X94278202Y-47547198D01*
X94282648Y-47559593D01*
X94284290Y-47566566D01*
X94290511Y-47576818D01*
X94298882Y-47585423D01*
X94298883Y-47585424D01*
X94305215Y-47588761D01*
X94328339Y-47604517D01*
X94330415Y-47606305D01*
X94333768Y-47609194D01*
X94333773Y-47609194D01*
X94344835Y-47613833D01*
X94356656Y-47615872D01*
X94356659Y-47615874D01*
X94363743Y-47614851D01*
X94376908Y-47614453D01*
X94382170Y-47613213D01*
X94382174Y-47613214D01*
X94388049Y-47611829D01*
X94398754Y-47609800D01*
X94421298Y-47606549D01*
X94421298Y-47606548D01*
X94422987Y-47606305D01*
X94444929Y-47598433D01*
X94743999Y-47527999D01*
X94746552Y-47527427D01*
X95223911Y-47426082D01*
X95226278Y-47425606D01*
X95818577Y-47312776D01*
X95820600Y-47312409D01*
X96152471Y-47254976D01*
X96153920Y-47254734D01*
X96507726Y-47197980D01*
X96509163Y-47197760D01*
X96882131Y-47142804D01*
X96883495Y-47142612D01*
X97272836Y-47090526D01*
X97274467Y-47090321D01*
X97677902Y-47042428D01*
X97679611Y-47042238D01*
X98094699Y-46999559D01*
X98096584Y-46999382D01*
X98520544Y-46962990D01*
X98522894Y-46962811D01*
X98953805Y-46934240D01*
X98956128Y-46934109D01*
X99391397Y-46914124D01*
X99394209Y-46914028D01*
X99831388Y-46903915D01*
X99834255Y-46903883D01*
X99988044Y-46903883D01*
X99989217Y-46903889D01*
X100263200Y-46906480D01*
X100265633Y-46906527D01*
X100537749Y-46914539D01*
X100539884Y-46914620D01*
X100810548Y-46927299D01*
X100812571Y-46927410D01*
X101081172Y-46944490D01*
X101083074Y-46944627D01*
X101349273Y-46966119D01*
X101351140Y-46966285D01*
X101598824Y-46990373D01*
X101614093Y-46991858D01*
X101616703Y-46992140D01*
X102135221Y-47053676D01*
X102138599Y-47054124D01*
X102640926Y-47127774D01*
X102643935Y-47128255D01*
X103127429Y-47211821D01*
X103130184Y-47212330D01*
X103592340Y-47303203D01*
X103594870Y-47303728D01*
X104031975Y-47399564D01*
X104034319Y-47400103D01*
X104443413Y-47498285D01*
X104445529Y-47498813D01*
X104789731Y-47588173D01*
X104823612Y-47596969D01*
X104825717Y-47597535D01*
X105169716Y-47693335D01*
X105171594Y-47693874D01*
X105478101Y-47784710D01*
X105479763Y-47785216D01*
X105746122Y-47868729D01*
X105747766Y-47869257D01*
X105969690Y-47942458D01*
X105972332Y-47943365D01*
X106193159Y-48022111D01*
X106254222Y-48043886D01*
X106279230Y-48056121D01*
X106285376Y-48060040D01*
X106308007Y-48058664D01*
X106319007Y-48058487D01*
X106341663Y-48059130D01*
X106347668Y-48055021D01*
X106372275Y-48041977D01*
X106668096Y-47925582D01*
X106670235Y-47924764D01*
X107169486Y-47739241D01*
X107171057Y-47738669D01*
X107474428Y-47630955D01*
X107475488Y-47630586D01*
X107808744Y-47516461D01*
X107809963Y-47516052D01*
X108167141Y-47398557D01*
X108168643Y-47398075D01*
X108544121Y-47280202D01*
X108545893Y-47279661D01*
X108934453Y-47164447D01*
X108936321Y-47163911D01*
X109332608Y-47054064D01*
X109335029Y-47053419D01*
X109733354Y-46951830D01*
X109736347Y-46951107D01*
X110130946Y-46861181D01*
X110134528Y-46860420D01*
X110521489Y-46784267D01*
X110524787Y-46783665D01*
X110711736Y-46752251D01*
X110713992Y-46751895D01*
X110897506Y-46724766D01*
X110900194Y-46724400D01*
X111078309Y-46702232D01*
X111081422Y-46701886D01*
X111253590Y-46684923D01*
X111257253Y-46684616D01*
X111422352Y-46673308D01*
X111426691Y-46673087D01*
X111564408Y-46668511D01*
X111590907Y-46670481D01*
X111599221Y-46672008D01*
X111618607Y-46662719D01*
X111629962Y-46657958D01*
X111650166Y-46650644D01*
X111650167Y-46650642D01*
X111650411Y-46650554D01*
X111652987Y-46648961D01*
X111656036Y-46646334D01*
X111657996Y-46644018D01*
X111658118Y-46643791D01*
X111658120Y-46643791D01*
X111668348Y-46624873D01*
X111674737Y-46614347D01*
X111679781Y-46606897D01*
X111686778Y-46596563D01*
X111686497Y-46588116D01*
X111688465Y-46561615D01*
X111713604Y-46424676D01*
X111714056Y-46422349D01*
X111754416Y-46225433D01*
X111754842Y-46223455D01*
X111806620Y-45992380D01*
X111807218Y-45989842D01*
X111871700Y-45728558D01*
X111872308Y-45726203D01*
X111949777Y-45438280D01*
X111950500Y-45435708D01*
X112041680Y-45125235D01*
X112042519Y-45122498D01*
X112147849Y-44793086D01*
X112148866Y-44790046D01*
X112269335Y-44445666D01*
X112270571Y-44442291D01*
X112406698Y-44086765D01*
X112408132Y-44083192D01*
X112560272Y-43720220D01*
X112562021Y-43716247D01*
X112731716Y-43348747D01*
X112733170Y-43345710D01*
X112823687Y-43163143D01*
X112824792Y-43160973D01*
X112920181Y-42978144D01*
X112921410Y-42975848D01*
X113021438Y-42794003D01*
X113022737Y-42791702D01*
X113127249Y-42611371D01*
X113128697Y-42608940D01*
X113237958Y-42430336D01*
X113239522Y-42427850D01*
X113353148Y-42251921D01*
X113354956Y-42249203D01*
X113473512Y-42076086D01*
X113475497Y-42073273D01*
X113477835Y-42070056D01*
X113598699Y-41903744D01*
X113600861Y-41900859D01*
X113729001Y-41735091D01*
X113731343Y-41732157D01*
X113864938Y-41569754D01*
X113866861Y-41567472D01*
X113956669Y-41463576D01*
X113958946Y-41461017D01*
X114052897Y-41358343D01*
X114056087Y-41354988D01*
X114261928Y-41146611D01*
X114266384Y-41142321D01*
X114490314Y-40937390D01*
X114494668Y-40933590D01*
X114736154Y-40732480D01*
X114740595Y-40728952D01*
X114999162Y-40533179D01*
X115002572Y-40530690D01*
X115136192Y-40436727D01*
X115138346Y-40435247D01*
X115276620Y-40342557D01*
X115278995Y-40341007D01*
X115420357Y-40251003D01*
X115422907Y-40249422D01*
X115567842Y-40162053D01*
X115570059Y-40160750D01*
X115717722Y-40075971D01*
X115720428Y-40074463D01*
X115870858Y-39993150D01*
X115873448Y-39991790D01*
X116026923Y-39913654D01*
X116029428Y-39912417D01*
X116185589Y-39837642D01*
X116188429Y-39836326D01*
X116346792Y-39765407D01*
X116349476Y-39764245D01*
X116509777Y-39697177D01*
X116512836Y-39695946D01*
X116675281Y-39633098D01*
X116678436Y-39631927D01*
X116842601Y-39573660D01*
X116845844Y-39572560D01*
X117011783Y-39518852D01*
X117014976Y-39517866D01*
X117182523Y-39468767D01*
X117186048Y-39467792D01*
X117354803Y-39423837D01*
X117358369Y-39422964D01*
X117528102Y-39384124D01*
X117532035Y-39383292D01*
X117702843Y-39350036D01*
X117706690Y-39349352D01*
X117878679Y-39321654D01*
X117882670Y-39321080D01*
X118055075Y-39299215D01*
X118059375Y-39298746D01*
X118232358Y-39282930D01*
X118236638Y-39282613D01*
X118409816Y-39272839D01*
X118414460Y-39272665D01*
X118588360Y-39269402D01*
X118592417Y-39269395D01*
X118727075Y-39271385D01*
X118730934Y-39271502D01*
X118864952Y-39277742D01*
X118868703Y-39277975D01*
X119001109Y-39288199D01*
X119004883Y-39288549D01*
X119135561Y-39302736D01*
X119139577Y-39303240D01*
X119268772Y-39321626D01*
X119272626Y-39322237D01*
X119400203Y-39344575D01*
X119404334Y-39345372D01*
X119530012Y-39371896D01*
X119533934Y-39372792D01*
X119657903Y-39403289D01*
X119661855Y-39404333D01*
X119783759Y-39438702D01*
X119787945Y-39439963D01*
X119907802Y-39478437D01*
X119912022Y-39479875D01*
X120030334Y-39522605D01*
X120034243Y-39524093D01*
X120150180Y-39570467D01*
X120154347Y-39572224D01*
X120267992Y-39622650D01*
X120272155Y-39624591D01*
X120290448Y-39633536D01*
X120383861Y-39679213D01*
X120387848Y-39681253D01*
X120478662Y-39729823D01*
X120497416Y-39739853D01*
X120501350Y-39742050D01*
X120608865Y-39804684D01*
X120612527Y-39806904D01*
X120715524Y-39871819D01*
X120772999Y-39908043D01*
X120777768Y-39911205D01*
X120929046Y-40016603D01*
X120933937Y-40020191D01*
X121077303Y-40130872D01*
X121081855Y-40134561D01*
X121138034Y-40182333D01*
X121217172Y-40249629D01*
X121221930Y-40253893D01*
X121348832Y-40373661D01*
X121353410Y-40378213D01*
X121472406Y-40502852D01*
X121476916Y-40507839D01*
X121587528Y-40637048D01*
X121591835Y-40642371D01*
X121694302Y-40776385D01*
X121698215Y-40781798D01*
X121792654Y-40920162D01*
X121796549Y-40926241D01*
X121882599Y-41069574D01*
X121885976Y-41075571D01*
X121964089Y-41223740D01*
X121967149Y-41229959D01*
X122037160Y-41382912D01*
X122039931Y-41389457D01*
X122101506Y-41547303D01*
X122103762Y-41553579D01*
X122117731Y-41595996D01*
X122150749Y-41696255D01*
X122157332Y-41716242D01*
X122159342Y-41722981D01*
X122204189Y-41890601D01*
X122205707Y-41896940D01*
X122242398Y-42070056D01*
X122243539Y-42076198D01*
X122275298Y-42274934D01*
X122276156Y-42281378D01*
X122297494Y-42481861D01*
X122298001Y-42488140D01*
X122309203Y-42690772D01*
X122309387Y-42696557D01*
X122311137Y-42901232D01*
X122311065Y-42906670D01*
X122303792Y-43112545D01*
X122303506Y-43117643D01*
X122287675Y-43324207D01*
X122287201Y-43329115D01*
X122262988Y-43536443D01*
X122262409Y-43540746D01*
X122230779Y-43748234D01*
X122230071Y-43752399D01*
X122191293Y-43959209D01*
X122190510Y-43963051D01*
X122145008Y-44169465D01*
X122144186Y-44172951D01*
X122092741Y-44377964D01*
X122091856Y-44381296D01*
X122034740Y-44584768D01*
X122033806Y-44587933D01*
X121971423Y-44789402D01*
X121970562Y-44792074D01*
X121904034Y-44990887D01*
X121903017Y-44993804D01*
X121832065Y-45189496D01*
X121831218Y-45191764D01*
X121757053Y-45384490D01*
X121756054Y-45387004D01*
X121678747Y-45575519D01*
X121677919Y-45577489D01*
X121598813Y-45761301D01*
X121597452Y-45764350D01*
X121432867Y-46120087D01*
X121431134Y-46123681D01*
X121263927Y-46456547D01*
X121262258Y-46459751D01*
X121096245Y-46767545D01*
X121094678Y-46770362D01*
X120934609Y-47049513D01*
X120933045Y-47052164D01*
X120783124Y-47299199D01*
X120781617Y-47301619D01*
X120646038Y-47513860D01*
X120644572Y-47516101D01*
X120551791Y-47654658D01*
X120539652Y-47666750D01*
X120539736Y-47666817D01*
X120527533Y-47682204D01*
X120525330Y-47688122D01*
X120519656Y-47699207D01*
X120516091Y-47711798D01*
X120512996Y-47721262D01*
X120504379Y-47744413D01*
X120504367Y-47750895D01*
X120512891Y-47774072D01*
X120515952Y-47783556D01*
X120522588Y-47807347D01*
X120526393Y-47812604D01*
X120527280Y-47813198D01*
X120527281Y-47813199D01*
X120535829Y-47818923D01*
X120546914Y-47826346D01*
X120554970Y-47832223D01*
X120565230Y-47840360D01*
X120576317Y-47846035D01*
X120581546Y-47849537D01*
X120581547Y-47849538D01*
X120600445Y-47854887D01*
X120600415Y-47854990D01*
X120617336Y-47857702D01*
X120720430Y-47896074D01*
X120725262Y-47898712D01*
X120738348Y-47903173D01*
X120738349Y-47903174D01*
X120750500Y-47907317D01*
X120753676Y-47908449D01*
X120765710Y-47912928D01*
X120765711Y-47912928D01*
X120778693Y-47917760D01*
X120784091Y-47918770D01*
X120894884Y-47956547D01*
X120900508Y-47959399D01*
X120912877Y-47963171D01*
X120912880Y-47963174D01*
X120924670Y-47966770D01*
X120928411Y-47967979D01*
X120940062Y-47971952D01*
X120952319Y-47976132D01*
X120958547Y-47977106D01*
X121222358Y-48057590D01*
X121227559Y-48060030D01*
X121240624Y-48063602D01*
X121240628Y-48063605D01*
X121252885Y-48066956D01*
X121256239Y-48067927D01*
X121268389Y-48071634D01*
X121268390Y-48071633D01*
X121281377Y-48075596D01*
X121287086Y-48076308D01*
X121513126Y-48138123D01*
X121514599Y-48138782D01*
X121532000Y-48143402D01*
X121532002Y-48143404D01*
X121546727Y-48147314D01*
X121547507Y-48147525D01*
X121579356Y-48156236D01*
X121580960Y-48156406D01*
X121789642Y-48211830D01*
X121791574Y-48212361D01*
X121815768Y-48219224D01*
X121824116Y-48222830D01*
X121843705Y-48227317D01*
X121849843Y-48228888D01*
X121859633Y-48231666D01*
X121859634Y-48231665D01*
X121869207Y-48234382D01*
X121878257Y-48235230D01*
X121893678Y-48238763D01*
X121896446Y-48239432D01*
X121910135Y-48242918D01*
X121923516Y-48249061D01*
X121963545Y-48261319D01*
X121972108Y-48264288D01*
X121979298Y-48267079D01*
X121979299Y-48267079D01*
X121985881Y-48269634D01*
X121997412Y-48271691D01*
X122002617Y-48273286D01*
X122002617Y-48273285D01*
X122002618Y-48273286D01*
X122015412Y-48273069D01*
X122027790Y-48269801D01*
X122027794Y-48269802D01*
X122032372Y-48266852D01*
X122042912Y-48261740D01*
X122048549Y-48257496D01*
X122048551Y-48257496D01*
X122054721Y-48252850D01*
X122062149Y-48247673D01*
X122069536Y-48242915D01*
X122082699Y-48234437D01*
X122082699Y-48234436D01*
X122085937Y-48232351D01*
X122100292Y-48218545D01*
X122246961Y-48108135D01*
X122250481Y-48105582D01*
X122368211Y-48023423D01*
X122370776Y-48021683D01*
X122507148Y-47931699D01*
X122509748Y-47930031D01*
X122662064Y-47835087D01*
X122665013Y-47833306D01*
X122831774Y-47735839D01*
X122834989Y-47734026D01*
X123014911Y-47636071D01*
X123018315Y-47634287D01*
X123210044Y-47537663D01*
X123213945Y-47535784D01*
X123415508Y-47443087D01*
X123420111Y-47441081D01*
X123630770Y-47354400D01*
X123635754Y-47352474D01*
X123853799Y-47273597D01*
X123859491Y-47271695D01*
X124083243Y-47202946D01*
X124089708Y-47201150D01*
X124319527Y-47144009D01*
X124324890Y-47142802D01*
X124438972Y-47119789D01*
X124442554Y-47119122D01*
X124558355Y-47099370D01*
X124562745Y-47098703D01*
X124678794Y-47083213D01*
X124682918Y-47082734D01*
X124799348Y-47071214D01*
X124804271Y-47070827D01*
X124920419Y-47063995D01*
X124925099Y-47063809D01*
X125040087Y-47061403D01*
X125046892Y-47061448D01*
X125208817Y-47067006D01*
X125217265Y-47067587D01*
X125375031Y-47083892D01*
X125382957Y-47084972D01*
X125537372Y-47111106D01*
X125545484Y-47112760D01*
X125696008Y-47148714D01*
X125703600Y-47150783D01*
X125849815Y-47195679D01*
X125857182Y-47198198D01*
X125998164Y-47251426D01*
X126005420Y-47254432D01*
X126140478Y-47315494D01*
X126147445Y-47318914D01*
X126237307Y-47366596D01*
X126277291Y-47387812D01*
X126283076Y-47391083D01*
X126298078Y-47400105D01*
X126367790Y-47442029D01*
X126386371Y-47453203D01*
X126390837Y-47456020D01*
X126490030Y-47521581D01*
X126493952Y-47524283D01*
X126587708Y-47591562D01*
X126592059Y-47594831D01*
X126680340Y-47664246D01*
X126684280Y-47667478D01*
X126767601Y-47738723D01*
X126771574Y-47742270D01*
X126849794Y-47815195D01*
X126853606Y-47818906D01*
X126927525Y-47894032D01*
X126930748Y-47897435D01*
X127000320Y-47973747D01*
X127003945Y-47977905D01*
X127069043Y-48056022D01*
X127071792Y-48059442D01*
X127133398Y-48138926D01*
X127136476Y-48143072D01*
X127193744Y-48223680D01*
X127196394Y-48227564D01*
X127249096Y-48308041D01*
X127252502Y-48313552D01*
X127351142Y-48482859D01*
X127355160Y-48490332D01*
X127440135Y-48662233D01*
X127443164Y-48668840D01*
X127517197Y-48843715D01*
X127519647Y-48849969D01*
X127583450Y-49026788D01*
X127585327Y-49032408D01*
X127640206Y-49210760D01*
X127641517Y-49215331D01*
X127689027Y-49393812D01*
X127690024Y-49397825D01*
X127731060Y-49575639D01*
X127731711Y-49578628D01*
X127767681Y-49754144D01*
X127768176Y-49756695D01*
X127831119Y-50100279D01*
X127831242Y-50100957D01*
X127886798Y-50414030D01*
X127887058Y-50421032D01*
X127889627Y-50432935D01*
X127889627Y-50432937D01*
X127892114Y-50444463D01*
X127892987Y-50448907D01*
X127897177Y-50472514D01*
X127899588Y-50479097D01*
X127921014Y-50578374D01*
X127921702Y-50587003D01*
X127927100Y-50607244D01*
X127928497Y-50613040D01*
X127932908Y-50633485D01*
X127936229Y-50641478D01*
X127960476Y-50732400D01*
X127962228Y-50744576D01*
X127966712Y-50757277D01*
X127969596Y-50766601D01*
X127973064Y-50779605D01*
X127978491Y-50790638D01*
X128006210Y-50869150D01*
X128008915Y-50881146D01*
X128014371Y-50893422D01*
X128017982Y-50902494D01*
X128022465Y-50915191D01*
X128028747Y-50925770D01*
X128032340Y-50933855D01*
X128035947Y-50945507D01*
X128042446Y-50957516D01*
X128046705Y-50966174D01*
X128052259Y-50978671D01*
X128059295Y-50988647D01*
X128062019Y-50993680D01*
X128066937Y-51005886D01*
X128073253Y-51015442D01*
X128078857Y-51024790D01*
X128084314Y-51034873D01*
X128092761Y-51044961D01*
X128096260Y-51050256D01*
X128103502Y-51063944D01*
X128106859Y-51067901D01*
X128115751Y-51079751D01*
X128118611Y-51084079D01*
X128129720Y-51094850D01*
X128135224Y-51101339D01*
X128144804Y-51114843D01*
X128145856Y-51115778D01*
X128158078Y-51128280D01*
X128158994Y-51129360D01*
X128172283Y-51139248D01*
X128180557Y-51146596D01*
X128193216Y-51159617D01*
X128193543Y-51160007D01*
X128203791Y-51167674D01*
X128204256Y-51167878D01*
X128220309Y-51176342D01*
X128221487Y-51177078D01*
X128230987Y-51184710D01*
X128236779Y-51187733D01*
X128236780Y-51187734D01*
X128242959Y-51190958D01*
X128243168Y-51191068D01*
X128251515Y-51195846D01*
X128263171Y-51203131D01*
X128274552Y-51207449D01*
X128347663Y-51245611D01*
X128352846Y-51248477D01*
X128583057Y-51383042D01*
X128585886Y-51384746D01*
X128943692Y-51606883D01*
X128946170Y-51608463D01*
X129202224Y-51775963D01*
X129238968Y-51800000D01*
X129418015Y-51917125D01*
X129419705Y-51918250D01*
X129681782Y-52095946D01*
X129694089Y-52104290D01*
X129695293Y-52105117D01*
X129968642Y-52295292D01*
X129994065Y-52312979D01*
X129995205Y-52313782D01*
X130316916Y-52543200D01*
X130318054Y-52544023D01*
X130660844Y-52794792D01*
X130662015Y-52795660D01*
X131012333Y-53058774D01*
X131024436Y-53067864D01*
X131025699Y-53068825D01*
X131038141Y-53078423D01*
X131406725Y-53362741D01*
X131407983Y-53363724D01*
X131622366Y-53533543D01*
X131797951Y-53672629D01*
X131805790Y-53678838D01*
X131807057Y-53679855D01*
X132217873Y-54014207D01*
X132222092Y-54017801D01*
X132543490Y-54304305D01*
X132547661Y-54308023D01*
X132549625Y-54309813D01*
X132643012Y-54396740D01*
X132720448Y-54468819D01*
X132722508Y-54470782D01*
X132868428Y-54613016D01*
X132873675Y-54618130D01*
X132876568Y-54621913D01*
X132896982Y-54640897D01*
X132899088Y-54642902D01*
X132919070Y-54662379D01*
X132922986Y-54665077D01*
X133260353Y-54978803D01*
X133263121Y-54982258D01*
X133284380Y-55001187D01*
X133286362Y-55002990D01*
X133307197Y-55022364D01*
X133310890Y-55024789D01*
X133460162Y-55157694D01*
X133463068Y-55161162D01*
X133484572Y-55179469D01*
X133486645Y-55181274D01*
X133507779Y-55200090D01*
X133511613Y-55202489D01*
X133661518Y-55330105D01*
X133665545Y-55334657D01*
X133675843Y-55342884D01*
X133675844Y-55342886D01*
X133685536Y-55350629D01*
X133688517Y-55353088D01*
X133708027Y-55369697D01*
X133713270Y-55372787D01*
X133862385Y-55491920D01*
X133867486Y-55497294D01*
X133886190Y-55511063D01*
X133890081Y-55514047D01*
X133908250Y-55528564D01*
X133914762Y-55532098D01*
X134061025Y-55639778D01*
X134067821Y-55646300D01*
X134075821Y-55651551D01*
X134075822Y-55651552D01*
X134084082Y-55656974D01*
X134089540Y-55660771D01*
X134105231Y-55672323D01*
X134113709Y-55676425D01*
X134206063Y-55737056D01*
X134253528Y-55768217D01*
X134260164Y-55773961D01*
X134277989Y-55784453D01*
X134283120Y-55787644D01*
X134291856Y-55793379D01*
X134291857Y-55793379D01*
X134300448Y-55799019D01*
X134308539Y-55802433D01*
X134348378Y-55825881D01*
X134354870Y-55830987D01*
X134374041Y-55841132D01*
X134378930Y-55843862D01*
X134388271Y-55849360D01*
X134388273Y-55849360D01*
X134397633Y-55854869D01*
X134405370Y-55857712D01*
X134443227Y-55877747D01*
X134451915Y-55883849D01*
X134467474Y-55890861D01*
X134474529Y-55894314D01*
X134489616Y-55902299D01*
X134499766Y-55905416D01*
X134739249Y-56013356D01*
X134825095Y-56052049D01*
X134829708Y-56054985D01*
X134854302Y-56065265D01*
X134857439Y-56066627D01*
X134881787Y-56077602D01*
X134887084Y-56078969D01*
X135211464Y-56214569D01*
X135216301Y-56217461D01*
X135240943Y-56226947D01*
X135244222Y-56228263D01*
X135268582Y-56238446D01*
X135274069Y-56239699D01*
X135594999Y-56363250D01*
X135601415Y-56365720D01*
X135606127Y-56368361D01*
X135619235Y-56373002D01*
X135619238Y-56373005D01*
X135631449Y-56377329D01*
X135634481Y-56378449D01*
X135646537Y-56383091D01*
X135646539Y-56383091D01*
X135659537Y-56388095D01*
X135664831Y-56389150D01*
X135994982Y-56506063D01*
X135999959Y-56508674D01*
X136012970Y-56512869D01*
X136012972Y-56512871D01*
X136023884Y-56516389D01*
X136025096Y-56516780D01*
X136028442Y-56517912D01*
X136053323Y-56526724D01*
X136058858Y-56527668D01*
X136347525Y-56620755D01*
X136391907Y-56635067D01*
X136396865Y-56637493D01*
X136410098Y-56641357D01*
X136410100Y-56641358D01*
X136422379Y-56644943D01*
X136425618Y-56645938D01*
X136437854Y-56649884D01*
X136437854Y-56649883D01*
X136451008Y-56654126D01*
X136456478Y-56654900D01*
X136792356Y-56752985D01*
X136797448Y-56755302D01*
X136810709Y-56758770D01*
X136810711Y-56758772D01*
X136823065Y-56762003D01*
X136826421Y-56762932D01*
X136838653Y-56766505D01*
X136838654Y-56766504D01*
X136851829Y-56770353D01*
X136857382Y-56770981D01*
X137195859Y-56859529D01*
X137200810Y-56861620D01*
X137214384Y-56864781D01*
X137214385Y-56864782D01*
X137226956Y-56867710D01*
X137230177Y-56868507D01*
X137256145Y-56875301D01*
X137261503Y-56875758D01*
X137602695Y-56955242D01*
X137607888Y-56957268D01*
X137621344Y-56960005D01*
X137621346Y-56960007D01*
X137633896Y-56962560D01*
X137637231Y-56963288D01*
X137649682Y-56966189D01*
X137649684Y-56966188D01*
X137663092Y-56969312D01*
X137668650Y-56969631D01*
X138012534Y-57039605D01*
X138017541Y-57041402D01*
X138031339Y-57043827D01*
X138031342Y-57043829D01*
X138044080Y-57046068D01*
X138047260Y-57046671D01*
X138059980Y-57049260D01*
X138059980Y-57049259D01*
X138073714Y-57052055D01*
X138079037Y-57052214D01*
X138425463Y-57113126D01*
X138430708Y-57114849D01*
X138444352Y-57116857D01*
X138444355Y-57116859D01*
X138457094Y-57118734D01*
X138460379Y-57119265D01*
X138473020Y-57121489D01*
X138473021Y-57121488D01*
X138486632Y-57123883D01*
X138492151Y-57123898D01*
X138841193Y-57175313D01*
X138846347Y-57176851D01*
X138860202Y-57178510D01*
X138860203Y-57178511D01*
X138873000Y-57180044D01*
X138876257Y-57180478D01*
X138889062Y-57182365D01*
X138889064Y-57182364D01*
X138902876Y-57184399D01*
X138908255Y-57184267D01*
X139259934Y-57226397D01*
X139265199Y-57227813D01*
X139278996Y-57229082D01*
X139278997Y-57229083D01*
X139291767Y-57230258D01*
X139295129Y-57230614D01*
X139307909Y-57232145D01*
X139307909Y-57232144D01*
X139321702Y-57233797D01*
X139327145Y-57233514D01*
X139681380Y-57266120D01*
X139686425Y-57267334D01*
X139700545Y-57268264D01*
X139700546Y-57268265D01*
X139713498Y-57269119D01*
X139716644Y-57269366D01*
X139729681Y-57270567D01*
X139729683Y-57270566D01*
X139743799Y-57271866D01*
X139748976Y-57271459D01*
X139773511Y-57273077D01*
X140105615Y-57294984D01*
X140110862Y-57296101D01*
X140124830Y-57296644D01*
X140124831Y-57296645D01*
X140137738Y-57297147D01*
X140140999Y-57297318D01*
X140153919Y-57298171D01*
X140153921Y-57298170D01*
X140167860Y-57299090D01*
X140173189Y-57298530D01*
X140532163Y-57312524D01*
X140537284Y-57313473D01*
X140551406Y-57313654D01*
X140551407Y-57313655D01*
X140564392Y-57313822D01*
X140567600Y-57313905D01*
X140580610Y-57314413D01*
X140580611Y-57314412D01*
X140594747Y-57314964D01*
X140599915Y-57314280D01*
X140961118Y-57318943D01*
X140965537Y-57319653D01*
X140980459Y-57319517D01*
X140980460Y-57319518D01*
X140993954Y-57319396D01*
X140996596Y-57319400D01*
X141010094Y-57319576D01*
X141010095Y-57319575D01*
X141025035Y-57319769D01*
X141029445Y-57319078D01*
X141255486Y-57317050D01*
X141259285Y-57317581D01*
X141274847Y-57317153D01*
X141274850Y-57317154D01*
X141288784Y-57316771D01*
X141290900Y-57316732D01*
X141304821Y-57316608D01*
X141304822Y-57316607D01*
X141320444Y-57316468D01*
X141324219Y-57315798D01*
X141544038Y-57309764D01*
X141547812Y-57310221D01*
X141563449Y-57309505D01*
X141563452Y-57309506D01*
X141577391Y-57308867D01*
X141579431Y-57308792D01*
X141593428Y-57308409D01*
X141593430Y-57308408D01*
X141609070Y-57307980D01*
X141612795Y-57307248D01*
X141826795Y-57297458D01*
X141830372Y-57297827D01*
X141846177Y-57296830D01*
X141846181Y-57296831D01*
X141860197Y-57295946D01*
X141862128Y-57295841D01*
X141876238Y-57295197D01*
X141876240Y-57295195D01*
X141892142Y-57294469D01*
X141895663Y-57293710D01*
X142103065Y-57280638D01*
X142106415Y-57280928D01*
X142122488Y-57279655D01*
X142122490Y-57279656D01*
X142136533Y-57278544D01*
X142138452Y-57278407D01*
X142152640Y-57277514D01*
X142152642Y-57277513D01*
X142168737Y-57276499D01*
X142172008Y-57275738D01*
X142373441Y-57259804D01*
X142376960Y-57260052D01*
X142392852Y-57258524D01*
X142392854Y-57258525D01*
X142406869Y-57257177D01*
X142408865Y-57257003D01*
X142422877Y-57255895D01*
X142422879Y-57255894D01*
X142438756Y-57254638D01*
X142442177Y-57253785D01*
X142637155Y-57235048D01*
X142640490Y-57235227D01*
X142656559Y-57233424D01*
X142656562Y-57233425D01*
X142670665Y-57231843D01*
X142672453Y-57231656D01*
X142686637Y-57230294D01*
X142686638Y-57230293D01*
X142702710Y-57228749D01*
X142705931Y-57227888D01*
X142893809Y-57206819D01*
X142897080Y-57206943D01*
X142913150Y-57204886D01*
X142913153Y-57204887D01*
X142927326Y-57203073D01*
X142928966Y-57202876D01*
X142943208Y-57201280D01*
X142943209Y-57201279D01*
X142959345Y-57199471D01*
X142962495Y-57198575D01*
X143144435Y-57175304D01*
X143149044Y-57175390D01*
X143163643Y-57173184D01*
X143163647Y-57173185D01*
X143176976Y-57171171D01*
X143179626Y-57170802D01*
X143192920Y-57169103D01*
X143192921Y-57169102D01*
X143207582Y-57167228D01*
X143211983Y-57165886D01*
X143621768Y-57104010D01*
X143627333Y-57103973D01*
X143640847Y-57101541D01*
X143640849Y-57101542D01*
X143653421Y-57099280D01*
X143656837Y-57098716D01*
X143683077Y-57094754D01*
X143688362Y-57092994D01*
X144067893Y-57024724D01*
X144073226Y-57024543D01*
X144086951Y-57021692D01*
X144086956Y-57021693D01*
X144099636Y-57019059D01*
X144102810Y-57018444D01*
X144115564Y-57016151D01*
X144115565Y-57016150D01*
X144129365Y-57013668D01*
X144134385Y-57011842D01*
X144481194Y-56939822D01*
X144486339Y-56939512D01*
X144500152Y-56936269D01*
X144500155Y-56936270D01*
X144512935Y-56933270D01*
X144515892Y-56932616D01*
X144528713Y-56929955D01*
X144528716Y-56929952D01*
X144542617Y-56927067D01*
X144547406Y-56925182D01*
X144859365Y-56851986D01*
X144864129Y-56851580D01*
X144878240Y-56847914D01*
X144878242Y-56847915D01*
X144891135Y-56844566D01*
X144893922Y-56843877D01*
X144906843Y-56840847D01*
X144906843Y-56840846D01*
X144921055Y-56837513D01*
X144925455Y-56835655D01*
X145201170Y-56764062D01*
X145205691Y-56763573D01*
X145219986Y-56759517D01*
X145219987Y-56759518D01*
X145232960Y-56755838D01*
X145235474Y-56755154D01*
X145248544Y-56751762D01*
X145248547Y-56751760D01*
X145262936Y-56748025D01*
X145267079Y-56746162D01*
X145504007Y-56678971D01*
X145508228Y-56678422D01*
X145522737Y-56673979D01*
X145522741Y-56673980D01*
X145535762Y-56669993D01*
X145538170Y-56669284D01*
X145565881Y-56661425D01*
X145569731Y-56659593D01*
X145766507Y-56599351D01*
X145770387Y-56598769D01*
X145785159Y-56593938D01*
X145785161Y-56593938D01*
X145798367Y-56589619D01*
X145800420Y-56588969D01*
X145813700Y-56584905D01*
X145813702Y-56584902D01*
X145828550Y-56580359D01*
X145832046Y-56578609D01*
X145987446Y-56527805D01*
X145992340Y-56526961D01*
X146005914Y-56522149D01*
X146005917Y-56522149D01*
X146018363Y-56517736D01*
X146021120Y-56516797D01*
X146033701Y-56512685D01*
X146033703Y-56512683D01*
X146047417Y-56508200D01*
X146051809Y-56505880D01*
X146290586Y-56421241D01*
X146292996Y-56420780D01*
X146309022Y-56414892D01*
X146309025Y-56414892D01*
X146322964Y-56409770D01*
X146324010Y-56409393D01*
X146337894Y-56404473D01*
X146337895Y-56404471D01*
X146354056Y-56398745D01*
X146356191Y-56397566D01*
X146402097Y-56380705D01*
X146403775Y-56380368D01*
X146420517Y-56374068D01*
X146420520Y-56374068D01*
X146434705Y-56368730D01*
X146435350Y-56368490D01*
X146449621Y-56363250D01*
X146449622Y-56363248D01*
X146466547Y-56357033D01*
X146468036Y-56356190D01*
X146755953Y-56247875D01*
X146758025Y-56247441D01*
X146774360Y-56241112D01*
X146774363Y-56241112D01*
X146788351Y-56235692D01*
X146789114Y-56235401D01*
X146803185Y-56230108D01*
X146803188Y-56230105D01*
X146819579Y-56223939D01*
X146821406Y-56222886D01*
X147576486Y-55930364D01*
X148687073Y-55505012D01*
X148687568Y-55504825D01*
X149328744Y-55263503D01*
X150009223Y-55011077D01*
X150009439Y-55010997D01*
X150714320Y-54754656D01*
X150715199Y-54754340D01*
X150731598Y-54748520D01*
X151431445Y-54500147D01*
X151432487Y-54499783D01*
X152145232Y-54254444D01*
X152146336Y-54254071D01*
X152842323Y-54023820D01*
X152844015Y-54023275D01*
X153508833Y-53814901D01*
X153510399Y-53814423D01*
X153825977Y-53720505D01*
X153827159Y-53720160D01*
X154129983Y-53634049D01*
X154131446Y-53633644D01*
X154419059Y-53556101D01*
X154421185Y-53555548D01*
X154691773Y-53487837D01*
X154694139Y-53487270D01*
X154945602Y-53429676D01*
X154948866Y-53428976D01*
X155178729Y-53382851D01*
X155182897Y-53382088D01*
X155903241Y-53263248D01*
X155904284Y-53263081D01*
X156273730Y-53206022D01*
X156275359Y-53205782D01*
X156646893Y-53153821D01*
X156649217Y-53153519D01*
X157020946Y-53108995D01*
X157024049Y-53108663D01*
X157393442Y-53074098D01*
X157397235Y-53073803D01*
X157763078Y-53051130D01*
X157766593Y-53050964D01*
X157945527Y-53045110D01*
X157948006Y-53045055D01*
X158125530Y-53043019D01*
X158128881Y-53043026D01*
X158368807Y-53046852D01*
X158373003Y-53046990D01*
X158604384Y-53058660D01*
X158608903Y-53058972D01*
X158831754Y-53078426D01*
X158836604Y-53078947D01*
X159051780Y-53106411D01*
X159056690Y-53107140D01*
X159264338Y-53142292D01*
X159269623Y-53143308D01*
X159469436Y-53186321D01*
X159474915Y-53187632D01*
X159667723Y-53238449D01*
X159673538Y-53240135D01*
X159859193Y-53298960D01*
X159865028Y-53300970D01*
X160028848Y-53362063D01*
X160044425Y-53367872D01*
X160050216Y-53370199D01*
X160223182Y-53444822D01*
X160229152Y-53447589D01*
X160389821Y-53527330D01*
X160395997Y-53530395D01*
X160401927Y-53533542D01*
X160563005Y-53624671D01*
X160568630Y-53628053D01*
X160713557Y-53720549D01*
X160724657Y-53727633D01*
X160730108Y-53731320D01*
X160791020Y-53774913D01*
X160880912Y-53839247D01*
X160886227Y-53843271D01*
X161032165Y-53960070D01*
X161036932Y-53964086D01*
X161177841Y-54088981D01*
X161183139Y-54093964D01*
X161223758Y-54134483D01*
X161282486Y-54193068D01*
X161286311Y-54197057D01*
X161358794Y-54276114D01*
X161380732Y-54300041D01*
X161384465Y-54304305D01*
X161472698Y-54409841D01*
X161476392Y-54414480D01*
X161558443Y-54522748D01*
X161562064Y-54527783D01*
X161638003Y-54639143D01*
X161641204Y-54644084D01*
X161651101Y-54660193D01*
X161711687Y-54758801D01*
X161714662Y-54763912D01*
X161729817Y-54791440D01*
X161779393Y-54881495D01*
X161782275Y-54887061D01*
X161825097Y-54975180D01*
X161840791Y-55007476D01*
X161843385Y-55013176D01*
X161896281Y-55137652D01*
X161898452Y-55143117D01*
X161945828Y-55271151D01*
X161947831Y-55277011D01*
X161989187Y-55408624D01*
X161990771Y-55414100D01*
X162026700Y-55549991D01*
X162028038Y-55555575D01*
X162058141Y-55695321D01*
X162059195Y-55700811D01*
X162083551Y-55845222D01*
X162084301Y-55850313D01*
X162103051Y-55998831D01*
X162103608Y-56004164D01*
X162116236Y-56157186D01*
X162116535Y-56161904D01*
X162123512Y-56319615D01*
X162123629Y-56324142D01*
X162124877Y-56486598D01*
X162124825Y-56491268D01*
X162119815Y-56658343D01*
X162119626Y-56662418D01*
X162108803Y-56834319D01*
X162108487Y-56838308D01*
X162091568Y-57015578D01*
X162091166Y-57019220D01*
X162068376Y-57201029D01*
X162067878Y-57204586D01*
X162038927Y-57391497D01*
X162038367Y-57394813D01*
X162003214Y-57587131D01*
X162002623Y-57590151D01*
X161961501Y-57787328D01*
X161960863Y-57790217D01*
X161913488Y-57993034D01*
X161912841Y-57995670D01*
X161859492Y-58203426D01*
X161858801Y-58206003D01*
X161799151Y-58419147D01*
X161798498Y-58421399D01*
X161732821Y-58640063D01*
X161732113Y-58642339D01*
X161660158Y-58866193D01*
X161659504Y-58868172D01*
X161581487Y-59097573D01*
X161580811Y-59099508D01*
X161496837Y-59333655D01*
X161495767Y-59336526D01*
X161397119Y-59591575D01*
X161395232Y-59596176D01*
X161286493Y-59846938D01*
X161284471Y-59851362D01*
X161164920Y-60099872D01*
X161162787Y-60104098D01*
X161032694Y-60350023D01*
X161030449Y-60354080D01*
X160960800Y-60474576D01*
X160889793Y-60597424D01*
X160887470Y-60601280D01*
X160736183Y-60842366D01*
X160733746Y-60846098D01*
X160571905Y-61084519D01*
X160569385Y-61088094D01*
X160396624Y-61324232D01*
X160394070Y-61327602D01*
X160210573Y-61561258D01*
X160208033Y-61564385D01*
X160014173Y-61795375D01*
X160011509Y-61798447D01*
X159806543Y-62027013D01*
X159804020Y-62029742D01*
X159588585Y-62255960D01*
X159585968Y-62258626D01*
X159359805Y-62482217D01*
X159357252Y-62484671D01*
X159120505Y-62705719D01*
X159117924Y-62708061D01*
X158870414Y-62926466D01*
X158867921Y-62928608D01*
X158609590Y-63144658D01*
X158607068Y-63146712D01*
X158338129Y-63359900D01*
X158335719Y-63361762D01*
X158055898Y-63572595D01*
X158053565Y-63574311D01*
X157763458Y-63782453D01*
X157761088Y-63784112D01*
X157460177Y-63989547D01*
X157457903Y-63991063D01*
X157146332Y-64193856D01*
X157144112Y-64195267D01*
X156822024Y-64395307D01*
X156819860Y-64396621D01*
X156487094Y-64593996D01*
X156484953Y-64595237D01*
X156141323Y-64789890D01*
X156139404Y-64790955D01*
X155785649Y-64983156D01*
X155783562Y-64984264D01*
X155419093Y-65173381D01*
X155417189Y-65174348D01*
X155042283Y-65360759D01*
X155040405Y-65361673D01*
X154655014Y-65545266D01*
X154653236Y-65546096D01*
X154268871Y-65721611D01*
X154257094Y-65726989D01*
X154255353Y-65727767D01*
X153848880Y-65905874D01*
X153847191Y-65906599D01*
X153430534Y-66081855D01*
X153428871Y-66082541D01*
X153001276Y-66255141D01*
X152999846Y-66255708D01*
X152639682Y-66395916D01*
X152638462Y-66396383D01*
X152286213Y-66529255D01*
X152284740Y-66529800D01*
X151940141Y-66654825D01*
X151938902Y-66655268D01*
X151601842Y-66773524D01*
X151600308Y-66774050D01*
X151270565Y-66884917D01*
X151269229Y-66885358D01*
X150946668Y-66989754D01*
X150945199Y-66990219D01*
X150629792Y-67087987D01*
X150628214Y-67088465D01*
X150319305Y-67179733D01*
X150317855Y-67180152D01*
X150015731Y-67265432D01*
X150014048Y-67265894D01*
X149718425Y-67344865D01*
X149716928Y-67345255D01*
X149427080Y-67418821D01*
X149425530Y-67419204D01*
X149143006Y-67487051D01*
X149140501Y-67487625D01*
X148590536Y-67607701D01*
X148587332Y-67608357D01*
X148059862Y-67709024D01*
X148056544Y-67709610D01*
X147550111Y-67792069D01*
X147546841Y-67792557D01*
X147059203Y-67858665D01*
X147056007Y-67859056D01*
X146585964Y-67910389D01*
X146583015Y-67910676D01*
X146128884Y-67949319D01*
X146125970Y-67949532D01*
X145686471Y-67976515D01*
X145683927Y-67976645D01*
X145257498Y-67994044D01*
X145255237Y-67994116D01*
X144840040Y-68003475D01*
X144838043Y-68003503D01*
X144433666Y-68006101D01*
X144431515Y-68006097D01*
X144050290Y-68001935D01*
X144048653Y-68001906D01*
X143680325Y-67993019D01*
X143680324Y-67993018D01*
X143605015Y-67991153D01*
X143354672Y-67984950D01*
X143351954Y-67984468D01*
X143320714Y-67984097D01*
X143319125Y-67984068D01*
X143288033Y-67983299D01*
X143285305Y-67983679D01*
X142968139Y-67979929D01*
X142963970Y-67979810D01*
X142666111Y-67966260D01*
X142661586Y-67965384D01*
X142633490Y-67964744D01*
X142630688Y-67964648D01*
X142602625Y-67963372D01*
X142598037Y-67963938D01*
X142329952Y-67957841D01*
X142326327Y-67957215D01*
X142296630Y-67957063D01*
X142294449Y-67957033D01*
X142264784Y-67956359D01*
X142261148Y-67956882D01*
X141660406Y-67953819D01*
X141659293Y-67953642D01*
X141641049Y-67953642D01*
X141625660Y-67953642D01*
X141625028Y-67953640D01*
X141591312Y-67953468D01*
X141590195Y-67953642D01*
X141457399Y-67953642D01*
X141259191Y-67953642D01*
X141257747Y-67953634D01*
X140765737Y-67947903D01*
X140763085Y-67947843D01*
X140275682Y-67931733D01*
X140273174Y-67931625D01*
X139790505Y-67905881D01*
X139788251Y-67905740D01*
X139312375Y-67871657D01*
X139310236Y-67871485D01*
X138842520Y-67829840D01*
X138840533Y-67829647D01*
X138383095Y-67781483D01*
X138381265Y-67781277D01*
X137935122Y-67727594D01*
X137933559Y-67727395D01*
X137501154Y-67669533D01*
X137499627Y-67669318D01*
X137082267Y-67607796D01*
X137080896Y-67607586D01*
X136680555Y-67543991D01*
X136679136Y-67543758D01*
X136297235Y-67478543D01*
X136296236Y-67478367D01*
X135934669Y-67413196D01*
X135933135Y-67412909D01*
X135276923Y-67285481D01*
X135275134Y-67285120D01*
X135243197Y-67278429D01*
X135039573Y-67235768D01*
X134770133Y-67179318D01*
X134752517Y-67174243D01*
X134735582Y-67167974D01*
X134721639Y-67167412D01*
X134704938Y-67165340D01*
X134704636Y-67165373D01*
X134686335Y-67165988D01*
X134670326Y-67165342D01*
X134662792Y-67167458D01*
X134655644Y-67170666D01*
X134643774Y-67181417D01*
X134629322Y-67192680D01*
X134615986Y-67201571D01*
X134611136Y-67207709D01*
X134607237Y-67214508D01*
X134603953Y-67230185D01*
X134598882Y-67247789D01*
X134593319Y-67262818D01*
X134593004Y-67270639D01*
X134593846Y-67278430D01*
X134600402Y-67293040D01*
X134606648Y-67310265D01*
X134606728Y-67310552D01*
X134614870Y-67325282D01*
X134620583Y-67338013D01*
X134632701Y-67351392D01*
X134643970Y-67365852D01*
X134679230Y-67418742D01*
X134682641Y-67424156D01*
X134738645Y-67518354D01*
X134742543Y-67525424D01*
X134791029Y-67620574D01*
X134795178Y-67629593D01*
X134834686Y-67725381D01*
X134838611Y-67736326D01*
X134867833Y-67831673D01*
X134871116Y-67844964D01*
X134882462Y-67904951D01*
X134887805Y-67933206D01*
X134889681Y-67943121D01*
X134891301Y-67954609D01*
X134895380Y-67998187D01*
X134895880Y-68006604D01*
X134897059Y-68053163D01*
X134896969Y-68061977D01*
X134894804Y-68109233D01*
X134894119Y-68117752D01*
X134888406Y-68167334D01*
X134887375Y-68174455D01*
X134876617Y-68236107D01*
X134874159Y-68247179D01*
X134858835Y-68303814D01*
X134855327Y-68314744D01*
X134834458Y-68370721D01*
X134830040Y-68381101D01*
X134803372Y-68436610D01*
X134798170Y-68446311D01*
X134765097Y-68501905D01*
X134759686Y-68510224D01*
X134720157Y-68565980D01*
X134714200Y-68573717D01*
X134668245Y-68628779D01*
X134662122Y-68635588D01*
X134608980Y-68690464D01*
X134602874Y-68696352D01*
X134542919Y-68750334D01*
X134536730Y-68755551D01*
X134469426Y-68808625D01*
X134463648Y-68812915D01*
X134388881Y-68865137D01*
X134383082Y-68868951D01*
X134301246Y-68919544D01*
X134295722Y-68922765D01*
X134206678Y-68971657D01*
X134201343Y-68974420D01*
X134105008Y-69021393D01*
X134099668Y-69023842D01*
X133995884Y-69068494D01*
X133991305Y-69070357D01*
X133922158Y-69096893D01*
X133901829Y-69102761D01*
X133891305Y-69104845D01*
X133876864Y-69112917D01*
X133860806Y-69120439D01*
X133859806Y-69120822D01*
X133849754Y-69127628D01*
X133849020Y-69128421D01*
X133836089Y-69140519D01*
X133823216Y-69150943D01*
X133817371Y-69159942D01*
X133808352Y-69171525D01*
X133791361Y-69208299D01*
X133783751Y-69221160D01*
X133781607Y-69227593D01*
X133776539Y-69240382D01*
X133773693Y-69246540D01*
X133770429Y-69261125D01*
X133767693Y-69269333D01*
X133763070Y-69278986D01*
X133758768Y-69295306D01*
X133756503Y-69302903D01*
X133751158Y-69318939D01*
X133749743Y-69329548D01*
X133746719Y-69341022D01*
X133743370Y-69349165D01*
X133739099Y-69369344D01*
X133737694Y-69375262D01*
X133732429Y-69395240D01*
X133731759Y-69404018D01*
X133713032Y-69492502D01*
X133710825Y-69498572D01*
X133706484Y-69523108D01*
X133705695Y-69527174D01*
X133700528Y-69551589D01*
X133700304Y-69558035D01*
X133687571Y-69629999D01*
X133686545Y-69633053D01*
X133681709Y-69663054D01*
X133681394Y-69664919D01*
X133676096Y-69694865D01*
X133676062Y-69698094D01*
X133660354Y-69795562D01*
X133659500Y-69800279D01*
X133632389Y-69935097D01*
X133630942Y-69941430D01*
X133614884Y-70004099D01*
X133613226Y-70009967D01*
X133594204Y-70071455D01*
X133591901Y-70078206D01*
X133570238Y-70136188D01*
X133566804Y-70144455D01*
X133542498Y-70197487D01*
X133537594Y-70207066D01*
X133510736Y-70254350D01*
X133504051Y-70264853D01*
X133474279Y-70306820D01*
X133465656Y-70317642D01*
X133433455Y-70353721D01*
X133433428Y-70353751D01*
X133422209Y-70364817D01*
X133387165Y-70395242D01*
X133373301Y-70405671D01*
X133333987Y-70431145D01*
X133318973Y-70439459D01*
X133273447Y-70460693D01*
X133256869Y-70467023D01*
X133202976Y-70483293D01*
X133187132Y-70486963D01*
X133111739Y-70499280D01*
X133108210Y-70499804D01*
X133004410Y-70513709D01*
X132997104Y-70514468D01*
X132904002Y-70521363D01*
X132896798Y-70521687D01*
X132709096Y-70524644D01*
X132705143Y-70524707D01*
X132703191Y-70524722D01*
X132406081Y-70524722D01*
X132162172Y-70524722D01*
X132159994Y-70524388D01*
X132127916Y-70524716D01*
X132126651Y-70524722D01*
X132094707Y-70524722D01*
X132092526Y-70525076D01*
X132028617Y-70525729D01*
X132020150Y-70524681D01*
X131999015Y-70525895D01*
X131993177Y-70526092D01*
X131972043Y-70526308D01*
X131963662Y-70527927D01*
X131872780Y-70533152D01*
X131863732Y-70532481D01*
X131843737Y-70534660D01*
X131837436Y-70535184D01*
X131817352Y-70536340D01*
X131808531Y-70538498D01*
X131783887Y-70541185D01*
X131775495Y-70540972D01*
X131754339Y-70544274D01*
X131748684Y-70545023D01*
X131737989Y-70546190D01*
X131727374Y-70547347D01*
X131719322Y-70549739D01*
X131707476Y-70551588D01*
X131688779Y-70554506D01*
X131680988Y-70554653D01*
X131658883Y-70559062D01*
X131653754Y-70559973D01*
X131631516Y-70563444D01*
X131624153Y-70565988D01*
X131586581Y-70573482D01*
X131578192Y-70574012D01*
X131557455Y-70579156D01*
X131551870Y-70580405D01*
X131530885Y-70584592D01*
X131523062Y-70587689D01*
X131472348Y-70600272D01*
X131459217Y-70601997D01*
X131448580Y-70605666D01*
X131438017Y-70608791D01*
X131427114Y-70611496D01*
X131415159Y-70617192D01*
X131353953Y-70638302D01*
X131338816Y-70641937D01*
X131334399Y-70644088D01*
X131320553Y-70649823D01*
X131315916Y-70651422D01*
X131302639Y-70659557D01*
X131242769Y-70688716D01*
X131229572Y-70693464D01*
X131221649Y-70698338D01*
X131210980Y-70704199D01*
X131202631Y-70708265D01*
X131191549Y-70716854D01*
X131138038Y-70749773D01*
X131126884Y-70754942D01*
X131115999Y-70762882D01*
X131107913Y-70768307D01*
X131096451Y-70775359D01*
X131087443Y-70783716D01*
X131038703Y-70819276D01*
X131029529Y-70824339D01*
X131016166Y-70835422D01*
X131010102Y-70840141D01*
X130996085Y-70850368D01*
X130988928Y-70858012D01*
X130944993Y-70894452D01*
X130938028Y-70898799D01*
X130921916Y-70913431D01*
X130917727Y-70917068D01*
X130900993Y-70930949D01*
X130895710Y-70937233D01*
X130855448Y-70973800D01*
X130849489Y-70977874D01*
X130832670Y-70994368D01*
X130829225Y-70997619D01*
X130811784Y-71013460D01*
X130807373Y-71019174D01*
X130688559Y-71135687D01*
X130681877Y-71140680D01*
X130667250Y-71156401D01*
X130663298Y-71160459D01*
X130647916Y-71175545D01*
X130643098Y-71182364D01*
X130576088Y-71254394D01*
X130572255Y-71258334D01*
X130484355Y-71344796D01*
X130478850Y-71349893D01*
X130389079Y-71428096D01*
X130381209Y-71434408D01*
X130289892Y-71501727D01*
X130279420Y-71508657D01*
X130184482Y-71564787D01*
X130174435Y-71570121D01*
X130131940Y-71590240D01*
X130123557Y-71593837D01*
X130077574Y-71611598D01*
X130069258Y-71614476D01*
X130023181Y-71628609D01*
X130013406Y-71631176D01*
X129966818Y-71641403D01*
X129956808Y-71643174D01*
X129910010Y-71649487D01*
X129898695Y-71650488D01*
X129852105Y-71652467D01*
X129839884Y-71652384D01*
X129774967Y-71648735D01*
X129761015Y-71647154D01*
X129696564Y-71636127D01*
X129683550Y-71633172D01*
X129616890Y-71614211D01*
X129604763Y-71610073D01*
X129535249Y-71582268D01*
X129524212Y-71577214D01*
X129450826Y-71539154D01*
X129441745Y-71533946D01*
X129384930Y-71498097D01*
X129363867Y-71484806D01*
X129356083Y-71479470D01*
X129354453Y-71478259D01*
X129273686Y-71418241D01*
X129267558Y-71413380D01*
X129178621Y-71338107D01*
X129175362Y-71335247D01*
X128968815Y-71147387D01*
X128719435Y-70920568D01*
X128718002Y-70918798D01*
X128694096Y-70897513D01*
X128693121Y-70896635D01*
X128669546Y-70875193D01*
X128667631Y-70873948D01*
X128313980Y-70559062D01*
X128254604Y-70506194D01*
X128253301Y-70504618D01*
X128228942Y-70483337D01*
X128228172Y-70482659D01*
X128216962Y-70472678D01*
X128216959Y-70472676D01*
X128203901Y-70461051D01*
X128202173Y-70459953D01*
X127818384Y-70124689D01*
X127817100Y-70123165D01*
X127792383Y-70101969D01*
X127791592Y-70101284D01*
X127780374Y-70091485D01*
X127780373Y-70091484D01*
X127767214Y-70079989D01*
X127765523Y-70078936D01*
X127418104Y-69781020D01*
X127416502Y-69779157D01*
X127403414Y-69768192D01*
X127392245Y-69758834D01*
X127391224Y-69757969D01*
X127367058Y-69737247D01*
X127364946Y-69735965D01*
X127178419Y-69579697D01*
X126758689Y-69228057D01*
X126756258Y-69225313D01*
X126733079Y-69206575D01*
X126731405Y-69205198D01*
X126708694Y-69186173D01*
X126705545Y-69184320D01*
X126352389Y-68898867D01*
X126336341Y-68883305D01*
X126331113Y-68877229D01*
X126331112Y-68877228D01*
X126316037Y-68868065D01*
X126302506Y-68858549D01*
X126301806Y-68857983D01*
X126301804Y-68857982D01*
X126300416Y-68856860D01*
X126285843Y-68849714D01*
X126275303Y-68843308D01*
X126265994Y-68841108D01*
X126256441Y-68840616D01*
X126244516Y-68843823D01*
X126228535Y-68846607D01*
X126226055Y-68847645D01*
X126210409Y-68852995D01*
X126193375Y-68857576D01*
X126186649Y-68861953D01*
X126166896Y-68872403D01*
X125647971Y-69089574D01*
X125645102Y-69090295D01*
X125616817Y-69102598D01*
X125615237Y-69103272D01*
X125586841Y-69115157D01*
X125584328Y-69116732D01*
X124802589Y-69456827D01*
X124800621Y-69457348D01*
X124771262Y-69470450D01*
X124770203Y-69470916D01*
X124740576Y-69483806D01*
X124738857Y-69484911D01*
X124359792Y-69654084D01*
X124358212Y-69654515D01*
X124328075Y-69668236D01*
X124327238Y-69668613D01*
X124297385Y-69681937D01*
X124296023Y-69682828D01*
X123941870Y-69844069D01*
X123939399Y-69844771D01*
X123911009Y-69858110D01*
X123909667Y-69858731D01*
X123881062Y-69871755D01*
X123878922Y-69873187D01*
X123577843Y-70014665D01*
X123573531Y-70015967D01*
X123548129Y-70028594D01*
X123545683Y-70029776D01*
X123520122Y-70041789D01*
X123516429Y-70044355D01*
X123295158Y-70154365D01*
X123287480Y-70156964D01*
X123268271Y-70167597D01*
X123263437Y-70170135D01*
X123243767Y-70179916D01*
X123237269Y-70184760D01*
X123143573Y-70236629D01*
X123139494Y-70238162D01*
X123114849Y-70252498D01*
X123112565Y-70253794D01*
X123087633Y-70267597D01*
X123084218Y-70270319D01*
X122971519Y-70335886D01*
X122967695Y-70337413D01*
X122942982Y-70352459D01*
X122940862Y-70353721D01*
X122915853Y-70368272D01*
X122912685Y-70370906D01*
X122579190Y-70573960D01*
X122575676Y-70575443D01*
X122550816Y-70591212D01*
X122548891Y-70592408D01*
X122523755Y-70607714D01*
X122520866Y-70610212D01*
X122141640Y-70850789D01*
X122139406Y-70851772D01*
X122112800Y-70869076D01*
X122111628Y-70869829D01*
X122084960Y-70886748D01*
X122083146Y-70888365D01*
X121682857Y-71148723D01*
X121680968Y-71149577D01*
X121654103Y-71167419D01*
X121653118Y-71168066D01*
X121626163Y-71185599D01*
X121624627Y-71186995D01*
X121228035Y-71450394D01*
X121226413Y-71451147D01*
X121199420Y-71469395D01*
X121198585Y-71469954D01*
X121171418Y-71487999D01*
X121170097Y-71489221D01*
X120801929Y-71738148D01*
X120800145Y-71738992D01*
X120773440Y-71757402D01*
X120772526Y-71758027D01*
X120745759Y-71776127D01*
X120744325Y-71777477D01*
X120429041Y-71994858D01*
X120426902Y-71995898D01*
X120401004Y-72014181D01*
X120399883Y-72014963D01*
X120373706Y-72033012D01*
X120371987Y-72034665D01*
X120140399Y-72198163D01*
X120118702Y-72208146D01*
X120108022Y-72214870D01*
X120105986Y-72217314D01*
X120099155Y-72223621D01*
X120087381Y-72239370D01*
X120083328Y-72244502D01*
X120065905Y-72265410D01*
X120064285Y-72269790D01*
X120063915Y-72296996D01*
X120063653Y-72303534D01*
X120061847Y-72330689D01*
X120063112Y-72335185D01*
X120078806Y-72357415D01*
X120082440Y-72362864D01*
X120092926Y-72379519D01*
X120099237Y-72386356D01*
X120101054Y-72388930D01*
X120101055Y-72388930D01*
X120101056Y-72388932D01*
X120101057Y-72388932D01*
X120111167Y-72396489D01*
X120131992Y-72408171D01*
X120350456Y-72590223D01*
X120353978Y-72594142D01*
X120375189Y-72610891D01*
X120377726Y-72612949D01*
X120398521Y-72630277D01*
X120403074Y-72632909D01*
X120520020Y-72725253D01*
X120524819Y-72730265D01*
X120544246Y-72744488D01*
X120547842Y-72747223D01*
X120566769Y-72762168D01*
X120572880Y-72765451D01*
X120703949Y-72861408D01*
X120732824Y-72882548D01*
X120734758Y-72883993D01*
X120943941Y-73043518D01*
X120957902Y-73054165D01*
X120962171Y-73057573D01*
X121198519Y-73254868D01*
X121201514Y-73257449D01*
X121319144Y-73362233D01*
X121321538Y-73364425D01*
X121437157Y-73473227D01*
X121439684Y-73475675D01*
X121532529Y-73568311D01*
X121551071Y-73586811D01*
X121553845Y-73589670D01*
X121658935Y-73701499D01*
X121662041Y-73704931D01*
X121758721Y-73815917D01*
X121762384Y-73820324D01*
X121825321Y-73899700D01*
X121834990Y-73911895D01*
X121848584Y-73929039D01*
X121852795Y-73934671D01*
X121890745Y-73988555D01*
X121926386Y-74039160D01*
X121931205Y-74046547D01*
X121990265Y-74144528D01*
X121995659Y-74154478D01*
X122038577Y-74243064D01*
X122044234Y-74256776D01*
X122071815Y-74336917D01*
X122075700Y-74350770D01*
X122081718Y-74378280D01*
X122083645Y-74389559D01*
X122086939Y-74416193D01*
X122087860Y-74429348D01*
X122088232Y-74451687D01*
X122087648Y-74465942D01*
X122085931Y-74483323D01*
X122083228Y-74499566D01*
X122075752Y-74531301D01*
X122071620Y-74545163D01*
X122058673Y-74580845D01*
X122053505Y-74593020D01*
X122033876Y-74633163D01*
X122028810Y-74642489D01*
X122002216Y-74686814D01*
X121996728Y-74695176D01*
X121962480Y-74743038D01*
X121957827Y-74749134D01*
X121916937Y-74799395D01*
X121911077Y-74806092D01*
X121801901Y-74922179D01*
X121795630Y-74928388D01*
X121660357Y-75053122D01*
X121656249Y-75056746D01*
X121494628Y-75193074D01*
X121492107Y-75195144D01*
X121307219Y-75342951D01*
X121305956Y-75343947D01*
X121102851Y-75501858D01*
X121099213Y-75504581D01*
X120937968Y-75620676D01*
X120932096Y-75623766D01*
X120912628Y-75638830D01*
X120909204Y-75641387D01*
X120889236Y-75655764D01*
X120884606Y-75660514D01*
X120868675Y-75672843D01*
X120762135Y-75755288D01*
X120753835Y-75760143D01*
X120739420Y-75772627D01*
X120734143Y-75776948D01*
X120719052Y-75788628D01*
X120712661Y-75795804D01*
X120614470Y-75880853D01*
X120605100Y-75887146D01*
X120594007Y-75898186D01*
X120587729Y-75904016D01*
X120575897Y-75914265D01*
X120568924Y-75923150D01*
X120552305Y-75939692D01*
X120543794Y-75946275D01*
X120538435Y-75952345D01*
X120538435Y-75952346D01*
X120532700Y-75958842D01*
X120527233Y-75964647D01*
X120515345Y-75976480D01*
X120509280Y-75985374D01*
X120496647Y-75999687D01*
X120485145Y-76010462D01*
X120482709Y-76014033D01*
X120473262Y-76026181D01*
X120470418Y-76029403D01*
X120462810Y-76043199D01*
X120449041Y-76063381D01*
X120439198Y-76075134D01*
X120436574Y-76080154D01*
X120429130Y-76092568D01*
X120425938Y-76097246D01*
X120420206Y-76111470D01*
X120407097Y-76136546D01*
X120400700Y-76145813D01*
X120394382Y-76160237D01*
X120390701Y-76167913D01*
X120383416Y-76181852D01*
X120380196Y-76192634D01*
X120368398Y-76219576D01*
X120364232Y-76226400D01*
X120356227Y-76247077D01*
X120354182Y-76252038D01*
X120345293Y-76272339D01*
X120343439Y-76280114D01*
X120331289Y-76311503D01*
X120328143Y-76317133D01*
X120319916Y-76340690D01*
X120318492Y-76344560D01*
X120309483Y-76367837D01*
X120308230Y-76374153D01*
X120185745Y-76724903D01*
X120184835Y-76726617D01*
X120174424Y-76757307D01*
X120174067Y-76758346D01*
X120163382Y-76788945D01*
X120163044Y-76790853D01*
X120104284Y-76964077D01*
X120103420Y-76966538D01*
X120030539Y-77167403D01*
X120028647Y-77172293D01*
X119949459Y-77364746D01*
X119947239Y-77369816D01*
X119906318Y-77457880D01*
X119904210Y-77462197D01*
X119860875Y-77546724D01*
X119858075Y-77551880D01*
X119812745Y-77630857D01*
X119809368Y-77636400D01*
X119762458Y-77709040D01*
X119757891Y-77715633D01*
X119709088Y-77781441D01*
X119703465Y-77788475D01*
X119653493Y-77846527D01*
X119646134Y-77854361D01*
X119594730Y-77904541D01*
X119585792Y-77912463D01*
X119533034Y-77954865D01*
X119521950Y-77962811D01*
X119467340Y-77997580D01*
X119455036Y-78004464D01*
X119396155Y-78033139D01*
X119384370Y-78038143D01*
X119329953Y-78058000D01*
X119312352Y-78064423D01*
X119309625Y-78065418D01*
X119300070Y-78068472D01*
X119230875Y-78087546D01*
X119218019Y-78090366D01*
X119152514Y-78101124D01*
X119138971Y-78102590D01*
X119069225Y-78106281D01*
X119055845Y-78106266D01*
X118976012Y-78101864D01*
X118962032Y-78100294D01*
X118887248Y-78087565D01*
X118874918Y-78084813D01*
X118801393Y-78064423D01*
X118791475Y-78061218D01*
X118717973Y-78034004D01*
X118709665Y-78030581D01*
X118634313Y-77996289D01*
X118629020Y-77993727D01*
X118550561Y-77953426D01*
X118547123Y-77951591D01*
X118378553Y-77858138D01*
X118376415Y-77856925D01*
X118228970Y-77771258D01*
X118204319Y-77756935D01*
X118196546Y-77750962D01*
X118179848Y-77742487D01*
X118173682Y-77739134D01*
X118157520Y-77729744D01*
X118148283Y-77726466D01*
X118108301Y-77706174D01*
X118095436Y-77699644D01*
X118087095Y-77693972D01*
X118078994Y-77690444D01*
X118078993Y-77690443D01*
X118070467Y-77686730D01*
X118063871Y-77683623D01*
X118047695Y-77675414D01*
X118037995Y-77672592D01*
X118036047Y-77671744D01*
X118029320Y-77668814D01*
X117979133Y-77646962D01*
X117968565Y-77640790D01*
X117955711Y-77636351D01*
X117946693Y-77632837D01*
X117934219Y-77627406D01*
X117922261Y-77624801D01*
X117854016Y-77601236D01*
X117841793Y-77595433D01*
X117831579Y-77592932D01*
X117820613Y-77589704D01*
X117815357Y-77587890D01*
X117815356Y-77587889D01*
X117810653Y-77586266D01*
X117797220Y-77584520D01*
X117718914Y-77565350D01*
X117705896Y-77560612D01*
X117696225Y-77559208D01*
X117684570Y-77556941D01*
X117675094Y-77554622D01*
X117661255Y-77554137D01*
X117572319Y-77541238D01*
X117558844Y-77537760D01*
X117549283Y-77537309D01*
X117537335Y-77536164D01*
X117527854Y-77534789D01*
X117513963Y-77535644D01*
X117415952Y-77531025D01*
X117405102Y-77529154D01*
X117388858Y-77529472D01*
X117380601Y-77529359D01*
X117364356Y-77528594D01*
X117353455Y-77530167D01*
X117236119Y-77532468D01*
X117225974Y-77531372D01*
X117208110Y-77532794D01*
X117200719Y-77533161D01*
X117182801Y-77533514D01*
X117172812Y-77535607D01*
X117132827Y-77538792D01*
X117120951Y-77538315D01*
X117106751Y-77540522D01*
X117097574Y-77541600D01*
X117083227Y-77542744D01*
X117071783Y-77545960D01*
X117017739Y-77554364D01*
X116998686Y-77555837D01*
X116949787Y-77555837D01*
X116936078Y-77555077D01*
X116929283Y-77554321D01*
X116924612Y-77554797D01*
X116918120Y-77556907D01*
X116904853Y-77560419D01*
X116760830Y-77590119D01*
X116752367Y-77590711D01*
X116731776Y-77595971D01*
X116726146Y-77597271D01*
X116705350Y-77601561D01*
X116697485Y-77604736D01*
X116588389Y-77632619D01*
X116576399Y-77634206D01*
X116563236Y-77638671D01*
X116554122Y-77641377D01*
X116540640Y-77644823D01*
X116529722Y-77650039D01*
X116506783Y-77657820D01*
X116495546Y-77660163D01*
X116481486Y-77666074D01*
X116473270Y-77669190D01*
X116458836Y-77674086D01*
X116448869Y-77679787D01*
X116427341Y-77688838D01*
X116413935Y-77692838D01*
X116405681Y-77697303D01*
X116394758Y-77702538D01*
X116386112Y-77706174D01*
X116374592Y-77714122D01*
X116352487Y-77726080D01*
X116338914Y-77731700D01*
X116332723Y-77735964D01*
X116321409Y-77742893D01*
X116314808Y-77746464D01*
X116303635Y-77756002D01*
X116281490Y-77771258D01*
X116267783Y-77778884D01*
X116264379Y-77781908D01*
X116252403Y-77791295D01*
X116248650Y-77793880D01*
X116237970Y-77805369D01*
X116215640Y-77825205D01*
X116202776Y-77834652D01*
X116200402Y-77837380D01*
X116189234Y-77848662D01*
X116186523Y-77851070D01*
X116177210Y-77864024D01*
X116155766Y-77888664D01*
X116144402Y-77899440D01*
X116141815Y-77903275D01*
X116132574Y-77915310D01*
X116129536Y-77918800D01*
X116122056Y-77932564D01*
X116102054Y-77962213D01*
X116092345Y-77973904D01*
X116089554Y-77979284D01*
X116082293Y-77991507D01*
X116078903Y-77996531D01*
X116073282Y-78010648D01*
X116054837Y-78046202D01*
X116047014Y-78058000D01*
X116043711Y-78066306D01*
X116038563Y-78077574D01*
X116034449Y-78085505D01*
X116030650Y-78099150D01*
X116014013Y-78140991D01*
X116007972Y-78152214D01*
X116004352Y-78164125D01*
X116000943Y-78173863D01*
X115996349Y-78185419D01*
X115994072Y-78197948D01*
X115978907Y-78247852D01*
X115974258Y-78258362D01*
X115970873Y-78273217D01*
X115968616Y-78281716D01*
X115964192Y-78296274D01*
X115963016Y-78307710D01*
X115949292Y-78367959D01*
X115945860Y-78377301D01*
X115942818Y-78395446D01*
X115941430Y-78402471D01*
X115937337Y-78420443D01*
X115936959Y-78430387D01*
X115922719Y-78515313D01*
X115918359Y-78533120D01*
X115918273Y-78533382D01*
X115917187Y-78546426D01*
X115917228Y-78546696D01*
X115918584Y-78564987D01*
X115918584Y-78618910D01*
X115918244Y-78621126D01*
X115918577Y-78653150D01*
X115918584Y-78654437D01*
X115918584Y-78686398D01*
X115918944Y-78688607D01*
X115920891Y-78876182D01*
X115920801Y-78882365D01*
X115916124Y-79000721D01*
X115915359Y-79010420D01*
X115900664Y-79134406D01*
X115899101Y-79144215D01*
X115887435Y-79202333D01*
X115885854Y-79209193D01*
X115869972Y-79270150D01*
X115867573Y-79278222D01*
X115847430Y-79338440D01*
X115844214Y-79346995D01*
X115818873Y-79407517D01*
X115815018Y-79415844D01*
X115784241Y-79476351D01*
X115779461Y-79484896D01*
X115742481Y-79545276D01*
X115736807Y-79553738D01*
X115692454Y-79614351D01*
X115686298Y-79622096D01*
X115631327Y-79685855D01*
X115627725Y-79689854D01*
X115551321Y-79771062D01*
X115547153Y-79775285D01*
X115462749Y-79856804D01*
X115458437Y-79860776D01*
X115260326Y-80034788D01*
X115257185Y-80037456D01*
X114802451Y-80410855D01*
X114800777Y-80412205D01*
X114464317Y-80678850D01*
X114460974Y-80680776D01*
X114438278Y-80699460D01*
X114436490Y-80700904D01*
X114413471Y-80719147D01*
X114410887Y-80722010D01*
X114284351Y-80826182D01*
X114281074Y-80828150D01*
X114262724Y-80843832D01*
X114258687Y-80847282D01*
X114256972Y-80848722D01*
X114234224Y-80867451D01*
X114231717Y-80870333D01*
X114124519Y-80961950D01*
X114108417Y-80971032D01*
X114093749Y-80981817D01*
X114090554Y-80986269D01*
X114082624Y-80994899D01*
X114074923Y-81007475D01*
X114069915Y-81015020D01*
X114055139Y-81035604D01*
X114053518Y-81041419D01*
X114055515Y-81066691D01*
X114055898Y-81075746D01*
X114056043Y-81101077D01*
X114058152Y-81106741D01*
X114058734Y-81107423D01*
X114058735Y-81107424D01*
X114074621Y-81126013D01*
X114080248Y-81133106D01*
X114088977Y-81144978D01*
X114097608Y-81152908D01*
X114101166Y-81157071D01*
X114116700Y-81166583D01*
X114133508Y-81174270D01*
X114420856Y-81380545D01*
X114422349Y-81381633D01*
X114600175Y-81513392D01*
X114607248Y-81518632D01*
X114609601Y-81520420D01*
X114800012Y-81668659D01*
X114803269Y-81671284D01*
X115050139Y-81877222D01*
X115052048Y-81878848D01*
X115323681Y-82115373D01*
X115334535Y-82124824D01*
X115336722Y-82126775D01*
X115471792Y-82250121D01*
X115473994Y-82252181D01*
X115507089Y-82283913D01*
X115596614Y-82369753D01*
X115599755Y-82372876D01*
X115701065Y-82477359D01*
X115706150Y-82482935D01*
X115772268Y-82560036D01*
X115785129Y-82578076D01*
X115806765Y-82615017D01*
X115808245Y-82617544D01*
X115817349Y-82636669D01*
X115835296Y-82684525D01*
X115840543Y-82702574D01*
X115852361Y-82758833D01*
X115854755Y-82776375D01*
X115858851Y-82840131D01*
X115858868Y-82855753D01*
X115854566Y-82925149D01*
X115852694Y-82940253D01*
X115838920Y-83013969D01*
X115835593Y-83027508D01*
X115812259Y-83103691D01*
X115807498Y-83116620D01*
X115775135Y-83191410D01*
X115767938Y-83205501D01*
X115725758Y-83276498D01*
X115721714Y-83282856D01*
X115670627Y-83358036D01*
X115664599Y-83366173D01*
X115611810Y-83431648D01*
X115609594Y-83434396D01*
X115601498Y-83443485D01*
X115544078Y-83501908D01*
X115532496Y-83512299D01*
X115470898Y-83560949D01*
X115459763Y-83568791D01*
X115434320Y-83584693D01*
X115425065Y-83589939D01*
X115397603Y-83603985D01*
X115386756Y-83608891D01*
X115359847Y-83619537D01*
X115347706Y-83623628D01*
X115320187Y-83631344D01*
X115308013Y-83634105D01*
X115281131Y-83638793D01*
X115266546Y-83640454D01*
X115230839Y-83642389D01*
X115226115Y-83642554D01*
X113964220Y-83662680D01*
X113963943Y-83662684D01*
X112353634Y-83684765D01*
X112353324Y-83684720D01*
X112318411Y-83685248D01*
X112318245Y-83685250D01*
X112283914Y-83685722D01*
X112283602Y-83685774D01*
X110550396Y-83712004D01*
X110549318Y-83711852D01*
X110515635Y-83712528D01*
X110515032Y-83712539D01*
X110481173Y-83713052D01*
X110480094Y-83713241D01*
X108777475Y-83747406D01*
X108775891Y-83747428D01*
X108235994Y-83751366D01*
X108233790Y-83751046D01*
X108201753Y-83751609D01*
X108200485Y-83751625D01*
X108168491Y-83751859D01*
X108166305Y-83752233D01*
X107729336Y-83759928D01*
X107728727Y-83759843D01*
X107694282Y-83760544D01*
X107694014Y-83760549D01*
X107693946Y-83760551D01*
X107686180Y-83760687D01*
X107659344Y-83761161D01*
X107658740Y-83761268D01*
X107256968Y-83769451D01*
X107255855Y-83769469D01*
X106894227Y-83773586D01*
X106889221Y-83773643D01*
X106887812Y-83773651D01*
X106580771Y-83773651D01*
X106573542Y-83773440D01*
X106567485Y-83773086D01*
X106521300Y-83770389D01*
X106506925Y-83768703D01*
X106463775Y-83761068D01*
X106450548Y-83757972D01*
X106409586Y-83745983D01*
X106396833Y-83741482D01*
X106357824Y-83725271D01*
X106346743Y-83720009D01*
X106309055Y-83699770D01*
X106299175Y-83693858D01*
X106286988Y-83685774D01*
X106262717Y-83669673D01*
X106254322Y-83663583D01*
X106219368Y-83635919D01*
X106212158Y-83629748D01*
X106179645Y-83599692D01*
X106172958Y-83593021D01*
X106147087Y-83565160D01*
X106142782Y-83560524D01*
X106137530Y-83554487D01*
X106111587Y-83522656D01*
X106104851Y-83513576D01*
X106074764Y-83468895D01*
X106056117Y-83441202D01*
X106048882Y-83429004D01*
X106016002Y-83365538D01*
X106009863Y-83351668D01*
X105996718Y-83316248D01*
X105994759Y-83307611D01*
X105987342Y-83290305D01*
X105986663Y-83288719D01*
X105984388Y-83283026D01*
X105984062Y-83282148D01*
X105980784Y-83273314D01*
X105980783Y-83273313D01*
X105977234Y-83263749D01*
X105972697Y-83256133D01*
X105971650Y-83253692D01*
X105967292Y-83241898D01*
X105966876Y-83240569D01*
X105960682Y-83220773D01*
X105957575Y-83208760D01*
X105942664Y-83136306D01*
X105941314Y-83128480D01*
X105941204Y-83127696D01*
X105933483Y-83072428D01*
X105933515Y-83067711D01*
X105931048Y-83052631D01*
X105929009Y-83040169D01*
X105928577Y-83037322D01*
X105926730Y-83024096D01*
X105926728Y-83024093D01*
X105924698Y-83009559D01*
X105923266Y-83005053D01*
X105917562Y-82970176D01*
X105914384Y-82950744D01*
X105913001Y-82938480D01*
X105912730Y-82934157D01*
X105911659Y-82917039D01*
X105906254Y-82910501D01*
X105891621Y-82888339D01*
X105891559Y-82888219D01*
X105887739Y-82880813D01*
X105887738Y-82880812D01*
X105879651Y-82872806D01*
X105870044Y-82866705D01*
X105866726Y-82865852D01*
X105861828Y-82864592D01*
X105836974Y-82855267D01*
X105829399Y-82851455D01*
X105808208Y-82854921D01*
X105795946Y-82856304D01*
X105368008Y-82883097D01*
X105367020Y-82883155D01*
X104730218Y-82917922D01*
X104728641Y-82917998D01*
X104342363Y-82934157D01*
X104341093Y-82934203D01*
X103911641Y-82947762D01*
X103910132Y-82947801D01*
X103439273Y-82956931D01*
X103437694Y-82956951D01*
X102928304Y-82960342D01*
X102926652Y-82960342D01*
X102142853Y-82955117D01*
X102140911Y-82955089D01*
X101357203Y-82937587D01*
X101355428Y-82937535D01*
X100964410Y-82923196D01*
X100963256Y-82923148D01*
X100572173Y-82905159D01*
X100570773Y-82905087D01*
X100179798Y-82882671D01*
X100178402Y-82882583D01*
X99787814Y-82855764D01*
X99785937Y-82855621D01*
X99276722Y-82812883D01*
X99274735Y-82812700D01*
X98783236Y-82763472D01*
X98781255Y-82763257D01*
X98307141Y-82708062D01*
X98305179Y-82707818D01*
X97847775Y-82647160D01*
X97845820Y-82646885D01*
X97405002Y-82581272D01*
X97403238Y-82580996D01*
X96978257Y-82511469D01*
X96976506Y-82511170D01*
X96567632Y-82438250D01*
X96566031Y-82437953D01*
X96172527Y-82362430D01*
X96170890Y-82362105D01*
X95824333Y-82290743D01*
X95792666Y-82284222D01*
X95791274Y-82283926D01*
X95428396Y-82204587D01*
X95426500Y-82204157D01*
X94742137Y-82043115D01*
X94740114Y-82042621D01*
X94111943Y-81883623D01*
X94110630Y-81883283D01*
X93903684Y-81828443D01*
X93566601Y-81739116D01*
X93562650Y-81737420D01*
X93534851Y-81730675D01*
X93532333Y-81730036D01*
X93504647Y-81722700D01*
X93500365Y-81722306D01*
X93439060Y-81707430D01*
X93433690Y-81705999D01*
X93371069Y-81687797D01*
X93324849Y-81674362D01*
X93324848Y-81674362D01*
X93307894Y-81669434D01*
X93307894Y-81669433D01*
X93307891Y-81669433D01*
X93270937Y-81658691D01*
X93263443Y-81655368D01*
X93242288Y-81650234D01*
X93236925Y-81648805D01*
X93215994Y-81642721D01*
X93207839Y-81641875D01*
X93164346Y-81631321D01*
X93137509Y-81621413D01*
X93131640Y-81618437D01*
X93131639Y-81618437D01*
X93108596Y-81622133D01*
X93098388Y-81623339D01*
X93073981Y-81625200D01*
X93067956Y-81627975D01*
X93050676Y-81645322D01*
X93043134Y-81652290D01*
X93025350Y-81667405D01*
X93025348Y-81667407D01*
X93023796Y-81673806D01*
X93013888Y-81700640D01*
X93008341Y-81711579D01*
X93000697Y-81723317D01*
X92997317Y-81732004D01*
X92992360Y-81743099D01*
X92988144Y-81751414D01*
X92984499Y-81764943D01*
X92976804Y-81784721D01*
X92971131Y-81795360D01*
X92967061Y-81808764D01*
X92963977Y-81817684D01*
X92958896Y-81830744D01*
X92956787Y-81842612D01*
X92926404Y-81942708D01*
X92923381Y-81949256D01*
X92917382Y-81972119D01*
X92916101Y-81976650D01*
X92909250Y-81999225D01*
X92908399Y-82006373D01*
X92875017Y-82133640D01*
X92874217Y-82136543D01*
X92842919Y-82245057D01*
X92838698Y-82254880D01*
X92835064Y-82271379D01*
X92833111Y-82279065D01*
X92828426Y-82295308D01*
X92827445Y-82305963D01*
X92778825Y-82526695D01*
X92777366Y-82532621D01*
X92753691Y-82619504D01*
X92751354Y-82627110D01*
X92728272Y-82694451D01*
X92724317Y-82704530D01*
X92702662Y-82753342D01*
X92696024Y-82766219D01*
X92676383Y-82799401D01*
X92666151Y-82814139D01*
X92647004Y-82837852D01*
X92634747Y-82850963D01*
X92619512Y-82865059D01*
X92597279Y-82881440D01*
X92573578Y-82895117D01*
X92557487Y-82902915D01*
X92527584Y-82914826D01*
X92508395Y-82920720D01*
X92476020Y-82927857D01*
X92457640Y-82930485D01*
X92415987Y-82933282D01*
X92412221Y-82933535D01*
X92398963Y-82933714D01*
X92359372Y-82932131D01*
X92351175Y-82931531D01*
X92307080Y-82926828D01*
X92298789Y-82925659D01*
X92192958Y-82907079D01*
X92187758Y-82906051D01*
X92106700Y-82888219D01*
X92102637Y-82886675D01*
X92081952Y-82882583D01*
X92074602Y-82881128D01*
X92072080Y-82880602D01*
X92063039Y-82878613D01*
X92044185Y-82874466D01*
X92039834Y-82874252D01*
X91980498Y-82862516D01*
X91969044Y-82858795D01*
X91962428Y-82858005D01*
X91955125Y-82857132D01*
X91945799Y-82855655D01*
X91919337Y-82850423D01*
X91919501Y-82849591D01*
X91904056Y-82848303D01*
X91882907Y-82842104D01*
X91865764Y-82835670D01*
X91865490Y-82835543D01*
X91852682Y-82832921D01*
X91852387Y-82832930D01*
X91834073Y-82832106D01*
X91833159Y-82831996D01*
X91828927Y-82831491D01*
X91814201Y-82828821D01*
X91251960Y-82691392D01*
X91249741Y-82690828D01*
X90545686Y-82504892D01*
X90544257Y-82504505D01*
X90303911Y-82437953D01*
X89712757Y-82274261D01*
X89711748Y-82273978D01*
X89663026Y-82260029D01*
X89469393Y-82204592D01*
X88755678Y-82000256D01*
X88754940Y-82000042D01*
X87678149Y-81684528D01*
X87677604Y-81684367D01*
X86556974Y-81350418D01*
X86482776Y-81328306D01*
X86482529Y-81328232D01*
X85699833Y-81091638D01*
X85173246Y-80932461D01*
X85172915Y-80932360D01*
X83759914Y-80500924D01*
X83751587Y-80498054D01*
X83685477Y-80472611D01*
X83678703Y-80469771D01*
X83619172Y-80442711D01*
X83612041Y-80439190D01*
X83559944Y-80411350D01*
X83553054Y-80407379D01*
X83507748Y-80379294D01*
X83500666Y-80374559D01*
X83461687Y-80346517D01*
X83455045Y-80341389D01*
X83442678Y-80331154D01*
X83421635Y-80313739D01*
X83414802Y-80307646D01*
X83402350Y-80295686D01*
X83386641Y-80280597D01*
X83380528Y-80274294D01*
X83359598Y-80251127D01*
X83351206Y-80240769D01*
X83312689Y-80187624D01*
X83303758Y-80173354D01*
X83279812Y-80128598D01*
X83273158Y-80113950D01*
X83258230Y-80074465D01*
X83254163Y-80061639D01*
X83248855Y-80041093D01*
X83245049Y-80015875D01*
X83243257Y-79977597D01*
X83243796Y-79958881D01*
X83248368Y-79915229D01*
X83251768Y-79896618D01*
X83263131Y-79853409D01*
X83269055Y-79836164D01*
X83270471Y-79832858D01*
X83287377Y-79793362D01*
X83295570Y-79777493D01*
X83321332Y-79735349D01*
X83331478Y-79721117D01*
X83365380Y-79680035D01*
X83376357Y-79668364D01*
X83418515Y-79628994D01*
X83430993Y-79618777D01*
X83481323Y-79582776D01*
X83494521Y-79574537D01*
X83635843Y-79498205D01*
X83639315Y-79496402D01*
X83856663Y-79387856D01*
X83859064Y-79386689D01*
X84426574Y-79118830D01*
X84428367Y-79118003D01*
X85045561Y-78839929D01*
X85047585Y-78839042D01*
X85526644Y-78634210D01*
X85545959Y-78627770D01*
X85558279Y-78624758D01*
X85558283Y-78624759D01*
X85571716Y-78616450D01*
X85588188Y-78607897D01*
X85601787Y-78597854D01*
X85613827Y-78590409D01*
X85613828Y-78590405D01*
X85619448Y-78583772D01*
X85623912Y-78576298D01*
X85623915Y-78576296D01*
X85627064Y-78562485D01*
X85633209Y-78543069D01*
X85634474Y-78539979D01*
X85638573Y-78529970D01*
X85638572Y-78529969D01*
X85639220Y-78521293D01*
X85638439Y-78512626D01*
X85638440Y-78512623D01*
X85632867Y-78499589D01*
X85627524Y-78483562D01*
X85618979Y-78467106D01*
X85612766Y-78452576D01*
X85612765Y-78452575D01*
X85612765Y-78452574D01*
X85612763Y-78452573D01*
X85604403Y-78443005D01*
X85592315Y-78426632D01*
X84410966Y-76516377D01*
X84405109Y-76499935D01*
X84403961Y-76500483D01*
X84395512Y-76482754D01*
X84395512Y-76482753D01*
X84393239Y-76480356D01*
X84388931Y-76475812D01*
X84379887Y-76464070D01*
X84376485Y-76461189D01*
X84374428Y-76459446D01*
X84364602Y-76450156D01*
X84350574Y-76435363D01*
X84350573Y-76435362D01*
X84350571Y-76435360D01*
X84348984Y-76434498D01*
X84345889Y-76432380D01*
X84345426Y-76432160D01*
X84341824Y-76431100D01*
X84340157Y-76430417D01*
X84319828Y-76428901D01*
X84306411Y-76427160D01*
X84299389Y-76425855D01*
X84284572Y-76426270D01*
X84275029Y-76425559D01*
X84275028Y-76425559D01*
X84255953Y-76430221D01*
X84255653Y-76428994D01*
X84239255Y-76434836D01*
X84237455Y-76435073D01*
X84220530Y-76435895D01*
X84220525Y-76435897D01*
X84202405Y-76439672D01*
X84186601Y-76445666D01*
X84146578Y-76457192D01*
X84134129Y-76459258D01*
X84122234Y-76463770D01*
X84112581Y-76466984D01*
X84100371Y-76470500D01*
X84089169Y-76476311D01*
X83924052Y-76538939D01*
X83923394Y-76539187D01*
X83761495Y-76599547D01*
X83757441Y-76600978D01*
X83588681Y-76657314D01*
X83582072Y-76659318D01*
X83502811Y-76680955D01*
X83496136Y-76682580D01*
X83418165Y-76699287D01*
X83409524Y-76700821D01*
X83336125Y-76711186D01*
X83325305Y-76712233D01*
X83257317Y-76715812D01*
X83244160Y-76715805D01*
X83172572Y-76711967D01*
X83156825Y-76710107D01*
X83134585Y-76706025D01*
X83088818Y-76697624D01*
X83074025Y-76693957D01*
X83049959Y-76686393D01*
X83040506Y-76682995D01*
X83014749Y-76672541D01*
X83003518Y-76667315D01*
X82981030Y-76655450D01*
X82969971Y-76648860D01*
X82966579Y-76646591D01*
X82963026Y-76643381D01*
X82939475Y-76628423D01*
X82937075Y-76626859D01*
X82926030Y-76619472D01*
X82926029Y-76619471D01*
X82913960Y-76611399D01*
X82909585Y-76609441D01*
X82834162Y-76561543D01*
X82825982Y-76555874D01*
X82743587Y-76493744D01*
X82735595Y-76487178D01*
X82727965Y-76480356D01*
X82666116Y-76425058D01*
X82657936Y-76417033D01*
X82600016Y-76354690D01*
X82592532Y-76345837D01*
X82591551Y-76344560D01*
X82544219Y-76282947D01*
X82537831Y-76273808D01*
X82531852Y-76264378D01*
X82497907Y-76210835D01*
X82492234Y-76200901D01*
X82459694Y-76137254D01*
X82455206Y-76127441D01*
X82428981Y-76062806D01*
X82425588Y-76053365D01*
X82411497Y-76008531D01*
X82404797Y-75987212D01*
X82402409Y-75978520D01*
X82386427Y-75910704D01*
X82384931Y-75903365D01*
X82381047Y-75880853D01*
X82372971Y-75834038D01*
X82371996Y-75827276D01*
X82367507Y-75788628D01*
X82364081Y-75759129D01*
X82363427Y-75751364D01*
X82358832Y-75664199D01*
X82355663Y-75604080D01*
X82355497Y-75598639D01*
X82354685Y-75504581D01*
X82354229Y-75451751D01*
X82353848Y-75367887D01*
X82354760Y-75361177D01*
X82353877Y-75339108D01*
X82353785Y-75336816D01*
X82353688Y-75332426D01*
X82353577Y-75308029D01*
X82352367Y-75301358D01*
X82350281Y-75249206D01*
X82351204Y-75238211D01*
X82349476Y-75222115D01*
X82348866Y-75213823D01*
X82348219Y-75197644D01*
X82345696Y-75186898D01*
X82339609Y-75130184D01*
X82339557Y-75115463D01*
X82338787Y-75111930D01*
X82337973Y-75108196D01*
X82335837Y-75095031D01*
X82335431Y-75091239D01*
X82335430Y-75091237D01*
X82335045Y-75087647D01*
X82330440Y-75073655D01*
X82329272Y-75068297D01*
X82317689Y-75015174D01*
X82316155Y-75001029D01*
X82313432Y-74992689D01*
X82310157Y-74980629D01*
X82309180Y-74976148D01*
X82309178Y-74976144D01*
X82308285Y-74972049D01*
X82302450Y-74959058D01*
X82301564Y-74956343D01*
X82299302Y-74944880D01*
X82293698Y-74931190D01*
X82290580Y-74922704D01*
X82288184Y-74915363D01*
X82288183Y-74915362D01*
X82285993Y-74908653D01*
X82280294Y-74898447D01*
X82279918Y-74897529D01*
X82276607Y-74885618D01*
X82270580Y-74873687D01*
X82266500Y-74864749D01*
X82261437Y-74852381D01*
X82254621Y-74842097D01*
X82253125Y-74839136D01*
X82248937Y-74827652D01*
X82241860Y-74815999D01*
X82237166Y-74807545D01*
X82236432Y-74806092D01*
X82233939Y-74801157D01*
X82233937Y-74801155D01*
X82231014Y-74795369D01*
X82223483Y-74785743D01*
X82220297Y-74780497D01*
X82214914Y-74768793D01*
X82207765Y-74759003D01*
X82201924Y-74750247D01*
X82195635Y-74739892D01*
X82186899Y-74730427D01*
X82182059Y-74723798D01*
X82176416Y-74713696D01*
X82171764Y-74708202D01*
X82171764Y-74708201D01*
X82166672Y-74702187D01*
X82161189Y-74695217D01*
X82156554Y-74688868D01*
X82156553Y-74688867D01*
X82152310Y-74683055D01*
X82143817Y-74675189D01*
X82136745Y-74666835D01*
X82130032Y-74656680D01*
X82120369Y-74646913D01*
X82113876Y-74639820D01*
X82105004Y-74629339D01*
X82095479Y-74621754D01*
X82085641Y-74611810D01*
X82079204Y-74603420D01*
X82066392Y-74592004D01*
X82060732Y-74586632D01*
X82048672Y-74574441D01*
X82039956Y-74568450D01*
X82038305Y-74566979D01*
X82024031Y-74554261D01*
X82014700Y-74543925D01*
X82011031Y-74541245D01*
X82006979Y-74538285D01*
X81997623Y-74530731D01*
X81990493Y-74524378D01*
X81978426Y-74517432D01*
X81950054Y-74496712D01*
X81941462Y-74488689D01*
X81929009Y-74480928D01*
X81921473Y-74475839D01*
X81915273Y-74471311D01*
X81915272Y-74471310D01*
X81909624Y-74467186D01*
X81898974Y-74462211D01*
X81890606Y-74456996D01*
X81873365Y-74446251D01*
X81864889Y-74439377D01*
X81850393Y-74431619D01*
X81843334Y-74427537D01*
X81836089Y-74423022D01*
X81836088Y-74423021D01*
X81829365Y-74418832D01*
X81819173Y-74414910D01*
X81794235Y-74401563D01*
X81785503Y-74395376D01*
X81770122Y-74388370D01*
X81763023Y-74384858D01*
X81755324Y-74380738D01*
X81755323Y-74380737D01*
X81748121Y-74376883D01*
X81737911Y-74373698D01*
X81712875Y-74362295D01*
X81703973Y-74356795D01*
X81687723Y-74350578D01*
X81680639Y-74347613D01*
X81664826Y-74340411D01*
X81654664Y-74337932D01*
X81630012Y-74328501D01*
X81621186Y-74323756D01*
X81603741Y-74318225D01*
X81596923Y-74315842D01*
X81579867Y-74309318D01*
X81570011Y-74307533D01*
X81545731Y-74299836D01*
X81537767Y-74296093D01*
X81527875Y-74293485D01*
X81517820Y-74290834D01*
X81511992Y-74289143D01*
X81492300Y-74282901D01*
X81483554Y-74281799D01*
X81459843Y-74275547D01*
X81451736Y-74272211D01*
X81431483Y-74267916D01*
X81425604Y-74266519D01*
X81405561Y-74261236D01*
X81396819Y-74260567D01*
X81371449Y-74255187D01*
X81361989Y-74251875D01*
X81343909Y-74249132D01*
X81336801Y-74247841D01*
X81318917Y-74244050D01*
X81308903Y-74243822D01*
X81195810Y-74226666D01*
X81185465Y-74223743D01*
X81168717Y-74222297D01*
X81160791Y-74221354D01*
X81144197Y-74218836D01*
X81133461Y-74219252D01*
X81018546Y-74209327D01*
X81010400Y-74207504D01*
X80988914Y-74206637D01*
X80983258Y-74206279D01*
X80961812Y-74204428D01*
X80953500Y-74205211D01*
X80839901Y-74200632D01*
X80833887Y-74199529D01*
X80808371Y-74199301D01*
X80804493Y-74199206D01*
X80778987Y-74198179D01*
X80772927Y-74198985D01*
X80632281Y-74197733D01*
X80627554Y-74197601D01*
X80427883Y-74188202D01*
X80425413Y-74188061D01*
X80230395Y-74174976D01*
X80223677Y-74174341D01*
X80039161Y-74151827D01*
X80031207Y-74150593D01*
X79948166Y-74134937D01*
X79941780Y-74133558D01*
X79861671Y-74114036D01*
X79853153Y-74111635D01*
X79777887Y-74087490D01*
X79769297Y-74084381D01*
X79698515Y-74055772D01*
X79688567Y-74051231D01*
X79622691Y-74017575D01*
X79612473Y-74011727D01*
X79550795Y-73972423D01*
X79540547Y-73965136D01*
X79513463Y-73943729D01*
X79482436Y-73919206D01*
X79472639Y-73910585D01*
X79417646Y-73856798D01*
X79408840Y-73847230D01*
X79356821Y-73784399D01*
X79349205Y-73774173D01*
X79301113Y-73702138D01*
X79293929Y-73689918D01*
X79293736Y-73689543D01*
X79258094Y-73620114D01*
X79254311Y-73612043D01*
X79244791Y-73589674D01*
X79223781Y-73540309D01*
X79219997Y-73530222D01*
X79197636Y-73461703D01*
X79194600Y-73450712D01*
X79191663Y-73437789D01*
X79179961Y-73386298D01*
X79177670Y-73372805D01*
X79176724Y-73364472D01*
X79170914Y-73313281D01*
X79170129Y-73298139D01*
X79170510Y-73257468D01*
X79170646Y-73242924D01*
X79171903Y-73226447D01*
X79171978Y-73225931D01*
X79179302Y-73174982D01*
X79183034Y-73157792D01*
X79188489Y-73139162D01*
X79199178Y-73102648D01*
X79202620Y-73092534D01*
X79219976Y-73047925D01*
X79229499Y-73023448D01*
X79235907Y-73009577D01*
X79269741Y-72946824D01*
X79277769Y-72933901D01*
X79322162Y-72871356D01*
X79330009Y-72861418D01*
X79386343Y-72797126D01*
X79394077Y-72789065D01*
X79462799Y-72723626D01*
X79470023Y-72717265D01*
X79552320Y-72650285D01*
X79558385Y-72645651D01*
X79654481Y-72576841D01*
X79659569Y-72573387D01*
X79769475Y-72502716D01*
X79773609Y-72500172D01*
X79897066Y-72427492D01*
X79900217Y-72425702D01*
X80036423Y-72351067D01*
X80039759Y-72349307D01*
X80354916Y-72189409D01*
X80357467Y-72188154D01*
X80723625Y-72013397D01*
X80724374Y-72013044D01*
X81141674Y-71818271D01*
X81834871Y-71495266D01*
X81836285Y-71494856D01*
X81852661Y-71487091D01*
X81852664Y-71487091D01*
X81866547Y-71480507D01*
X81866890Y-71480346D01*
X81880866Y-71473835D01*
X81880868Y-71473832D01*
X81897394Y-71466133D01*
X81898608Y-71465306D01*
X82236766Y-71304976D01*
X82239367Y-71304196D01*
X82254514Y-71296775D01*
X82254519Y-71296775D01*
X82267750Y-71290293D01*
X82268814Y-71289781D01*
X82282048Y-71283508D01*
X82282050Y-71283505D01*
X82297284Y-71276284D01*
X82299507Y-71274740D01*
X82663147Y-71096646D01*
X82669541Y-71094558D01*
X82680571Y-71088666D01*
X82680574Y-71088666D01*
X82691158Y-71083012D01*
X82694980Y-71081056D01*
X82705766Y-71075775D01*
X82705767Y-71075773D01*
X82717011Y-71070268D01*
X82722445Y-71066301D01*
X82967485Y-70935430D01*
X82974574Y-70932813D01*
X82984571Y-70926940D01*
X82984574Y-70926940D01*
X82994410Y-70921162D01*
X82998711Y-70918752D01*
X83008790Y-70913370D01*
X83008792Y-70913367D01*
X83019038Y-70907896D01*
X83024971Y-70903213D01*
X83252582Y-70769538D01*
X83259519Y-70766655D01*
X83269329Y-70760350D01*
X83269331Y-70760350D01*
X83278960Y-70754161D01*
X83283155Y-70751582D01*
X83293008Y-70745797D01*
X83293009Y-70745795D01*
X83303069Y-70739888D01*
X83308766Y-70735006D01*
X83518815Y-70600022D01*
X83525678Y-70596839D01*
X83535165Y-70590182D01*
X83535168Y-70590182D01*
X83544479Y-70583649D01*
X83548603Y-70580879D01*
X83558207Y-70574708D01*
X83558209Y-70574705D01*
X83567965Y-70568436D01*
X83573511Y-70563282D01*
X83583572Y-70556225D01*
X83647664Y-70533943D01*
X83713891Y-70548734D01*
X83762416Y-70596168D01*
X83778707Y-70662041D01*
X83763840Y-70708156D01*
X83749500Y-70780251D01*
X83749500Y-74419749D01*
X83761132Y-74478230D01*
X83805447Y-74544552D01*
X83871769Y-74588867D01*
X83930251Y-74600500D01*
X83930252Y-74600500D01*
X88969748Y-74600500D01*
X88969749Y-74600500D01*
X89012460Y-74592004D01*
X89028231Y-74588867D01*
X89094552Y-74544552D01*
X89138867Y-74478231D01*
X89146855Y-74438071D01*
X89150500Y-74419749D01*
X89150500Y-72850000D01*
X112750000Y-72850000D01*
X112750000Y-74447824D01*
X112756402Y-74507375D01*
X112806647Y-74642089D01*
X112892811Y-74757188D01*
X113007910Y-74843352D01*
X113142624Y-74893597D01*
X113202176Y-74900000D01*
X115500000Y-74900000D01*
X115500000Y-72850000D01*
X116000000Y-72850000D01*
X116000000Y-74900000D01*
X118297824Y-74900000D01*
X118357375Y-74893597D01*
X118492089Y-74843352D01*
X118607188Y-74757188D01*
X118693352Y-74642089D01*
X118743597Y-74507375D01*
X118750000Y-74447824D01*
X118750000Y-72850000D01*
X116000000Y-72850000D01*
X115500000Y-72850000D01*
X112750000Y-72850000D01*
X89150500Y-72850000D01*
X89150500Y-72350000D01*
X112750000Y-72350000D01*
X115500000Y-72350000D01*
X115500000Y-70300000D01*
X116000000Y-70300000D01*
X116000000Y-72350000D01*
X118750000Y-72350000D01*
X118750000Y-70752176D01*
X118743597Y-70692624D01*
X118693352Y-70557910D01*
X118607188Y-70442811D01*
X118492089Y-70356647D01*
X118357375Y-70306402D01*
X118297824Y-70300000D01*
X116000000Y-70300000D01*
X115500000Y-70300000D01*
X113202176Y-70300000D01*
X113142624Y-70306402D01*
X113007910Y-70356647D01*
X112892811Y-70442811D01*
X112806647Y-70557910D01*
X112756402Y-70692624D01*
X112750000Y-70752176D01*
X112750000Y-72350000D01*
X89150500Y-72350000D01*
X89150500Y-70941518D01*
X89159939Y-70894065D01*
X89186819Y-70853837D01*
X90803837Y-69236819D01*
X90844065Y-69209939D01*
X90891518Y-69200500D01*
X123450079Y-69200500D01*
X123457566Y-69200726D01*
X123460706Y-69200915D01*
X123517606Y-69204358D01*
X123576782Y-69193513D01*
X123584181Y-69192387D01*
X123643872Y-69185140D01*
X123653335Y-69181550D01*
X123674958Y-69175522D01*
X123684932Y-69173695D01*
X123739808Y-69148996D01*
X123746673Y-69146152D01*
X123802930Y-69124818D01*
X123811270Y-69119060D01*
X123830819Y-69108035D01*
X123840057Y-69103878D01*
X123887413Y-69066775D01*
X123893420Y-69062355D01*
X123942929Y-69028183D01*
X123982823Y-68983150D01*
X123987924Y-68977731D01*
X129128837Y-63836819D01*
X129169066Y-63809939D01*
X129216519Y-63800500D01*
X132056617Y-63800500D01*
X132074260Y-63798896D01*
X132127196Y-63794086D01*
X132289606Y-63743478D01*
X132435185Y-63655472D01*
X132555472Y-63535185D01*
X132643478Y-63389606D01*
X132694086Y-63227196D01*
X132700500Y-63156616D01*
X132700500Y-62043384D01*
X132694086Y-61972804D01*
X132643478Y-61810394D01*
X132555472Y-61664815D01*
X132555471Y-61664813D01*
X132435186Y-61544528D01*
X132293437Y-61458838D01*
X132289606Y-61456522D01*
X132127196Y-61405914D01*
X132127193Y-61405913D01*
X132056617Y-61399500D01*
X132056616Y-61399500D01*
X128943384Y-61399500D01*
X128943383Y-61399500D01*
X128872806Y-61405913D01*
X128791598Y-61431218D01*
X128710394Y-61456522D01*
X128710392Y-61456522D01*
X128710392Y-61456523D01*
X128564813Y-61544528D01*
X128444528Y-61664813D01*
X128356523Y-61810392D01*
X128305913Y-61972806D01*
X128299500Y-62043383D01*
X128299500Y-62633481D01*
X128290061Y-62680934D01*
X128263181Y-62721162D01*
X125687181Y-65297161D01*
X125637818Y-65327411D01*
X125580102Y-65331953D01*
X125526615Y-65309798D01*
X125489015Y-65265775D01*
X125475500Y-65209480D01*
X125475500Y-59455911D01*
X125489624Y-59398436D01*
X125528780Y-59354055D01*
X125584046Y-59332878D01*
X125642834Y-59339729D01*
X125792624Y-59395597D01*
X125852176Y-59402000D01*
X128150000Y-59402000D01*
X128150000Y-58390000D01*
X128650000Y-58390000D01*
X128650000Y-59402000D01*
X130947824Y-59402000D01*
X131007375Y-59395597D01*
X131142089Y-59345352D01*
X131257188Y-59259188D01*
X131343352Y-59144089D01*
X131393597Y-59009375D01*
X131400000Y-58949824D01*
X131400000Y-58390000D01*
X128650000Y-58390000D01*
X128150000Y-58390000D01*
X128150000Y-56878000D01*
X128650000Y-56878000D01*
X128650000Y-57890000D01*
X131400000Y-57890000D01*
X131400000Y-57330176D01*
X131393597Y-57270624D01*
X131343352Y-57135910D01*
X131257188Y-57020811D01*
X131142089Y-56934647D01*
X131007375Y-56884402D01*
X130947824Y-56878000D01*
X128650000Y-56878000D01*
X128150000Y-56878000D01*
X126290019Y-56878000D01*
X126233724Y-56864485D01*
X126189701Y-56826885D01*
X126167546Y-56773398D01*
X126172088Y-56715682D01*
X126202338Y-56666319D01*
X126269838Y-56598819D01*
X126310066Y-56571939D01*
X126357519Y-56562500D01*
X130919749Y-56562500D01*
X130948989Y-56556683D01*
X130978231Y-56550867D01*
X131044552Y-56506552D01*
X131088867Y-56440231D01*
X131096807Y-56400309D01*
X131120049Y-56349014D01*
X131163581Y-56313288D01*
X131218425Y-56300500D01*
X131383481Y-56300500D01*
X131430934Y-56309939D01*
X131471162Y-56336819D01*
X138212058Y-63077715D01*
X138217178Y-63083153D01*
X138257071Y-63128183D01*
X138306577Y-63162355D01*
X138312597Y-63166785D01*
X138359941Y-63203877D01*
X138359942Y-63203877D01*
X138359943Y-63203878D01*
X138369184Y-63208037D01*
X138388730Y-63219061D01*
X138397070Y-63224818D01*
X138453313Y-63246147D01*
X138460217Y-63249007D01*
X138515069Y-63273695D01*
X138525044Y-63275522D01*
X138546656Y-63281547D01*
X138556128Y-63285140D01*
X138615841Y-63292390D01*
X138623185Y-63293507D01*
X138682394Y-63304358D01*
X138739102Y-63300927D01*
X138742434Y-63300726D01*
X138749921Y-63300500D01*
X150237515Y-63300500D01*
X150288407Y-63311425D01*
X150330332Y-63342274D01*
X150355901Y-63387612D01*
X150356522Y-63389606D01*
X150444528Y-63535186D01*
X150564813Y-63655471D01*
X150564815Y-63655472D01*
X150710394Y-63743478D01*
X150872804Y-63794086D01*
X150919857Y-63798362D01*
X150943383Y-63800500D01*
X150943384Y-63800500D01*
X154056616Y-63800500D01*
X154056617Y-63800500D01*
X154074260Y-63798896D01*
X154127196Y-63794086D01*
X154289606Y-63743478D01*
X154435185Y-63655472D01*
X154555472Y-63535185D01*
X154643478Y-63389606D01*
X154694086Y-63227196D01*
X154700500Y-63156616D01*
X154700500Y-62043384D01*
X154694086Y-61972804D01*
X154643478Y-61810394D01*
X154555472Y-61664815D01*
X154555471Y-61664813D01*
X154435186Y-61544528D01*
X154293437Y-61458838D01*
X154289606Y-61456522D01*
X154127196Y-61405914D01*
X154127193Y-61405913D01*
X154056617Y-61399500D01*
X154056616Y-61399500D01*
X150943384Y-61399500D01*
X150943383Y-61399500D01*
X150872806Y-61405913D01*
X150791598Y-61431218D01*
X150710394Y-61456522D01*
X150710392Y-61456522D01*
X150710392Y-61456523D01*
X150564813Y-61544528D01*
X150444528Y-61664813D01*
X150356522Y-61810393D01*
X150355901Y-61812388D01*
X150330332Y-61857726D01*
X150288407Y-61888575D01*
X150237515Y-61899500D01*
X139066519Y-61899500D01*
X139019066Y-61890061D01*
X138978838Y-61863181D01*
X132237940Y-55122283D01*
X132232822Y-55116847D01*
X132192929Y-55071817D01*
X132189856Y-55069696D01*
X132143436Y-55037654D01*
X132137405Y-55033216D01*
X132095007Y-55000000D01*
X132090057Y-54996122D01*
X132090055Y-54996121D01*
X132090054Y-54996120D01*
X132080813Y-54991961D01*
X132061273Y-54980941D01*
X132052930Y-54975182D01*
X132052927Y-54975181D01*
X132052926Y-54975180D01*
X131996701Y-54953856D01*
X131989783Y-54950991D01*
X131934929Y-54926303D01*
X131924952Y-54924475D01*
X131903339Y-54918450D01*
X131893873Y-54914860D01*
X131834172Y-54907610D01*
X131826771Y-54906483D01*
X131767607Y-54895641D01*
X131707566Y-54899274D01*
X131700079Y-54899500D01*
X131218425Y-54899500D01*
X131163581Y-54886712D01*
X131120049Y-54850986D01*
X131096808Y-54799691D01*
X131088867Y-54759769D01*
X131044552Y-54693447D01*
X130978230Y-54649132D01*
X130919749Y-54637500D01*
X130919748Y-54637500D01*
X125880252Y-54637500D01*
X125880251Y-54637500D01*
X125821769Y-54649132D01*
X125755447Y-54693447D01*
X125711132Y-54759769D01*
X125699500Y-54818251D01*
X125699500Y-55136481D01*
X125690061Y-55183934D01*
X125663181Y-55224162D01*
X124297290Y-56590051D01*
X124291838Y-56595183D01*
X124246816Y-56635070D01*
X124212649Y-56684568D01*
X124208213Y-56690597D01*
X124171121Y-56737942D01*
X124166961Y-56747186D01*
X124155941Y-56766725D01*
X124150182Y-56775069D01*
X124128853Y-56831305D01*
X124125989Y-56838219D01*
X124101303Y-56893070D01*
X124099475Y-56903047D01*
X124093454Y-56924648D01*
X124089859Y-56934128D01*
X124082609Y-56993827D01*
X124081483Y-57001226D01*
X124070641Y-57060391D01*
X124074274Y-57120434D01*
X124074500Y-57127921D01*
X124074500Y-65161425D01*
X124065061Y-65208878D01*
X124038181Y-65249106D01*
X122749106Y-66538181D01*
X122708878Y-66565061D01*
X122661425Y-66574500D01*
X106766518Y-66574500D01*
X106719065Y-66565061D01*
X106678837Y-66538181D01*
X100336819Y-60196162D01*
X100309939Y-60155934D01*
X100300500Y-60108481D01*
X100300500Y-59882323D01*
X100317113Y-59820323D01*
X100362500Y-59774936D01*
X100424500Y-59758323D01*
X104444497Y-59758323D01*
X104451984Y-59758549D01*
X104455124Y-59758738D01*
X104512024Y-59762181D01*
X104571200Y-59751336D01*
X104578599Y-59750210D01*
X104638290Y-59742963D01*
X104647753Y-59739373D01*
X104669376Y-59733345D01*
X104679350Y-59731518D01*
X104734226Y-59706819D01*
X104741091Y-59703975D01*
X104797348Y-59682641D01*
X104805688Y-59676883D01*
X104825237Y-59665858D01*
X104834475Y-59661701D01*
X104881831Y-59624598D01*
X104887838Y-59620178D01*
X104937347Y-59586006D01*
X104977241Y-59540973D01*
X104982342Y-59535554D01*
X106271141Y-58246755D01*
X106276561Y-58241653D01*
X106321593Y-58201760D01*
X106355768Y-58152247D01*
X106360189Y-58146238D01*
X106397287Y-58098888D01*
X106401443Y-58089651D01*
X106412468Y-58070104D01*
X106418228Y-58061761D01*
X106439564Y-58005499D01*
X106442424Y-57998597D01*
X106443742Y-57995670D01*
X106467104Y-57943763D01*
X106468929Y-57933801D01*
X106474955Y-57912179D01*
X106478550Y-57902703D01*
X106485799Y-57842996D01*
X106486926Y-57835593D01*
X106488867Y-57825000D01*
X106497767Y-57776437D01*
X106494136Y-57716409D01*
X106493910Y-57708922D01*
X106493910Y-57307939D01*
X106504051Y-57258825D01*
X106532816Y-57217745D01*
X106575499Y-57191417D01*
X106601009Y-57182132D01*
X107196706Y-56965315D01*
X107255774Y-56958962D01*
X107311022Y-56980817D01*
X107349761Y-57025864D01*
X107363098Y-57083760D01*
X107347972Y-57141216D01*
X106974989Y-57825019D01*
X106476005Y-58798039D01*
X106473945Y-58801889D01*
X105874997Y-59875003D01*
X105084168Y-61530802D01*
X105059958Y-61565041D01*
X105050000Y-61574999D01*
X104975000Y-61774999D01*
X104935540Y-62386622D01*
X104925000Y-62550000D01*
X104967294Y-62909499D01*
X105025000Y-63400000D01*
X105275000Y-64075000D01*
X105870741Y-64789890D01*
X105900000Y-64825000D01*
X106400000Y-65250000D01*
X107475000Y-65500000D01*
X110874162Y-65599975D01*
X110875778Y-65600033D01*
X113175000Y-65700000D01*
X117075000Y-65850000D01*
X119150000Y-65925000D01*
X119775000Y-65950000D01*
X120675000Y-65975000D01*
X121225000Y-65950000D01*
X121625000Y-65875000D01*
X122075000Y-65775000D01*
X122625000Y-65550000D01*
X123100000Y-65250000D01*
X123375000Y-64925000D01*
X123575000Y-64600000D01*
X123646159Y-64372291D01*
X123700000Y-64200002D01*
X123725000Y-63775001D01*
X123725000Y-63375001D01*
X123716818Y-63342274D01*
X123625000Y-62975000D01*
X123625000Y-62974999D01*
X123624998Y-62974998D01*
X122975002Y-62500000D01*
X121950002Y-62075000D01*
X120674968Y-61799993D01*
X119300510Y-61525102D01*
X119299629Y-61524923D01*
X117976600Y-61250332D01*
X117973398Y-61249623D01*
X117554336Y-61151020D01*
X117545751Y-61148671D01*
X117184585Y-61035806D01*
X117128219Y-60999069D01*
X117099337Y-60938303D01*
X117106440Y-60871399D01*
X117107625Y-60868436D01*
X117166503Y-60721242D01*
X117190515Y-60683191D01*
X117470005Y-60380410D01*
X117480602Y-60370217D01*
X118498242Y-59501500D01*
X118501811Y-59498568D01*
X120525000Y-57900000D01*
X121825000Y-56825000D01*
X122725000Y-56025000D01*
X123275000Y-55500000D01*
X124275000Y-54400000D01*
X124625000Y-53950000D01*
X125025000Y-53350000D01*
X125350000Y-52700000D01*
X125550000Y-52075000D01*
X125600000Y-51650000D01*
X125450000Y-50925000D01*
X125450000Y-50924999D01*
X125449999Y-50924998D01*
X124925003Y-50450001D01*
X124924999Y-50449999D01*
X124400001Y-50300000D01*
X124400000Y-50300000D01*
X123800000Y-50300000D01*
X123799996Y-50300000D01*
X123025002Y-50399998D01*
X122250001Y-50649999D01*
X121549999Y-51025000D01*
X119950720Y-52124504D01*
X119949253Y-52125497D01*
X119661064Y-52317623D01*
X119637622Y-52329862D01*
X118958196Y-52596779D01*
X118941433Y-52602028D01*
X118011193Y-52822348D01*
X117988513Y-52825546D01*
X117495361Y-52849030D01*
X117455397Y-52844399D01*
X117158675Y-52759621D01*
X117101334Y-52724182D01*
X116877363Y-52479850D01*
X116855868Y-52447335D01*
X116845528Y-52409753D01*
X116837082Y-52333743D01*
X116801616Y-52014544D01*
X116801816Y-51985471D01*
X116873657Y-51410737D01*
X116878179Y-51389668D01*
X117072664Y-50757590D01*
X117078291Y-50742759D01*
X117324518Y-50201059D01*
X117325487Y-50198979D01*
X117598375Y-49628397D01*
X117601834Y-49621699D01*
X117762777Y-49332001D01*
X117975000Y-48950000D01*
X118575000Y-47800000D01*
X118950000Y-47000000D01*
X119150000Y-46350000D01*
X119225000Y-45825000D01*
X119250000Y-45400000D01*
X119225000Y-44925000D01*
X119150000Y-44625000D01*
X119050000Y-44300000D01*
X119042116Y-44283357D01*
X118915863Y-44016822D01*
X118825000Y-43825000D01*
X118676293Y-43601940D01*
X118575000Y-43449999D01*
X118350001Y-43300000D01*
X118164690Y-43238230D01*
X118050000Y-43200000D01*
X117750000Y-43200000D01*
X117549999Y-43216666D01*
X117449998Y-43225000D01*
X117124998Y-43350000D01*
X116875007Y-43474996D01*
X116574997Y-43650001D01*
X116275001Y-43874998D01*
X115799996Y-44275003D01*
X115400008Y-44674990D01*
X114974996Y-45125004D01*
X114728600Y-45420679D01*
X114721024Y-45428976D01*
X114699998Y-45450002D01*
X114604287Y-45569640D01*
X114595142Y-45579858D01*
X114499999Y-45675001D01*
X114299984Y-45925019D01*
X114050030Y-46249960D01*
X114049864Y-46250175D01*
X113625014Y-46799980D01*
X113250425Y-47324404D01*
X113249516Y-47325659D01*
X112975001Y-47699997D01*
X112775362Y-47999456D01*
X112774640Y-48000527D01*
X112400002Y-48549995D01*
X112004300Y-49174789D01*
X111958213Y-49217684D01*
X111897002Y-49232417D01*
X111836445Y-49215189D01*
X111792155Y-49170443D01*
X111694284Y-49000926D01*
X111652957Y-48945414D01*
X111489044Y-48725241D01*
X111253187Y-48475247D01*
X110989902Y-48254325D01*
X110702750Y-48065462D01*
X110702746Y-48065460D01*
X110702743Y-48065458D01*
X110395616Y-47911212D01*
X110072650Y-47793663D01*
X110072649Y-47793662D01*
X110072647Y-47793662D01*
X109848178Y-47740462D01*
X109738218Y-47714401D01*
X109681321Y-47707750D01*
X109396847Y-47674500D01*
X109053153Y-47674500D01*
X108809317Y-47703000D01*
X108711781Y-47714401D01*
X108377349Y-47793663D01*
X108054383Y-47911212D01*
X107747256Y-48065458D01*
X107460099Y-48254324D01*
X107451763Y-48261319D01*
X107196813Y-48475247D01*
X107196809Y-48475250D01*
X107196808Y-48475252D01*
X106960957Y-48725239D01*
X106755715Y-49000926D01*
X106583870Y-49298570D01*
X106541926Y-49395808D01*
X106447738Y-49614159D01*
X106405066Y-49756695D01*
X106349164Y-49943420D01*
X106289484Y-50281886D01*
X106269499Y-50624999D01*
X106289484Y-50968113D01*
X106349164Y-51306579D01*
X106353006Y-51319411D01*
X106447738Y-51635841D01*
X106541974Y-51854302D01*
X106583870Y-51951429D01*
X106755715Y-52249073D01*
X106803612Y-52313410D01*
X106960956Y-52524759D01*
X107196813Y-52774753D01*
X107460098Y-52995675D01*
X107747250Y-53184538D01*
X107747256Y-53184541D01*
X108054383Y-53338787D01*
X108054386Y-53338788D01*
X108377353Y-53456338D01*
X108711783Y-53535599D01*
X109053153Y-53575500D01*
X109053158Y-53575500D01*
X109096109Y-53575500D01*
X109157277Y-53591637D01*
X109202525Y-53635848D01*
X109220076Y-53696625D01*
X109205361Y-53758151D01*
X107976238Y-56047693D01*
X107973662Y-56052258D01*
X107718055Y-56483593D01*
X107667697Y-56530850D01*
X107599870Y-56543842D01*
X107535614Y-56518538D01*
X107494857Y-56462787D01*
X107477504Y-56415111D01*
X105836060Y-51905279D01*
X105805126Y-51854302D01*
X105740800Y-51807137D01*
X105740799Y-51807136D01*
X105740797Y-51807135D01*
X105663323Y-51788177D01*
X105604385Y-51797249D01*
X104951709Y-52034802D01*
X104882460Y-52039341D01*
X104821618Y-52005961D01*
X101887234Y-49071577D01*
X101882116Y-49066141D01*
X101842223Y-49021111D01*
X101812980Y-49000926D01*
X101796849Y-48989791D01*
X101792726Y-48986945D01*
X101786699Y-48982510D01*
X101739348Y-48945414D01*
X101730107Y-48941255D01*
X101710567Y-48930235D01*
X101702224Y-48924476D01*
X101702221Y-48924475D01*
X101702220Y-48924474D01*
X101645995Y-48903150D01*
X101639077Y-48900285D01*
X101584223Y-48875597D01*
X101574246Y-48873769D01*
X101552633Y-48867744D01*
X101543167Y-48864154D01*
X101483466Y-48856904D01*
X101476065Y-48855777D01*
X101416901Y-48844935D01*
X101356860Y-48848568D01*
X101349373Y-48848794D01*
X99891526Y-48848794D01*
X99869994Y-48846910D01*
X99869455Y-48846815D01*
X99383075Y-48761053D01*
X95996262Y-48163866D01*
X95936647Y-48165167D01*
X95863640Y-48197291D01*
X95808482Y-48254911D01*
X95786870Y-48310486D01*
X95515372Y-49850225D01*
X95515372Y-49850228D01*
X95515372Y-49850229D01*
X95516672Y-49909843D01*
X95548798Y-49982852D01*
X95606416Y-50038010D01*
X95661990Y-50059622D01*
X100624925Y-50934721D01*
X100684540Y-50933420D01*
X100757547Y-50901296D01*
X100765085Y-50893422D01*
X100812706Y-50843677D01*
X100834318Y-50788102D01*
X100911092Y-50352690D01*
X100939979Y-50292467D01*
X100995919Y-50255965D01*
X101062680Y-50253780D01*
X101120888Y-50286545D01*
X103053567Y-52219224D01*
X103084932Y-52272206D01*
X103086947Y-52333743D01*
X103059114Y-52388664D01*
X103008297Y-52423427D01*
X102615454Y-52566410D01*
X102615453Y-52566410D01*
X103684608Y-55503889D01*
X103690202Y-55567831D01*
X103663076Y-55626004D01*
X103610497Y-55662821D01*
X103406540Y-55737056D01*
X102306203Y-56137544D01*
X102306203Y-56137545D01*
X103053568Y-58190912D01*
X103059985Y-58249508D01*
X103038621Y-58304446D01*
X102994303Y-58343312D01*
X102937046Y-58357323D01*
X102234898Y-58357323D01*
X102172898Y-58340710D01*
X102127511Y-58295323D01*
X102110898Y-58233323D01*
X102127511Y-58171323D01*
X102172898Y-58125936D01*
X102219746Y-58098888D01*
X102263416Y-58073675D01*
X102308247Y-58034359D01*
X102343525Y-57962821D01*
X102348743Y-57883228D01*
X102336306Y-57846589D01*
X102329577Y-57826765D01*
X101547828Y-56472736D01*
X101508512Y-56427904D01*
X101436972Y-56392626D01*
X101357379Y-56387409D01*
X101300917Y-56406575D01*
X96936584Y-58926324D01*
X96891753Y-58965640D01*
X96856474Y-59037180D01*
X96851256Y-59116772D01*
X96870422Y-59173234D01*
X97652171Y-60527263D01*
X97691487Y-60572095D01*
X97763027Y-60607373D01*
X97842620Y-60612590D01*
X97899082Y-60593424D01*
X97958409Y-60559172D01*
X98713500Y-60123219D01*
X98775500Y-60106607D01*
X98837500Y-60123220D01*
X98882887Y-60168607D01*
X98899500Y-60230607D01*
X98899500Y-60425079D01*
X98899274Y-60432566D01*
X98895641Y-60492607D01*
X98906483Y-60551771D01*
X98907610Y-60559172D01*
X98914860Y-60618873D01*
X98918450Y-60628339D01*
X98924475Y-60649952D01*
X98926303Y-60659929D01*
X98950991Y-60714783D01*
X98953856Y-60721701D01*
X98975180Y-60777926D01*
X98975182Y-60777930D01*
X98980941Y-60786273D01*
X98991961Y-60805813D01*
X98996120Y-60815054D01*
X99033216Y-60862405D01*
X99037651Y-60868432D01*
X99071817Y-60917929D01*
X99116847Y-60957822D01*
X99122283Y-60962940D01*
X102515698Y-64356355D01*
X105747163Y-67587819D01*
X105777413Y-67637182D01*
X105781955Y-67694898D01*
X105759800Y-67748385D01*
X105715777Y-67785985D01*
X105659482Y-67799500D01*
X90574921Y-67799500D01*
X90567434Y-67799274D01*
X90507391Y-67795641D01*
X90448227Y-67806483D01*
X90440828Y-67807610D01*
X90381124Y-67814860D01*
X90371651Y-67818453D01*
X90350047Y-67824476D01*
X90340069Y-67826305D01*
X90285225Y-67850987D01*
X90278310Y-67853851D01*
X90222070Y-67875181D01*
X90213723Y-67880943D01*
X90194187Y-67891961D01*
X90184946Y-67896120D01*
X90137609Y-67933206D01*
X90131579Y-67937643D01*
X90082070Y-67971817D01*
X90042177Y-68016846D01*
X90037044Y-68022298D01*
X87496162Y-70563181D01*
X87455934Y-70590061D01*
X87408481Y-70599500D01*
X83918039Y-70599500D01*
X83918039Y-70597990D01*
X83866844Y-70594269D01*
X83812860Y-70556519D01*
X83785827Y-70496447D01*
X83793375Y-70431007D01*
X83833371Y-70378669D01*
X83995434Y-70255615D01*
X84001604Y-70252158D01*
X84010986Y-70244465D01*
X84010989Y-70244464D01*
X84020069Y-70237018D01*
X84023672Y-70234175D01*
X84033030Y-70227071D01*
X84033030Y-70227069D01*
X84042710Y-70219721D01*
X84047511Y-70214517D01*
X84207500Y-70083345D01*
X84213649Y-70079586D01*
X84222611Y-70071646D01*
X84222614Y-70071645D01*
X84231350Y-70063905D01*
X84234880Y-70060896D01*
X84243918Y-70053487D01*
X84243920Y-70053482D01*
X84253200Y-70045875D01*
X84257879Y-70040404D01*
X84401642Y-69913057D01*
X84407230Y-69909355D01*
X84416313Y-69900722D01*
X84416315Y-69900722D01*
X84425010Y-69892458D01*
X84428194Y-69889538D01*
X84446547Y-69873281D01*
X84450719Y-69868027D01*
X84579148Y-69745981D01*
X84584546Y-69742129D01*
X84601827Y-69724533D01*
X84604884Y-69721526D01*
X84622738Y-69704561D01*
X84626680Y-69699225D01*
X84740630Y-69583197D01*
X84745961Y-69579106D01*
X84754409Y-69569875D01*
X84754412Y-69569874D01*
X84762533Y-69561000D01*
X84765467Y-69557907D01*
X84773885Y-69549337D01*
X84773885Y-69549335D01*
X84782662Y-69540400D01*
X84786466Y-69534856D01*
X84885646Y-69426511D01*
X84890582Y-69422447D01*
X84898942Y-69412683D01*
X84898944Y-69412683D01*
X84906877Y-69403418D01*
X84909594Y-69400350D01*
X84914272Y-69395240D01*
X84917842Y-69391341D01*
X84917842Y-69391339D01*
X84926528Y-69381852D01*
X84929967Y-69376457D01*
X85015285Y-69276833D01*
X85019993Y-69272691D01*
X85028127Y-69262545D01*
X85028131Y-69262543D01*
X85035856Y-69252908D01*
X85038361Y-69249886D01*
X85046370Y-69240536D01*
X85046370Y-69240533D01*
X85054827Y-69230661D01*
X85058027Y-69225259D01*
X85129559Y-69136053D01*
X85133987Y-69131903D01*
X85141936Y-69121332D01*
X85141938Y-69121331D01*
X85149398Y-69111409D01*
X85151773Y-69108353D01*
X85167814Y-69088351D01*
X85170746Y-69083024D01*
X85229470Y-69004938D01*
X85233987Y-69000422D01*
X85241384Y-68989877D01*
X85241387Y-68989876D01*
X85248419Y-68979851D01*
X85250786Y-68976594D01*
X85258144Y-68966811D01*
X85258144Y-68966809D01*
X85265874Y-68956532D01*
X85268773Y-68950839D01*
X85314681Y-68885402D01*
X85318660Y-68881169D01*
X85326085Y-68869888D01*
X85326088Y-68869887D01*
X85333051Y-68859309D01*
X85335049Y-68856370D01*
X85342313Y-68846018D01*
X85342313Y-68846015D01*
X85350063Y-68834971D01*
X85352537Y-68829711D01*
X85386677Y-68777854D01*
X85390985Y-68772968D01*
X85397621Y-68762105D01*
X85397623Y-68762104D01*
X85403951Y-68751744D01*
X85406167Y-68748250D01*
X85412855Y-68738094D01*
X85412855Y-68738091D01*
X85419865Y-68727445D01*
X85422447Y-68721470D01*
X85453001Y-68671461D01*
X85463507Y-68656787D01*
X85473916Y-68644282D01*
X85474816Y-68630606D01*
X85477935Y-68609975D01*
X85481115Y-68596656D01*
X85481113Y-68596653D01*
X85480402Y-68587758D01*
X85478210Y-68579117D01*
X85478211Y-68579114D01*
X85470903Y-68567522D01*
X85461299Y-68548996D01*
X85456042Y-68536352D01*
X85456041Y-68536351D01*
X85442159Y-68527870D01*
X85427491Y-68517371D01*
X85233082Y-68355564D01*
X85186859Y-68317092D01*
X85184914Y-68315439D01*
X85060273Y-68207281D01*
X85029328Y-68180428D01*
X85027773Y-68179055D01*
X85020045Y-68172115D01*
X84855658Y-68024488D01*
X84854014Y-68022984D01*
X84850426Y-68019642D01*
X84669412Y-67851017D01*
X84667568Y-67849264D01*
X84649447Y-67831673D01*
X84473548Y-67660914D01*
X84471463Y-67658840D01*
X84271987Y-67455762D01*
X84269859Y-67453542D01*
X84067576Y-67237124D01*
X84065074Y-67234365D01*
X83864010Y-67005863D01*
X83861415Y-67002816D01*
X83851032Y-66990219D01*
X83672860Y-66774050D01*
X83664634Y-66764070D01*
X83661746Y-66760430D01*
X83472795Y-66512834D01*
X83469699Y-66508589D01*
X83291104Y-66252435D01*
X83288612Y-66248717D01*
X83205792Y-66120218D01*
X83204107Y-66117529D01*
X83124513Y-65986806D01*
X83122586Y-65983530D01*
X83047622Y-65851463D01*
X83045953Y-65848423D01*
X82975568Y-65715922D01*
X82973589Y-65712033D01*
X82967732Y-65700003D01*
X82908794Y-65578953D01*
X82907020Y-65575146D01*
X82847588Y-65441612D01*
X82845766Y-65437296D01*
X82792444Y-65303994D01*
X82790605Y-65299096D01*
X82789924Y-65297161D01*
X82744076Y-65166820D01*
X82742036Y-65160482D01*
X82671675Y-64919895D01*
X82670491Y-64915552D01*
X82647566Y-64825000D01*
X82609469Y-64674518D01*
X82608498Y-64670382D01*
X82591931Y-64593996D01*
X82556823Y-64432118D01*
X82556043Y-64428219D01*
X82521602Y-64240528D01*
X82512970Y-64193489D01*
X82512346Y-64189762D01*
X82508771Y-64166248D01*
X82477392Y-63959884D01*
X82476928Y-63956504D01*
X82449345Y-63732533D01*
X82448986Y-63729243D01*
X82428277Y-63512443D01*
X82428031Y-63509482D01*
X82413189Y-63300918D01*
X82413025Y-63298172D01*
X82403561Y-63099418D01*
X82403461Y-63096657D01*
X82398886Y-62909499D01*
X82398851Y-62905750D01*
X82399218Y-62844911D01*
X82400902Y-62565265D01*
X82401031Y-62560307D01*
X82404961Y-62475000D01*
X82414013Y-62278510D01*
X82414310Y-62273931D01*
X82415201Y-62263241D01*
X82430150Y-62083853D01*
X82436972Y-62052377D01*
X82438065Y-62049322D01*
X82436327Y-62043383D01*
X82430585Y-62023770D01*
X82428890Y-62017340D01*
X82422679Y-61990932D01*
X82420112Y-61986947D01*
X82419719Y-61986643D01*
X82419719Y-61986642D01*
X82398629Y-61970350D01*
X82393497Y-61966160D01*
X82373326Y-61948771D01*
X82373324Y-61948770D01*
X82370078Y-61948500D01*
X82338614Y-61941682D01*
X81955408Y-61804581D01*
X81954182Y-61803915D01*
X81931224Y-61795865D01*
X81922505Y-61792808D01*
X81922067Y-61792653D01*
X81907661Y-61787499D01*
X81907658Y-61787498D01*
X81890628Y-61781406D01*
X81889262Y-61781151D01*
X81308429Y-61577484D01*
X81307147Y-61576799D01*
X81275453Y-61565919D01*
X81274884Y-61565721D01*
X81260581Y-61560707D01*
X81260579Y-61560706D01*
X81243519Y-61554725D01*
X81242093Y-61554470D01*
X81229069Y-61550000D01*
X80581100Y-61327602D01*
X80512025Y-61303894D01*
X80510646Y-61303170D01*
X80479292Y-61292655D01*
X80478473Y-61292377D01*
X80447326Y-61281689D01*
X80445795Y-61281424D01*
X79619288Y-61004305D01*
X79617550Y-61003408D01*
X79586724Y-60993381D01*
X79585667Y-60993032D01*
X79554880Y-60982710D01*
X79552944Y-60982392D01*
X78683315Y-60699514D01*
X78680862Y-60698283D01*
X78651043Y-60689006D01*
X78649526Y-60688523D01*
X78619927Y-60678895D01*
X78617211Y-60678480D01*
X77757155Y-60410905D01*
X77754761Y-60409742D01*
X77724705Y-60400799D01*
X77723239Y-60400353D01*
X77693339Y-60391052D01*
X77690707Y-60390685D01*
X77314362Y-60278721D01*
X77312155Y-60277682D01*
X77295812Y-60273021D01*
X77281623Y-60268974D01*
X77280437Y-60268628D01*
X77266346Y-60264437D01*
X77266344Y-60264437D01*
X77250047Y-60259589D01*
X77247633Y-60259281D01*
X76893522Y-60158296D01*
X76890727Y-60157024D01*
X76861180Y-60149060D01*
X76859451Y-60148580D01*
X76829958Y-60140170D01*
X76826894Y-60139821D01*
X76501325Y-60052083D01*
X76497614Y-60050468D01*
X76469479Y-60043476D01*
X76467125Y-60042866D01*
X76439044Y-60035299D01*
X76435003Y-60034907D01*
X76114814Y-59955334D01*
X76112354Y-59954696D01*
X75843005Y-59881865D01*
X75837580Y-59880265D01*
X75578533Y-59797371D01*
X75573030Y-59795466D01*
X75322568Y-59702142D01*
X75317011Y-59699917D01*
X75075005Y-59596166D01*
X75069375Y-59593584D01*
X74836585Y-59479703D01*
X74831032Y-59476811D01*
X74607759Y-59353247D01*
X74602305Y-59350044D01*
X74388705Y-59217172D01*
X74383186Y-59213531D01*
X74179785Y-59071427D01*
X74174409Y-59067452D01*
X73981892Y-58916884D01*
X73976476Y-58912394D01*
X73926104Y-58868172D01*
X73794808Y-58752907D01*
X73789670Y-58748131D01*
X73681336Y-58641540D01*
X73619430Y-58580629D01*
X73614405Y-58575386D01*
X73538583Y-58491496D01*
X73455710Y-58399805D01*
X73450887Y-58394134D01*
X73304344Y-58210896D01*
X73299789Y-58204828D01*
X73297629Y-58201760D01*
X73165550Y-58014120D01*
X73161328Y-58007709D01*
X73159983Y-58005522D01*
X73038794Y-57808469D01*
X73035728Y-57803193D01*
X72980737Y-57702943D01*
X72979001Y-57699660D01*
X72927025Y-57597662D01*
X72924528Y-57592469D01*
X72850768Y-57429407D01*
X72848139Y-57423142D01*
X72837155Y-57394813D01*
X72787258Y-57266120D01*
X72784664Y-57259429D01*
X72782365Y-57252977D01*
X72728521Y-57087531D01*
X72726551Y-57080845D01*
X72682523Y-56914276D01*
X72680956Y-56907602D01*
X72680018Y-56903047D01*
X72646482Y-56740119D01*
X72645278Y-56733310D01*
X72644046Y-56725000D01*
X72620377Y-56565358D01*
X72619542Y-56558344D01*
X72604391Y-56389961D01*
X72603973Y-56383339D01*
X72602067Y-56330725D01*
X72597866Y-56214813D01*
X72597815Y-56207633D01*
X72597989Y-56199692D01*
X72601473Y-56039843D01*
X72601812Y-56033004D01*
X72602431Y-56025000D01*
X72614744Y-55865623D01*
X72615492Y-55858579D01*
X72618760Y-55834388D01*
X72637939Y-55692415D01*
X72639039Y-55685689D01*
X72670831Y-55520130D01*
X72672275Y-55513578D01*
X72676328Y-55497294D01*
X72688098Y-55450000D01*
X76100000Y-55450000D01*
X76200000Y-55875000D01*
X76350000Y-56225000D01*
X76625000Y-56650000D01*
X76987112Y-57060394D01*
X77000002Y-57075002D01*
X77025820Y-57098976D01*
X77700000Y-57725000D01*
X78525000Y-58325000D01*
X79225000Y-58800000D01*
X80600000Y-59575000D01*
X81483774Y-60035299D01*
X81710587Y-60153431D01*
X81800000Y-60200000D01*
X84825000Y-61550000D01*
X86145525Y-62043383D01*
X87099997Y-62399999D01*
X89174999Y-63125000D01*
X90674999Y-63400000D01*
X90674999Y-63399999D01*
X90675000Y-63400000D01*
X92250000Y-63200000D01*
X93175000Y-62475000D01*
X93575000Y-61725000D01*
X93825000Y-61000000D01*
X93875000Y-60300000D01*
X93875000Y-60100000D01*
X93874997Y-60099872D01*
X93853744Y-59037179D01*
X93850000Y-58850000D01*
X93711133Y-58016801D01*
X95856923Y-58016801D01*
X96136834Y-58501622D01*
X96172156Y-58549996D01*
X96283028Y-58641540D01*
X96415193Y-58698136D01*
X96557957Y-58715207D01*
X96699744Y-58691363D01*
X96754518Y-58667132D01*
X101167478Y-56119309D01*
X101215852Y-56083987D01*
X101307394Y-55973118D01*
X101363992Y-55840948D01*
X101381063Y-55698186D01*
X101357219Y-55556399D01*
X101332988Y-55501625D01*
X101053075Y-55016802D01*
X101053074Y-55016802D01*
X98274947Y-56620755D01*
X95856923Y-58016800D01*
X95856923Y-58016801D01*
X93711133Y-58016801D01*
X93650756Y-57654537D01*
X93649583Y-57645418D01*
X93582037Y-56902405D01*
X95278936Y-56902405D01*
X95302780Y-57044192D01*
X95327011Y-57098966D01*
X95606923Y-57583788D01*
X95606924Y-57583788D01*
X97988493Y-56208789D01*
X97988493Y-56208788D01*
X97482494Y-55332371D01*
X97482493Y-55332371D01*
X95492521Y-56481282D01*
X95444147Y-56516604D01*
X95352603Y-56627476D01*
X95296007Y-56759641D01*
X95278936Y-56902405D01*
X93582037Y-56902405D01*
X93475235Y-55727585D01*
X93474875Y-55722400D01*
X93360190Y-53336945D01*
X97896584Y-53336945D01*
X99895960Y-53689488D01*
X99952844Y-53715547D01*
X99989763Y-53766064D01*
X99997316Y-53828176D01*
X99973580Y-53886068D01*
X99924599Y-53925001D01*
X99905484Y-53933457D01*
X97915506Y-55082370D01*
X97915506Y-55082371D01*
X98421505Y-55958789D01*
X98421506Y-55958789D01*
X100803075Y-54583790D01*
X100803075Y-54583789D01*
X100523165Y-54098969D01*
X100487843Y-54050595D01*
X100376973Y-53959052D01*
X100349090Y-53947112D01*
X100299582Y-53908681D01*
X100275192Y-53850948D01*
X100282149Y-53788663D01*
X100318677Y-53737735D01*
X100346208Y-53724853D01*
X100344740Y-53721949D01*
X100488963Y-53649038D01*
X100593808Y-53550646D01*
X100652809Y-53450298D01*
X101334939Y-53450298D01*
X101349291Y-53508449D01*
X102135192Y-55667698D01*
X102135193Y-55667698D01*
X103086162Y-55321573D01*
X102145606Y-52737420D01*
X101619540Y-52928893D01*
X101565774Y-52955275D01*
X101456369Y-53048565D01*
X101377680Y-53168898D01*
X101336079Y-53306526D01*
X101334939Y-53450298D01*
X100652809Y-53450298D01*
X100666679Y-53426709D01*
X100683327Y-53369169D01*
X100780539Y-52817851D01*
X98072316Y-52340319D01*
X97896584Y-53336945D01*
X93360190Y-53336945D01*
X93350000Y-53125000D01*
X93306074Y-52387042D01*
X94770443Y-52387042D01*
X94796532Y-52528429D01*
X94861401Y-52656745D01*
X94959791Y-52761588D01*
X95083731Y-52834462D01*
X95141268Y-52851109D01*
X97404181Y-53250121D01*
X97579913Y-52253495D01*
X94871692Y-51775963D01*
X94774480Y-52327285D01*
X94770443Y-52387042D01*
X93306074Y-52387042D01*
X93240390Y-51283559D01*
X94958515Y-51283559D01*
X97666738Y-51761092D01*
X100867363Y-52325447D01*
X100964575Y-51774126D01*
X100968612Y-51714369D01*
X100942523Y-51572982D01*
X100877654Y-51444666D01*
X100779264Y-51339823D01*
X100655324Y-51266949D01*
X100597787Y-51250302D01*
X95579551Y-50365453D01*
X95519794Y-50361416D01*
X95378407Y-50387505D01*
X95250092Y-50452373D01*
X95145247Y-50550765D01*
X95072376Y-50674702D01*
X95055729Y-50732240D01*
X94958516Y-51283559D01*
X94958515Y-51283559D01*
X93240390Y-51283559D01*
X92975000Y-46825000D01*
X92775000Y-44600000D01*
X92500000Y-42300000D01*
X92250000Y-40500000D01*
X92041872Y-39584235D01*
X91875001Y-38850004D01*
X91875000Y-38850003D01*
X91875000Y-38850000D01*
X91475000Y-37825000D01*
X91050000Y-37350000D01*
X91049999Y-37349999D01*
X90675000Y-37250000D01*
X89999999Y-37374999D01*
X89400002Y-37599999D01*
X89400001Y-37599999D01*
X89400000Y-37600000D01*
X89047087Y-37908799D01*
X88999998Y-37950002D01*
X88649999Y-38450000D01*
X88400000Y-39074999D01*
X88300322Y-39573391D01*
X88200000Y-40075000D01*
X88125000Y-40825000D01*
X88125000Y-42875000D01*
X88146296Y-43254071D01*
X88250000Y-45100015D01*
X88424630Y-46995986D01*
X88425108Y-47004009D01*
X88449955Y-47923335D01*
X88450000Y-47926685D01*
X88450000Y-48297185D01*
X88449872Y-48302816D01*
X88425245Y-48844603D01*
X88424285Y-48855360D01*
X88376260Y-49215547D01*
X88372309Y-49234148D01*
X88253115Y-49639409D01*
X88245063Y-49659874D01*
X88198835Y-49752329D01*
X88196652Y-49756695D01*
X88149885Y-49850229D01*
X88120078Y-49909843D01*
X88108999Y-49932002D01*
X88085773Y-49964226D01*
X88000664Y-50049336D01*
X87923286Y-50126714D01*
X87868232Y-50158663D01*
X87644234Y-50219754D01*
X87605089Y-50223952D01*
X87165578Y-50200819D01*
X87135110Y-50195346D01*
X86773488Y-50082340D01*
X86731092Y-50059243D01*
X86604319Y-49953599D01*
X86596021Y-49946021D01*
X86307807Y-49657807D01*
X86293696Y-49640938D01*
X86089445Y-49347327D01*
X85903138Y-49079511D01*
X85897270Y-49070223D01*
X85875661Y-49032408D01*
X85401481Y-48202591D01*
X85398644Y-48197337D01*
X85389566Y-48179506D01*
X84700195Y-46825384D01*
X84699791Y-46824582D01*
X84687985Y-46800971D01*
X84686492Y-46797985D01*
X84684503Y-46794007D01*
X84679638Y-46784277D01*
X84670489Y-46765979D01*
X84669758Y-46764517D01*
X84669409Y-46763819D01*
X84659534Y-46744069D01*
X84659029Y-46743059D01*
X84655890Y-46736781D01*
X84654759Y-46734519D01*
X84654234Y-46733469D01*
X84653869Y-46732739D01*
X84651326Y-46727653D01*
X84650821Y-46726643D01*
X84644448Y-46713897D01*
X84643745Y-46712491D01*
X84640480Y-46705961D01*
X84638941Y-46702883D01*
X84638868Y-46702737D01*
X84638617Y-46702235D01*
X84624802Y-46674605D01*
X84624079Y-46673159D01*
X84621332Y-46667665D01*
X84614709Y-46654419D01*
X84611980Y-46648961D01*
X84611437Y-46647875D01*
X84610570Y-46646141D01*
X84609395Y-46643791D01*
X84599946Y-46624893D01*
X84598045Y-46621091D01*
X84590948Y-46606897D01*
X84585781Y-46596563D01*
X84582124Y-46589249D01*
X84581559Y-46588119D01*
X84580590Y-46586181D01*
X84579189Y-46583379D01*
X84564256Y-46553513D01*
X84563095Y-46551191D01*
X84556630Y-46538261D01*
X84549215Y-46523431D01*
X84537854Y-46500709D01*
X84529165Y-46483331D01*
X84523928Y-46472857D01*
X84523693Y-46472387D01*
X84504260Y-46433521D01*
X84499883Y-46424767D01*
X84497202Y-46419405D01*
X84489417Y-46403835D01*
X84475261Y-46375522D01*
X84474748Y-46374484D01*
X84388494Y-46197869D01*
X83950000Y-45300000D01*
X83325000Y-44200000D01*
X82875000Y-43550000D01*
X82600000Y-43225000D01*
X82599999Y-43224999D01*
X82435117Y-43115078D01*
X82375000Y-43075000D01*
X82175873Y-42986499D01*
X82149998Y-42974999D01*
X81474998Y-42949999D01*
X81050004Y-43024998D01*
X80824996Y-43100001D01*
X80675000Y-43174999D01*
X80499998Y-43325001D01*
X80375002Y-43474996D01*
X80250000Y-43675000D01*
X80149999Y-43924999D01*
X80075000Y-44224999D01*
X79999999Y-44950001D01*
X80059442Y-45960520D01*
X80075000Y-46225000D01*
X80300000Y-47325000D01*
X80559008Y-48125569D01*
X80575000Y-48175000D01*
X81100001Y-49200004D01*
X81816618Y-50361416D01*
X81825000Y-50375000D01*
X82900000Y-51800000D01*
X84025000Y-53200000D01*
X85496822Y-54996122D01*
X85498105Y-54997687D01*
X85501771Y-55002387D01*
X86069967Y-55768217D01*
X86072351Y-55771429D01*
X86077381Y-55778742D01*
X86421567Y-56319607D01*
X86427862Y-56330725D01*
X86517573Y-56510147D01*
X86528256Y-56541283D01*
X86548180Y-56640904D01*
X86542692Y-56708762D01*
X86502206Y-56763496D01*
X86438926Y-56788607D01*
X86338874Y-56798612D01*
X86311156Y-56798269D01*
X85535876Y-56701359D01*
X85514540Y-56696757D01*
X83399277Y-56041026D01*
X83027156Y-55925668D01*
X83022860Y-55924250D01*
X82949208Y-55898434D01*
X80600000Y-55075000D01*
X80599997Y-55074999D01*
X80599994Y-55074998D01*
X79050001Y-54600000D01*
X77900001Y-54375000D01*
X77840000Y-54372500D01*
X77300000Y-54350000D01*
X77299995Y-54350000D01*
X77299991Y-54350000D01*
X76800002Y-54374999D01*
X76799999Y-54375000D01*
X76800000Y-54375000D01*
X76500000Y-54500000D01*
X76330328Y-54652705D01*
X76249999Y-54725001D01*
X76127408Y-55011048D01*
X76100000Y-55075000D01*
X76100000Y-55450000D01*
X72688098Y-55450000D01*
X72713051Y-55349735D01*
X72714977Y-55342852D01*
X72715129Y-55342366D01*
X72765263Y-55181253D01*
X72767464Y-55174814D01*
X72827182Y-55014753D01*
X72829696Y-55008544D01*
X72898805Y-54850403D01*
X72901295Y-54845062D01*
X72963031Y-54720611D01*
X72965310Y-54716241D01*
X73022547Y-54611553D01*
X73031478Y-54595217D01*
X73034066Y-54590711D01*
X73104640Y-54473662D01*
X73107225Y-54469563D01*
X73181702Y-54356496D01*
X73184636Y-54352241D01*
X73185451Y-54351111D01*
X73263055Y-54243436D01*
X73266202Y-54239258D01*
X73348729Y-54134446D01*
X73352039Y-54130423D01*
X73438981Y-54029276D01*
X73442472Y-54025387D01*
X73533348Y-53928389D01*
X73536954Y-53924698D01*
X73631875Y-53831489D01*
X73635836Y-53827768D01*
X73734988Y-53738654D01*
X73738840Y-53735334D01*
X73842255Y-53649810D01*
X73846455Y-53646486D01*
X73954107Y-53565072D01*
X73958181Y-53562121D01*
X74070533Y-53484187D01*
X74074745Y-53481393D01*
X74191192Y-53407537D01*
X74195346Y-53405017D01*
X74316435Y-53334835D01*
X74320468Y-53332597D01*
X74445919Y-53266036D01*
X74450229Y-53263858D01*
X74572874Y-53204878D01*
X74580025Y-53201439D01*
X74584168Y-53199540D01*
X74718466Y-53140956D01*
X74722721Y-53139194D01*
X74861827Y-53084598D01*
X74865540Y-53083212D01*
X75009275Y-53032217D01*
X75013302Y-53030868D01*
X75161970Y-52983986D01*
X75165450Y-52982947D01*
X75318525Y-52939712D01*
X75322381Y-52938691D01*
X75479915Y-52899686D01*
X75483378Y-52898883D01*
X75645620Y-52863811D01*
X75649236Y-52863087D01*
X75816050Y-52832252D01*
X75819358Y-52831687D01*
X75991090Y-52804799D01*
X75994301Y-52804340D01*
X76170577Y-52781480D01*
X76173650Y-52781121D01*
X76354592Y-52762288D01*
X76357672Y-52762007D01*
X76543281Y-52747475D01*
X76546114Y-52747286D01*
X76736609Y-52736802D01*
X76739182Y-52736689D01*
X76934223Y-52730289D01*
X76936917Y-52730232D01*
X77136110Y-52728187D01*
X77138973Y-52728190D01*
X77404094Y-52731790D01*
X77407226Y-52731872D01*
X77671601Y-52742160D01*
X77674245Y-52742292D01*
X77937372Y-52758513D01*
X77940198Y-52758721D01*
X78201308Y-52780867D01*
X78203861Y-52781110D01*
X78462627Y-52808456D01*
X78464899Y-52808717D01*
X78487895Y-52811577D01*
X78720230Y-52840472D01*
X78722512Y-52840779D01*
X78973862Y-52876942D01*
X78975822Y-52877240D01*
X79221287Y-52916690D01*
X79224017Y-52917161D01*
X79700314Y-53005057D01*
X79703800Y-53005753D01*
X80103470Y-53091527D01*
X80150117Y-53101538D01*
X80153170Y-53102233D01*
X80565601Y-53201713D01*
X80568400Y-53202424D01*
X80917132Y-53295255D01*
X80943746Y-53305756D01*
X80949546Y-53308861D01*
X80972689Y-53305673D01*
X80982874Y-53304697D01*
X81006212Y-53303437D01*
X81006213Y-53303436D01*
X81007344Y-53303375D01*
X81013426Y-53300734D01*
X81014242Y-53299950D01*
X81014244Y-53299950D01*
X81031086Y-53283773D01*
X81038765Y-53276986D01*
X81056900Y-53262254D01*
X81056900Y-53262251D01*
X81057778Y-53261539D01*
X81061146Y-53255829D01*
X81061345Y-53254714D01*
X81061347Y-53254713D01*
X81065464Y-53231728D01*
X81067688Y-53221724D01*
X81073700Y-53199144D01*
X81073699Y-53199142D01*
X81073990Y-53198051D01*
X81073358Y-53191446D01*
X81072020Y-53188684D01*
X81067636Y-53179631D01*
X81062684Y-53169405D01*
X81058593Y-53159981D01*
X81050196Y-53138212D01*
X81050194Y-53138210D01*
X81044674Y-53134638D01*
X81022608Y-53116427D01*
X80800636Y-52885299D01*
X80798900Y-52883454D01*
X80542051Y-52604835D01*
X80540268Y-52602858D01*
X80268716Y-52295292D01*
X80266802Y-52293073D01*
X79984361Y-51957515D01*
X79982361Y-51955076D01*
X79827339Y-51761092D01*
X79692727Y-51592647D01*
X79690724Y-51590070D01*
X79397007Y-51201134D01*
X79395403Y-51198957D01*
X79369600Y-51163143D01*
X79249100Y-50995889D01*
X79248019Y-50994364D01*
X79229708Y-50968113D01*
X79101748Y-50784666D01*
X79100677Y-50783106D01*
X79096429Y-50776810D01*
X78955297Y-50567622D01*
X78954117Y-50565841D01*
X78888244Y-50464426D01*
X78810379Y-50344547D01*
X78809235Y-50342752D01*
X78751109Y-50249794D01*
X78667252Y-50115685D01*
X78666121Y-50113841D01*
X78642773Y-50075000D01*
X78526302Y-49881244D01*
X78525126Y-49879243D01*
X78422971Y-49701534D01*
X78388166Y-49640986D01*
X78387061Y-49639021D01*
X78253246Y-49395674D01*
X78252142Y-49393618D01*
X78122273Y-49145243D01*
X78121132Y-49143000D01*
X77995235Y-48889403D01*
X77994038Y-48886923D01*
X77988726Y-48875599D01*
X77890175Y-48665495D01*
X77872858Y-48628577D01*
X77871713Y-48626064D01*
X77808393Y-48482859D01*
X77755488Y-48363210D01*
X77754346Y-48360542D01*
X77643573Y-48092626D01*
X77642473Y-48089869D01*
X77544910Y-47836496D01*
X77537718Y-47817820D01*
X77536596Y-47814785D01*
X77525999Y-47784963D01*
X77438332Y-47538261D01*
X77437324Y-47535303D01*
X77345767Y-47254714D01*
X77344764Y-47251488D01*
X77260491Y-46966555D01*
X77259546Y-46963186D01*
X77259446Y-46962810D01*
X77183032Y-46674589D01*
X77182139Y-46671004D01*
X77181557Y-46668511D01*
X77113887Y-46378497D01*
X77113095Y-46374854D01*
X77113020Y-46374484D01*
X77053334Y-46078617D01*
X77052625Y-46074798D01*
X77017554Y-45867682D01*
X77016995Y-45864051D01*
X77014317Y-45844787D01*
X76988251Y-45657249D01*
X76987813Y-45653725D01*
X76986268Y-45639665D01*
X76965151Y-45447482D01*
X76964832Y-45444149D01*
X76948048Y-45238914D01*
X76947800Y-45235194D01*
X76937366Y-45030852D01*
X76937243Y-45027576D01*
X76932411Y-44824603D01*
X76932379Y-44820962D01*
X76933650Y-44619470D01*
X76933724Y-44615940D01*
X76940838Y-44416238D01*
X76941017Y-44412680D01*
X76953973Y-44214790D01*
X76954258Y-44211241D01*
X76955011Y-44203284D01*
X76972791Y-44015248D01*
X76973190Y-44011608D01*
X76975189Y-43995555D01*
X76997289Y-43818056D01*
X76997807Y-43814357D01*
X77001844Y-43788379D01*
X77027457Y-43623534D01*
X77028093Y-43619824D01*
X77031435Y-43601940D01*
X77063285Y-43431459D01*
X77064060Y-43427648D01*
X77069000Y-43405157D01*
X77104809Y-43242128D01*
X77105669Y-43238484D01*
X77151746Y-43055701D01*
X77152730Y-43052034D01*
X77164130Y-43012023D01*
X77203751Y-42872955D01*
X77204949Y-42869003D01*
X77261185Y-42694024D01*
X77261453Y-42693187D01*
X77262752Y-42689362D01*
X77271059Y-42666144D01*
X77324266Y-42517423D01*
X77325716Y-42513575D01*
X77392532Y-42344897D01*
X77394070Y-42341194D01*
X77396257Y-42336160D01*
X77465476Y-42176761D01*
X77467369Y-42172614D01*
X77541486Y-42017819D01*
X77543955Y-42012662D01*
X77545818Y-42008935D01*
X77627246Y-41852866D01*
X77629301Y-41849095D01*
X77637924Y-41833912D01*
X77674202Y-41770029D01*
X77715239Y-41697766D01*
X77717652Y-41693699D01*
X77723393Y-41684432D01*
X77808390Y-41547220D01*
X77810923Y-41543302D01*
X77906392Y-41401598D01*
X77909042Y-41397818D01*
X78008897Y-41261017D01*
X78011856Y-41257131D01*
X78115843Y-41126029D01*
X78119122Y-41122067D01*
X78227726Y-40996315D01*
X78231108Y-40992559D01*
X78344168Y-40872046D01*
X78347717Y-40868416D01*
X78464624Y-40753738D01*
X78468680Y-40749934D01*
X78589787Y-40641434D01*
X78593929Y-40637886D01*
X78719752Y-40534897D01*
X78723482Y-40531965D01*
X78941859Y-40367100D01*
X78945158Y-40364694D01*
X79180658Y-40199002D01*
X79184058Y-40196695D01*
X79305084Y-40117516D01*
X79307915Y-40115720D01*
X79433119Y-40038690D01*
X79436551Y-40036655D01*
X79564576Y-39963535D01*
X79568318Y-39961483D01*
X79699020Y-39892785D01*
X79703599Y-39890499D01*
X79837002Y-39827373D01*
X79841821Y-39825219D01*
X79977666Y-39767945D01*
X79983582Y-39765629D01*
X80121964Y-39715530D01*
X80128020Y-39713514D01*
X80243463Y-39678405D01*
X80268784Y-39670705D01*
X80275883Y-39668774D01*
X80418816Y-39634422D01*
X80426249Y-39632875D01*
X80571175Y-39607329D01*
X80579529Y-39606148D01*
X80726542Y-39590474D01*
X80735140Y-39589860D01*
X80885505Y-39584387D01*
X80893927Y-39584369D01*
X81036192Y-39588889D01*
X81043866Y-39589372D01*
X81185162Y-39602715D01*
X81193208Y-39603743D01*
X81333455Y-39626363D01*
X81341135Y-39627853D01*
X81480952Y-39659584D01*
X81488615Y-39661584D01*
X81627685Y-39702684D01*
X81635035Y-39705109D01*
X81773996Y-39755836D01*
X81780620Y-39758475D01*
X81893420Y-39807237D01*
X81919563Y-39818538D01*
X81926340Y-39821714D01*
X82062214Y-39890481D01*
X82065178Y-39891981D01*
X82071086Y-39895175D01*
X82105270Y-39914871D01*
X82210299Y-39975387D01*
X82216074Y-39978928D01*
X82355377Y-40069670D01*
X82360347Y-40073082D01*
X82500565Y-40174474D01*
X82505049Y-40177875D01*
X82645525Y-40289561D01*
X82649861Y-40293171D01*
X82790630Y-40415970D01*
X82794257Y-40419264D01*
X82865840Y-40486912D01*
X82935737Y-40552967D01*
X82939246Y-40556417D01*
X83080971Y-40701420D01*
X83083823Y-40704438D01*
X83226669Y-40860731D01*
X83229150Y-40863528D01*
X83401347Y-41063736D01*
X83402832Y-41065496D01*
X83408648Y-41072519D01*
X83573430Y-41271502D01*
X83574800Y-41273187D01*
X83742395Y-41482937D01*
X83743682Y-41484575D01*
X83908351Y-41697918D01*
X83909504Y-41699436D01*
X84070723Y-41915083D01*
X84071775Y-41916512D01*
X84228972Y-42133175D01*
X84230437Y-42135238D01*
X84256407Y-42172614D01*
X84475644Y-42488140D01*
X84533960Y-42572067D01*
X84535684Y-42574615D01*
X84820815Y-43007504D01*
X84822357Y-43009905D01*
X85087237Y-43432930D01*
X85088678Y-43435290D01*
X85330734Y-43841742D01*
X85332035Y-43843980D01*
X85378004Y-43925000D01*
X85545991Y-44221080D01*
X85550820Y-44230507D01*
X85560444Y-44251458D01*
X85560446Y-44251460D01*
X85566437Y-44254826D01*
X85589360Y-44271406D01*
X85594433Y-44276043D01*
X85594434Y-44276043D01*
X85605486Y-44281063D01*
X85617382Y-44283445D01*
X85617385Y-44283447D01*
X85624203Y-44282648D01*
X85652509Y-44282589D01*
X85659331Y-44283358D01*
X85659333Y-44283356D01*
X85671220Y-44280923D01*
X85682246Y-44275858D01*
X85682246Y-44275857D01*
X85682250Y-44275857D01*
X85687302Y-44271199D01*
X85710155Y-44254521D01*
X85716133Y-44251130D01*
X85716133Y-44251128D01*
X85724321Y-44242171D01*
X85730266Y-44231590D01*
X85730266Y-44231589D01*
X85730267Y-44231589D01*
X85731616Y-44224850D01*
X85740304Y-44197918D01*
X85743144Y-44191668D01*
X85738521Y-44169085D01*
X85736844Y-44158646D01*
X85684898Y-43714680D01*
X85684690Y-43712772D01*
X85680871Y-43675000D01*
X85634953Y-43220878D01*
X85634763Y-43218812D01*
X85591288Y-42693192D01*
X85591115Y-42690806D01*
X85590035Y-42673667D01*
X85556253Y-42137695D01*
X85556117Y-42135081D01*
X85532680Y-41560369D01*
X85532615Y-41558325D01*
X85525874Y-41266171D01*
X85525847Y-41264415D01*
X85523250Y-40968941D01*
X85523248Y-40967368D01*
X85524806Y-40669583D01*
X85524829Y-40667792D01*
X85524959Y-40661267D01*
X85530793Y-40368745D01*
X85530849Y-40366767D01*
X85541735Y-40067406D01*
X85541827Y-40065388D01*
X85557875Y-39766693D01*
X85558023Y-39764354D01*
X85558868Y-39752779D01*
X85579753Y-39466608D01*
X85579938Y-39464372D01*
X85607326Y-39168790D01*
X85607613Y-39166034D01*
X85608025Y-39162467D01*
X85641409Y-38873221D01*
X85641743Y-38870583D01*
X85681685Y-38581465D01*
X85682156Y-38578352D01*
X85728933Y-38293834D01*
X85729531Y-38290490D01*
X85783414Y-38011329D01*
X85784145Y-38007821D01*
X85845326Y-37734685D01*
X85846286Y-37730713D01*
X85853983Y-37701009D01*
X85915189Y-37464793D01*
X85916354Y-37460605D01*
X85993263Y-37202125D01*
X85994657Y-37197745D01*
X86079384Y-36948134D01*
X86081193Y-36943159D01*
X86174364Y-36703037D01*
X86176594Y-36697670D01*
X86278446Y-36467813D01*
X86281085Y-36462239D01*
X86391420Y-36243574D01*
X86394695Y-36237511D01*
X86514090Y-36030560D01*
X86518056Y-36024148D01*
X86647724Y-35828151D01*
X86651105Y-35823299D01*
X86717920Y-35732188D01*
X86720315Y-35729032D01*
X86788495Y-35642193D01*
X86793491Y-35636227D01*
X86806305Y-35621863D01*
X86900043Y-35516781D01*
X86904175Y-35512374D01*
X87015364Y-35399468D01*
X87019667Y-35395307D01*
X87133899Y-35290127D01*
X87138684Y-35285945D01*
X87255668Y-35188904D01*
X87261020Y-35184708D01*
X87381332Y-35095688D01*
X87386766Y-35091890D01*
X87510426Y-35010337D01*
X87516460Y-35006603D01*
X87643323Y-34933043D01*
X87649527Y-34929679D01*
X87779661Y-34863889D01*
X87786154Y-34860840D01*
X87920574Y-34802438D01*
X87926990Y-34799861D01*
X88064681Y-34748981D01*
X88071619Y-34746650D01*
X88213171Y-34703727D01*
X88219904Y-34701893D01*
X88365951Y-34666532D01*
X88372566Y-34665122D01*
X88522723Y-34637423D01*
X88529266Y-34636399D01*
X88684001Y-34616417D01*
X88690509Y-34615752D01*
X88849392Y-34603774D01*
X88855689Y-34603462D01*
X89016268Y-34599610D01*
X89025842Y-34599749D01*
G37*
%TD.AperFunction*%
%TD*%
M02*
