<?xml version="1.0" encoding="UTF-8" standalone="no"?>
<svg
   xmlns:dc="http://purl.org/dc/elements/1.1/"
   xmlns:cc="http://creativecommons.org/ns#"
   xmlns:rdf="http://www.w3.org/1999/02/22-rdf-syntax-ns#"
   xmlns:svg="http://www.w3.org/2000/svg"
   xmlns="http://www.w3.org/2000/svg"
   xmlns:sodipodi="http://sodipodi.sourceforge.net/DTD/sodipodi-0.dtd"
   xmlns:inkscape="http://www.inkscape.org/namespaces/inkscape"
   data-name="Layer 1"
   viewBox="0 0 68.75676 71.0672"
   x="0px"
   y="0px"
   version="1.1"
   id="svg14"
   sodipodi:docname="outline_only.svg"
   width="68.75676mm"
   height="71.0672mm"
   inkscape:version="1.0.1 (3bc2e813f5, 2020-09-07, custom)">
  <metadata
     id="metadata20">
    <rdf:RDF>
      <cc:Work
         rdf:about="">
        <dc:format>image/svg+xml</dc:format>
        <dc:type
           rdf:resource="http://purl.org/dc/dcmitype/StillImage" />
        <dc:title>Unicorn</dc:title>
      </cc:Work>
    </rdf:RDF>
  </metadata>
  <defs
     id="defs18" />
  <sodipodi:namedview
     pagecolor="#ffffff"
     bordercolor="#666666"
     borderopacity="1"
     objecttolerance="10"
     gridtolerance="10"
     guidetolerance="10"
     inkscape:pageopacity="0"
     inkscape:pageshadow="2"
     inkscape:window-width="1920"
     inkscape:window-height="983"
     id="namedview16"
     showgrid="true"
     inkscape:zoom="2.571875"
     inkscape:cx="96.425601"
     inkscape:cy="131.20008"
     inkscape:window-x="0"
     inkscape:window-y="27"
     inkscape:window-maximized="1"
     inkscape:current-layer="g878"
     borderlayer="true"
     inkscape:document-units="mm"
     inkscape:document-rotation="0"
     fit-margin-top="0"
     fit-margin-left="0"
     fit-margin-right="0"
     fit-margin-bottom="0"
     showguides="false">
    <inkscape:grid
       spacingx="2.54"
       spacingy="2.54"
       empspacing="1"
       type="xygrid"
       units="mm"
       id="grid862"
       originx="-0.61892974"
       originy="0.53797931" />
  </sodipodi:namedview>
  <title
     id="title2">Unicorn</title>
  <g
     inkscape:label="B.Cu-disabled"
     inkscape:groupmode="layer"
     id="g878"
     style="display:none"
     transform="translate(-0.61892975,0.5379793)" />
  <g
     inkscape:label="B.Adhes-disabled"
     inkscape:groupmode="layer"
     id="g880"
     style="display:none"
     transform="translate(-0.61892975,0.5379793)" />
  <g
     inkscape:label="F.Adhes-disabled"
     inkscape:groupmode="layer"
     id="g882"
     style="display:none"
     transform="translate(-0.61892975,0.5379793)" />
  <g
     inkscape:label="B.Paste-disabled"
     inkscape:groupmode="layer"
     id="g884"
     style="display:none"
     transform="translate(-0.61892975,0.5379793)" />
  <g
     inkscape:label="F.Paste-disabled"
     inkscape:groupmode="layer"
     id="g886"
     style="display:none"
     transform="translate(-0.61892975,0.5379793)" />
  <g
     inkscape:label="B.SilkS-disabled"
     inkscape:groupmode="layer"
     id="g888"
     style="display:none"
     transform="translate(-0.61892975,0.5379793)" />
  <g
     inkscape:label="F.SilkS-disabled"
     inkscape:groupmode="layer"
     id="g890"
     style="display:none"
     transform="translate(-0.61892975,0.5379793)" />
  <g
     inkscape:label="Dwgs.User-disabled"
     inkscape:groupmode="layer"
     id="g896"
     style="display:none"
     transform="translate(-0.61892975,0.5379793)" />
  <g
     inkscape:label="Cmts.User-disabled"
     inkscape:groupmode="layer"
     id="g898"
     style="display:none"
     transform="translate(-0.61892975,0.5379793)" />
  <g
     inkscape:label="Eco1.User-disabled"
     inkscape:groupmode="layer"
     id="g900"
     style="display:none"
     transform="translate(-0.61892975,0.5379793)" />
  <g
     inkscape:label="Eco2.User-disabled"
     inkscape:groupmode="layer"
     id="g902"
     style="display:none"
     transform="translate(-0.61892975,0.5379793)" />
  <g
     inkscape:label="Edge.Cuts-disabled"
     inkscape:groupmode="layer"
     id="g904"
     style="display:inline"
     transform="translate(-0.61893,0.537979)">
    <g
       id="g955"
       transform="matrix(1.0937499,0,0,1.0937499,-2.5071934,-0.70124225)" />
    <g
       id="g972"
       transform="matrix(1.0937499,0,0,1.0937499,-2.5071934,-0.70124225)"
       style="display:inline;opacity:0.239705;stroke-width:0;stroke-miterlimit:4;stroke-dasharray:none">
      <path
         id="path970"
         style="fill:#ff0000;stroke-width:0;stroke-miterlimit:4;stroke-dasharray:none"
         d="M 61.8281,0.154297 61.5723,0.236591 61.3262,0.336292 61.0886,0.451455 60.8585,0.580137 60.4165,0.870278 59.9913,1.19116 59.1567,1.8629 58.7298,2.18265 58.2849,2.47092 49.877,8.63672 49.4976,8.38062 49.1041,8.15395 48.6978,7.95573 48.2804,7.78497 47.8534,7.64067 47.4183,7.52186 46.9767,7.42754 46.5302,7.35672 46.0802,7.30841 45.6284,7.28163 45.1763,7.27538 44.7253,7.28868 44.2772,7.32054 43.8334,7.36997 43.3954,7.43598 42.9648,7.51758 42.6461,7.27706 42.3036,7.08744 41.9425,6.9472 41.5676,6.85486 41.1839,6.80891 40.7963,6.80787 l -0.3865,0.04236 -0.3805,0.08426 -0.3696,0.12467 -0.3536,0.16358 -0.3328,0.201 -0.307,0.23691 -0.2763,0.27132 -0.2406,0.30426 -0.2,0.33567 -0.1545,0.3656 -0.8451,0.46423 -0.8238,0.5107 -0.4005,0.27377 -0.391,0.2865 -0.3802,0.2997 -0.3681,0.3133 -0.3544,0.3273 -0.3395,0.3415 -0.3233,0.3564 -0.3055,0.3714 -0.2865,0.387 -0.266,0.4029 -0.2442,0.4192 -0.2211,0.4358 -0.1917,0.3959 -0.1688,0.4043 -0.1467,0.4115 -0.1257,0.4179 -0.1057,0.4233 -0.0866,0.4277 -0.0685,0.4311 -0.0513,0.4336 -0.0353,0.435 -0.0201,0.4356 0.0013,0.8687 0.0502,0.8591 0.0911,0.8416 0.0943,0.6607 0.1147,0.6571 0.1319,0.654 0.1454,0.6516 0.3183,1.2982 0.3321,1.2954 0.3188,1.2973 0.2783,1.3037 0.1154,0.6557 0.0952,0.659 0.0714,0.663 0.0444,0.6675 -10e-4,0.265 -0.0252,0.2638 -0.0486,0.2607 -0.0708,0.2557 -0.0923,0.2489 -0.1128,0.24 -0.1322,0.2294 -0.1508,0.2167 -0.1685,0.2023 -0.1851,0.1858 -0.2009,0.1675 -0.2156,0.1473 -0.2295,0.1252 -0.2424,0.1012 -0.2544,0.0752 -0.2654,0.0474 -0.3317,-0.0245 -0.3201,-0.0742 -0.3112,-0.1125 -0.3049,-0.139 -0.6007,-0.3118 -0.301,-0.1496 -0.3049,-0.1301 -1.5002,-0.7584 -0.7596,-0.3641 -0.769,-0.3404 -0.7809,-0.3067 -0.7954,-0.2627 -0.4038,-0.1117 -0.4084,-0.097 -0.4131,-0.0808 -0.4183,-0.0635 -0.1973,-0.0483 -0.2065,-0.0309 -0.4234,-0.0381 -0.4073,-0.0539 -0.1866,-0.0505 -0.1692,-0.0758 -0.2647,-0.5638 -0.3005,-0.55 L 19.839,29.1363 19.4714,28.623 19.0726,28.1328 18.6442,27.6686 18.1878,27.2337 17.7049,26.8309 17.1971,26.4635 16.6659,26.1345 16.113,25.8469 15.54,25.604 14.9483,25.4086 14.3395,25.264 l -0.6242,-0.0909 -0.6382,-0.034 -0.6074,8e-4 -0.6008,0.0514 -0.592,0.0997 -0.5808,0.1459 -0.5676,0.1901 -0.55202,0.2321 -0.53434,0.2719 -0.51439,0.3096 -0.49226,0.3453 -0.46789,0.3786 -0.44131,0.41 -0.41253,0.4392 -0.38153,0.4662 -0.34831,0.4912 -0.31288,0.5139 -0.27525,0.5346 -0.2123,0.4122 -0.19793,0.4171 -0.35384,0.8476 -0.29974,0.8639 -0.24792,0.8779 -0.19837,0.8901 -0.15112,0.9002 -0.10615,0.9082 -0.06345,0.9141 -0.02305,0.9181 0.01507,0.9199 0.05092,0.9198 0.08447,0.9176 0.11575,0.9133 0.14474,0.9071 0.17144,0.8986 0.19587,0.8883 0.21675,1.0576 0.19971,1.0734 0.16287,1.0835 0.06143,0.5437 0.0448,0.544 0.02569,0.5436 0.00411,0.5425 -0.01996,0.5406 -0.04649,0.5381 -0.0755,0.5348 -0.10698,0.5307 -0.14095,0.526 -0.17738,0.5206 -0.12255,0.2787 -0.15681,0.254 -0.18283,0.2347 -0.2006,0.2212 -0.42154,0.4244 -0.20446,0.2145 -0.18926,0.2235 -0.07546,0.1963 -0.04343,0.2028 -0.01317,0.2061 0.01529,0.2061 0.042,0.2028 0.06691,0.1962 0.09005,0.1863 0.11142,0.1731 0.131,0.1567 0.1488,0.1369 0.16484,0.1139 0.17909,0.0875 0.19155,0.058 0.20226,0.025 0.21117,-0.0112 0.21831,-0.0506 0.49501,-0.1502 0.48109,-0.1864 0.46983,-0.215 0.46121,-0.2362 0.90716,-0.5066 0.90445,-0.5025 0.76711,-0.4868 0.74588,-0.5208 0.7203,-0.5555 0.6905,-0.5912 0.6563,-0.6276 0.6178,-0.6651 0.575,-0.7032 0.2701,-0.3662 0.2578,-0.3761 0.5879,0.5637 0.6178,0.53 0.6462,0.4941 0.6729,0.4562 0.6982,0.4162 0.7218,0.374 0.7439,0.3297 0.7644,0.2833 V 65.125 h 9.7266 V 53.834 l 1.1558,0.1351 1.1552,0.109 1.1545,0.0824 1.154,0.0556 1.1533,0.0283 1.1526,7e-4 1.1519,-0.0273 1.1512,-0.0557 V 65.125 h 9.9121 l -0.0039,-14.5176 0.5516,-0.4669 0.5262,-0.495 0.4995,-0.5214 0.4719,-0.5464 0.4432,-0.5697 0.4133,-0.5914 0.3823,-0.6117 0.3503,-0.6302 0.3172,-0.6474 0.2829,-0.6628 0.2477,-0.6767 0.2112,-0.6891 0.1737,-0.6998 0.1351,-0.7091 0.0955,-0.7167 0.0547,-0.7227 0.0374,-0.9021 2e-4,-0.9444 -0.0324,-0.9538 -0.0599,-0.9302 -0.0495,-0.1635 -0.0238,-0.1329 -1e-4,-0.1048 0.0213,-0.0793 0.0405,-0.0563 0.0577,-0.036 0.0725,-0.0183 0.0853,-0.0031 0.2,0.0291 0.2248,0.0587 0.4544,0.1239 0.6145,0.1344 0.6255,0.1077 0.6337,0.0794 0.6391,0.0495 0.6417,0.0182 0.6415,-0.0148 0.6384,-0.0493 0.6326,-0.0855 0.6238,-0.123 0.6124,-0.1623 0.598,-0.203 0.5809,-0.2453 0.561,-0.2892 0.5381,-0.3347 0.5126,-0.3817 0.4842,-0.4302 0.3523,-0.3725 0.3237,-0.4035 0.2929,-0.431 0.2603,-0.4545 0.2255,-0.4744 0.1889,-0.4905 0.1501,-0.5029 0.1095,-0.5115 0.0667,-0.5163 0.0221,-0.5174 -0.0247,-0.5147 -0.0733,-0.5083 -0.1241,-0.4982 -0.1767,-0.4843 -0.2315,-0.4666 -0.1368,-0.2255 -0.1513,-0.2196 -0.4748,-0.5505 -0.5024,-0.5237 -0.5226,-0.5041 -0.5356,-0.4916 -1.0808,-0.9746 -0.5304,-0.4974 -0.5141,-0.5136 -3.0385,-2.8553 -3.0297,-2.8649 1.0867,-0.7676 0.5374,-0.4064 0.516,-0.4309 0.4812,-0.4623 0.2234,-0.2451 0.2098,-0.2556 0.1946,-0.267 0.1776,-0.2792 0.1591,-0.2924 0.1388,-0.3064 0.01,-0.1886 L 58.2941,13.1583 58.2566,12.9866 58.198,12.824 58.1201,12.6707 58.0246,12.5273 57.9134,12.394 57.7883,12.2713 57.6509,12.1595 57.503,12.059 l -0.3198,-0.1657 -0.3404,-0.1159 -0.3466,-0.0632 0.0347,-0.1552 0.0843,-0.1723 0.1214,-0.1851 0.146,-0.1937 0.3155,-0.3954 0.1446,-0.1931 0.1191,-0.1843 L 58.954,8.19386 60.4616,6.1606 61.9456,4.11216 62.6667,3.07502 63.3672,2.02539 63.406,1.85115 63.4198,1.67593 63.4101,1.50157 63.3784,1.32993 63.3262,1.16284 63.2549,1.00216 63.1662,0.849733 63.0615,0.707411 62.9423,0.57704 62.8101,0.460469 62.6664,0.359544 62.5127,0.276113 62.3505,0.212025 62.1814,0.169128 62.0067,0.149269 61.8281,0.154297 v 0"
         sodipodi:nodetypes="cccccccccccccccccccccccccccccccccccccccc" />
    </g>
  </g>
  <g
     inkscape:label="Margin-disabled"
     inkscape:groupmode="layer"
     id="g906"
     style="display:none"
     transform="translate(-0.61892975,0.5379793)" />
  <g
     inkscape:label="B.CrtYd-disabled"
     inkscape:groupmode="layer"
     id="g908"
     style="display:none"
     transform="translate(-0.61892975,0.5379793)" />
  <g
     inkscape:label="F.CrtYd-disabled"
     inkscape:groupmode="layer"
     id="g910"
     style="display:none"
     transform="translate(-0.61892975,0.5379793)" />
  <g
     inkscape:label="B.Fab-disabled"
     inkscape:groupmode="layer"
     id="g912"
     style="display:none"
     transform="translate(-0.61892975,0.5379793)" />
  <g
     inkscape:label="F.Fab-disabled"
     inkscape:groupmode="layer"
     id="g914"
     style="display:none"
     transform="translate(-0.61892975,0.5379793)" />
  <g
     inkscape:label="Drill"
     inkscape:groupmode="layer"
     id="g916"
     style="display:none"
     transform="translate(-0.61893, 0.537979)" />
</svg>
