  0
SECTION
  2
HEADER
  9
$ACADVER
  1
AC1014
  9
$HANDSEED
  5
FFFF
  9
$MEASUREMENT
 70
     1
  0
ENDSEC
  0
SECTION
  2
TABLES
  0
TABLE
  2
VPORT
  5
8
330
0
100
AcDbSymbolTable
 70
     4
  0
VPORT
  5
2E
330
8
100
AcDbSymbolTableRecord
100
AcDbViewportTableRecord
  2
*ACTIVE
 70
     0
 10
0.0
 20
0.0
 11
1.0
 21
1.0
 12
210.0
 22
148.5
 13
0.0
 23
0.0
 14
10.0
 24
10.0
 15
10.0
 25
10.0
 16
0.0
 26
0.0
 36
1.0
 17
0.0
 27
0.0
 37
0.0
 40
341.0
 41
1.24
 42
50.0
 43
0.0
 44
0.0
 50
0.0
 51
0.0
 71
     0
 72
   100
 73
     1
 74
     3
 75
     0
 76
     0
 77
     0
 78
     0
  0
ENDTAB
  0
TABLE
  2
LTYPE
  5
5
330
0
100
AcDbSymbolTable
 70
     1
  0
LTYPE
  5
14
330
5
100
AcDbSymbolTableRecord
100
AcDbLinetypeTableRecord
  2
BYBLOCK
 70
     0
  3

 72
    65
 73
     0
 40
0.0
  0
LTYPE
  5
15
330
5
100
AcDbSymbolTableRecord
100
AcDbLinetypeTableRecord
  2
BYLAYER
 70
     0
  3

 72
    65
 73
     0
 40
0.0
  0
LTYPE
  5
16
330
5
100
AcDbSymbolTableRecord
100
AcDbLinetypeTableRecord
  2
CONTINUOUS
 70
     0
  3
Solid line
 72
    65
 73
     0
 40
0.0
  0
ENDTAB
  0
TABLE
  2
LAYER
  5
2
100
AcDbSymbolTable
 70
19
  0
LAYER
  5
50
100
AcDbSymbolTableRecord
100
AcDbLayerTableRecord
  2
0
 70
0
  6
CONTINUOUS
  0
LAYER
  5
51
100
AcDbSymbolTableRecord
100
AcDbLayerTableRecord
  2
B.Cu-disabled
 70
0
  6
CONTINUOUS
  0
LAYER
  5
52
100
AcDbSymbolTableRecord
100
AcDbLayerTableRecord
  2
B.Adhes-disabled
 70
0
  6
CONTINUOUS
  0
LAYER
  5
53
100
AcDbSymbolTableRecord
100
AcDbLayerTableRecord
  2
F.Adhes-disabled
 70
0
  6
CONTINUOUS
  0
LAYER
  5
54
100
AcDbSymbolTableRecord
100
AcDbLayerTableRecord
  2
B.Paste-disabled
 70
0
  6
CONTINUOUS
  0
LAYER
  5
55
100
AcDbSymbolTableRecord
100
AcDbLayerTableRecord
  2
F.Paste-disabled
 70
0
  6
CONTINUOUS
  0
LAYER
  5
56
100
AcDbSymbolTableRecord
100
AcDbLayerTableRecord
  2
B.SilkS-disabled
 70
0
  6
CONTINUOUS
  0
LAYER
  5
57
100
AcDbSymbolTableRecord
100
AcDbLayerTableRecord
  2
F.SilkS-disabled
 70
0
  6
CONTINUOUS
  0
LAYER
  5
58
100
AcDbSymbolTableRecord
100
AcDbLayerTableRecord
  2
Dwgs.User-disabled
 70
0
  6
CONTINUOUS
  0
LAYER
  5
59
100
AcDbSymbolTableRecord
100
AcDbLayerTableRecord
  2
Cmts.User-disabled
 70
0
  6
CONTINUOUS
  0
LAYER
  5
5a
100
AcDbSymbolTableRecord
100
AcDbLayerTableRecord
  2
Eco1.User-disabled
 70
0
  6
CONTINUOUS
  0
LAYER
  5
5b
100
AcDbSymbolTableRecord
100
AcDbLayerTableRecord
  2
Eco2.User-disabled
 70
0
  6
CONTINUOUS
  0
LAYER
  5
5c
100
AcDbSymbolTableRecord
100
AcDbLayerTableRecord
  2
Edge.Cuts-disabled
 70
0
  6
CONTINUOUS
  0
LAYER
  5
5d
100
AcDbSymbolTableRecord
100
AcDbLayerTableRecord
  2
Margin-disabled
 70
0
  6
CONTINUOUS
  0
LAYER
  5
5e
100
AcDbSymbolTableRecord
100
AcDbLayerTableRecord
  2
B.CrtYd-disabled
 70
0
  6
CONTINUOUS
  0
LAYER
  5
5f
100
AcDbSymbolTableRecord
100
AcDbLayerTableRecord
  2
F.CrtYd-disabled
 70
0
  6
CONTINUOUS
  0
LAYER
  5
60
100
AcDbSymbolTableRecord
100
AcDbLayerTableRecord
  2
B.Fab-disabled
 70
0
  6
CONTINUOUS
  0
LAYER
  5
61
100
AcDbSymbolTableRecord
100
AcDbLayerTableRecord
  2
F.Fab-disabled
 70
0
  6
CONTINUOUS
  0
LAYER
  5
62
100
AcDbSymbolTableRecord
100
AcDbLayerTableRecord
  2
Drill
 70
0
  6
CONTINUOUS
  0
ENDTAB
  0
TABLE
  2
STYLE
  5
3
330
0
100
AcDbSymbolTable
 70
     1
  0
STYLE
  5
11
330
3
100
AcDbSymbolTableRecord
100
AcDbTextStyleTableRecord
  2
STANDARD
 70
     0
 40
0.0
 41
1.0
 50
0.0
 71
     0
 42
2.5
  3
txt
  4

  0
ENDTAB
  0
TABLE
  2
VIEW
  5
6
330
0
100
AcDbSymbolTable
 70
     0
  0
ENDTAB
  0
TABLE
  2
UCS
  5
7
330
0
100
AcDbSymbolTable
 70
     0
  0
ENDTAB
  0
TABLE
  2
APPID
  5
9
330
0
100
AcDbSymbolTable
 70
     2
  0
APPID
  5
12
330
9
100
AcDbSymbolTableRecord
100
AcDbRegAppTableRecord
  2
ACAD
 70
     0
  0
ENDTAB
  0
TABLE
  2
DIMSTYLE
  5
A
330
0
100
AcDbSymbolTable
 70
     1
  0
DIMSTYLE
105
27
330
A
100
AcDbSymbolTableRecord
100
AcDbDimStyleTableRecord
  2
ISO-25
 70
     0
  3

  4

  5

  6

  7

 40
1.0
 41
2.5
 42
0.625
 43
3.75
 44
1.25
 45
0.0
 46
0.0
 47
0.0
 48
0.0
140
2.5
141
2.5
142
0.0
143
0.03937007874016
144
1.0
145
0.0
146
1.0
147
0.625
 71
     0
 72
     0
 73
     0
 74
     0
 75
     0
 76
     0
 77
     1
 78
     8
170
     0
171
     3
172
     1
173
     0
174
     0
175
     0
176
     0
177
     0
178
     0
270
     2
271
     2
272
     2
273
     2
274
     3
340
11
275
     0
280
     0
281
     0
282
     0
283
     0
284
     8
285
     0
286
     0
287
     3
288
     0
  0
ENDTAB
  0
TABLE
  2
BLOCK_RECORD
  5
1
330
0
100
AcDbSymbolTable
 70
     1
  0
BLOCK_RECORD
  5
1F
330
1
100
AcDbSymbolTableRecord
100
AcDbBlockTableRecord
  2
*MODEL_SPACE
  0
BLOCK_RECORD
  5
1B
330
1
100
AcDbSymbolTableRecord
100
AcDbBlockTableRecord
  2
*PAPER_SPACE
  0
ENDTAB
  0
ENDSEC
  0
SECTION
  2
BLOCKS
  0
BLOCK
  5
20
330
1F
100
AcDbEntity
  8
0
100
AcDbBlockBegin
  2
*MODEL_SPACE
 70
     0
 10
0.0
 20
0.0
 30
0.0
  3
*MODEL_SPACE
  1

  0
ENDBLK
  5
21
330
1F
100
AcDbEntity
  8
0
100
AcDbBlockEnd
  0
BLOCK
  5
1C
330
1B
100
AcDbEntity
 67
     1
  8
0
100
AcDbBlockBegin
  2
*PAPER_SPACE
  1

  0
ENDBLK
  5
1D
330
1B
100
AcDbEntity
 67
     1
  8
0
100
AcDbBlockEnd
  0
ENDSEC
  0
SECTION
  2
ENTITIES
  0
LWPOLYLINE
  5
100
100
AcDbEntity
  8
Edge.Cuts-disabled
 62
7
100
AcDbPolyline
 90
366
 70
1
 10
64.498364
 20
71.061701
 30
0.0
 10
64.218583
 20
70.971692
 30
0.0
 10
63.949411
 20
70.862644
 30
0.0
 10
63.689536
 20
70.736684
 30
0.0
 10
63.437864
 20
70.595938
 30
0.0
 10
62.954427
 20
70.278596
 30
0.0
 10
62.489364
 20
69.927632
 30
0.0
 10
61.576521
 20
69.192916
 30
0.0
 10
61.109599
 20
68.843190
 30
0.0
 10
60.622989
 20
68.527894
 30
0.0
 10
51.426849
 20
61.784050
 30
0.0
 10
51.011880
 20
62.064160
 30
0.0
 10
50.581489
 20
62.312080
 30
0.0
 10
50.137099
 20
62.528883
 30
0.0
 10
49.680568
 20
62.715652
 30
0.0
 10
49.213536
 20
62.873480
 30
0.0
 10
48.737646
 20
63.003429
 30
0.0
 10
48.254646
 20
63.106591
 30
0.0
 10
47.766286
 20
63.184050
 30
0.0
 10
47.274099
 20
63.236890
 30
0.0
 10
46.779942
 20
63.266180
 30
0.0
 10
46.285458
 20
63.273016
 30
0.0
 10
45.792177
 20
63.258469
 30
0.0
 10
45.302067
 20
63.223622
 30
0.0
 10
44.816661
 20
63.169558
 30
0.0
 10
44.337599
 20
63.097360
 30
0.0
 10
43.866630
 20
63.008110
 30
0.0
 10
43.518052
 20
63.271179
 30
0.0
 10
43.143443
 20
63.478575
 30
0.0
 10
42.748489
 20
63.631963
 30
0.0
 10
42.338442
 20
63.732960
 30
0.0
 10
41.918771
 20
63.783218
 30
0.0
 10
41.494833
 20
63.784355
 30
0.0
 10
41.072099
 20
63.738024
 30
0.0
 10
40.655927
 20
63.645865
 30
0.0
 10
40.251677
 20
63.509507
 30
0.0
 10
39.864927
 20
63.330591
 30
0.0
 10
39.500927
 20
63.110747
 30
0.0
 10
39.165146
 20
62.851627
 30
0.0
 10
38.862943
 20
62.554871
 30
0.0
 10
38.599786
 20
62.222086
 30
0.0
 10
38.381036
 20
61.854947
 30
0.0
 10
38.212052
 20
61.455072
 30
0.0
 10
37.287724
 20
60.947321
 30
0.0
 10
36.386693
 20
60.388743
 30
0.0
 10
35.948646
 20
60.089307
 30
0.0
 10
35.520989
 20
59.775947
 30
0.0
 10
35.105146
 20
59.448150
 30
0.0
 10
34.702536
 20
59.105479
 30
0.0
 10
34.314911
 20
58.747494
 30
0.0
 10
33.943583
 20
58.373979
 30
0.0
 10
33.589974
 20
57.984166
 30
0.0
 10
33.255833
 20
57.577947
 30
0.0
 10
32.942474
 20
57.154666
 30
0.0
 10
32.651536
 20
56.713994
 30
0.0
 10
32.384443
 20
56.255494
 30
0.0
 10
32.142614
 20
55.778838
 30
0.0
 10
31.932943
 20
55.345822
 30
0.0
 10
31.748318
 20
54.903619
 30
0.0
 10
31.587864
 20
54.453541
 30
0.0
 10
31.450380
 20
53.996463
 30
0.0
 10
31.334771
 20
53.533479
 30
0.0
 10
31.240052
 20
53.065682
 30
0.0
 10
31.165130
 20
52.594166
 30
0.0
 10
31.109021
 20
52.119916
 30
0.0
 10
31.070411
 20
51.644135
 30
0.0
 10
31.048427
 20
51.167697
 30
0.0
 10
31.049849
 20
50.217557
 30
0.0
 10
31.104755
 20
49.277916
 30
0.0
 10
31.204396
 20
48.357416
 30
0.0
 10
31.307536
 20
47.634776
 30
0.0
 10
31.432989
 20
46.916072
 30
0.0
 10
31.577255
 20
46.200760
 30
0.0
 10
31.736286
 20
45.488072
 30
0.0
 10
32.084427
 20
44.068166
 30
0.0
 10
32.447661
 20
42.651322
 30
0.0
 10
32.796349
 20
41.232400
 30
0.0
 10
33.100739
 20
39.806479
 30
0.0
 10
33.226958
 20
39.089307
 30
0.0
 10
33.331083
 20
38.368526
 30
0.0
 10
33.409177
 20
37.643369
 30
0.0
 10
33.457739
 20
36.913291
 30
0.0
 10
33.456646
 20
36.623447
 30
0.0
 10
33.429083
 20
36.334916
 30
0.0
 10
33.375927
 20
36.049776
 30
0.0
 10
33.298489
 20
35.770104
 30
0.0
 10
33.197536
 20
35.497869
 30
0.0
 10
33.074161
 20
35.235369
 30
0.0
 10
32.929568
 20
34.984463
 30
0.0
 10
32.764630
 20
34.747447
 30
0.0
 10
32.580333
 20
34.526182
 30
0.0
 10
32.377880
 20
34.322963
 30
0.0
 10
32.158146
 20
34.139760
 30
0.0
 10
31.922333
 20
33.978651
 30
0.0
 10
31.671318
 20
33.841713
 30
0.0
 10
31.406193
 20
33.731026
 30
0.0
 10
31.127943
 20
33.648775
 30
0.0
 10
30.837661
 20
33.596932
 30
0.0
 10
30.474864
 20
33.623729
 30
0.0
 10
30.124755
 20
33.704885
 30
0.0
 10
29.784380
 20
33.827932
 30
0.0
 10
29.450896
 20
33.979963
 30
0.0
 10
28.793880
 20
34.320994
 30
0.0
 10
28.464661
 20
34.484619
 30
0.0
 10
28.131177
 20
34.626916
 30
0.0
 10
26.490333
 20
35.456416
 30
0.0
 10
25.659521
 20
35.854650
 30
0.0
 10
24.818427
 20
36.226963
 30
0.0
 10
23.964318
 20
36.562416
 30
0.0
 10
23.094349
 20
36.849744
 30
0.0
 10
22.652693
 20
36.971916
 30
0.0
 10
22.206005
 20
37.078010
 30
0.0
 10
21.754177
 20
37.166385
 30
0.0
 10
21.296661
 20
37.235838
 30
0.0
 10
21.080864
 20
37.288666
 30
0.0
 10
20.855005
 20
37.322463
 30
0.0
 10
20.391911
 20
37.364135
 30
0.0
 10
19.946427
 20
37.423088
 30
0.0
 10
19.742333
 20
37.478322
 30
0.0
 10
19.557271
 20
37.561229
 30
0.0
 10
19.267755
 20
38.177885
 30
0.0
 10
18.939083
 20
38.779447
 30
0.0
 10
18.572786
 20
39.362635
 30
0.0
 10
18.170724
 20
39.924057
 30
0.0
 10
17.734536
 20
40.460213
 30
0.0
 10
17.265974
 20
40.967932
 30
0.0
 10
16.766786
 20
41.443604
 30
0.0
 10
16.238614
 20
41.884166
 30
0.0
 10
15.683208
 20
42.286010
 30
0.0
 10
15.102208
 20
42.645854
 30
0.0
 10
14.497474
 20
42.960416
 30
0.0
 10
13.870755
 20
43.226088
 30
0.0
 10
13.223583
 20
43.439807
 30
0.0
 10
12.557708
 20
43.597963
 30
0.0
 10
11.874989
 20
43.697385
 30
0.0
 10
11.176958
 20
43.734572
 30
0.0
 10
10.512614
 20
43.733697
 30
0.0
 10
9.855489
 20
43.677479
 30
0.0
 10
9.207989
 20
43.568432
 30
0.0
 10
8.572739
 20
43.408854
 30
0.0
 10
7.951927
 20
43.200932
 30
0.0
 10
7.348155
 20
42.947072
 30
0.0
 10
6.763721
 20
42.649682
 30
0.0
 10
6.201107
 20
42.311057
 30
0.0
 10
5.662697
 20
41.933385
 30
0.0
 10
5.150942
 20
41.519291
 30
0.0
 10
4.668260
 20
41.070854
 30
0.0
 10
4.217055
 20
40.590479
 30
0.0
 10
3.799757
 20
40.080572
 30
0.0
 10
3.418792
 20
39.543322
 30
0.0
 10
3.076580
 20
38.981244
 30
0.0
 10
2.775525
 20
38.396526
 30
0.0
 10
2.543322
 20
37.945682
 30
0.0
 10
2.326836
 20
37.489479
 30
0.0
 10
1.939824
 20
36.562416
 30
0.0
 10
1.611983
 20
35.617525
 30
0.0
 10
1.340821
 20
34.657322
 30
0.0
 10
1.123853
 20
33.683776
 30
0.0
 10
0.958566
 20
32.699182
 30
0.0
 10
0.842464
 20
31.705838
 30
0.0
 10
0.773066
 20
30.706041
 30
0.0
 10
0.747855
 20
29.701869
 30
0.0
 10
0.764338
 20
28.695729
 30
0.0
 10
0.820032
 20
27.689697
 30
0.0
 10
0.912421
 20
26.686072
 30
0.0
 10
1.039022
 20
25.687151
 30
0.0
 10
1.197332
 20
24.695010
 30
0.0
 10
1.384844
 20
23.712166
 30
0.0
 10
1.599077
 20
22.740588
 30
0.0
 10
1.836147
 20
21.583838
 30
0.0
 10
2.054580
 20
20.409807
 30
0.0
 10
2.232719
 20
19.224729
 30
0.0
 10
2.299908
 20
18.630057
 30
0.0
 10
2.348908
 20
18.035057
 30
0.0
 10
2.377007
 20
17.440494
 30
0.0
 10
2.381502
 20
16.847135
 30
0.0
 10
2.359671
 20
16.255854
 30
0.0
 10
2.308822
 20
15.667307
 30
0.0
 10
2.226244
 20
15.082369
 30
0.0
 10
2.109235
 20
14.501916
 30
0.0
 10
1.955071
 20
13.926604
 30
0.0
 10
1.761061
 20
13.357197
 30
0.0
 10
1.627022
 20
13.052369
 30
0.0
 10
1.455511
 20
12.774557
 30
0.0
 10
1.255541
 20
12.517854
 30
0.0
 10
1.036135
 20
12.275916
 30
0.0
 10
0.575075
 20
11.811729
 30
0.0
 10
0.351447
 20
11.577119
 30
0.0
 10
0.144444
 20
11.332666
 30
0.0
 10
0.061910
 20
11.117963
 30
0.0
 10
0.014408
 20
10.896151
 30
0.0
 10
0.000003
 20
10.670729
 30
0.0
 10
0.016727
 20
10.445307
 30
0.0
 10
0.062664
 20
10.223494
 30
0.0
 10
0.135847
 20
10.008901
 30
0.0
 10
0.234339
 20
9.805135
 30
0.0
 10
0.356205
 20
9.615807
 30
0.0
 10
0.499486
 20
9.444416
 30
0.0
 10
0.662236
 20
9.294682
 30
0.0
 10
0.842530
 20
9.170104
 30
0.0
 10
1.038410
 20
9.074401
 30
0.0
 10
1.247917
 20
9.010963
 30
0.0
 10
1.469139
 20
8.983619
 30
0.0
 10
1.700107
 20
8.995869
 30
0.0
 10
1.938883
 20
9.051213
 30
0.0
 10
2.480300
 20
9.215494
 30
0.0
 10
3.006492
 20
9.419369
 30
0.0
 10
3.520369
 20
9.654526
 30
0.0
 10
4.024817
 20
9.912869
 30
0.0
 10
5.017024
 20
10.466963
 30
0.0
 10
6.006266
 20
11.016572
 30
0.0
 10
6.845292
 20
11.549010
 30
0.0
 10
7.661099
 20
12.118635
 30
0.0
 10
8.448927
 20
12.726213
 30
0.0
 10
9.204161
 20
13.372838
 30
0.0
 10
9.921989
 20
14.059276
 30
0.0
 10
10.597708
 20
14.786729
 30
0.0
 10
11.226614
 20
15.555854
 30
0.0
 10
11.522036
 20
15.956385
 30
0.0
 10
11.804005
 20
16.367744
 30
0.0
 10
12.447021
 20
15.751197
 30
0.0
 10
13.122739
 20
15.171510
 30
0.0
 10
13.829521
 20
14.631088
 30
0.0
 10
14.565505
 20
14.132119
 30
0.0
 10
15.329161
 20
13.676901
 30
0.0
 10
16.118630
 20
13.267838
 30
0.0
 10
16.932271
 20
12.907229
 30
0.0
 10
17.768333
 20
12.597369
 30
0.0
 10
17.768333
 20
-0.000006
 30
0.0
 10
28.406802
 20
-0.000006
 30
0.0
 10
28.406802
 20
12.349525
 30
0.0
 10
29.670958
 20
12.201760
 30
0.0
 10
30.934458
 20
12.082541
 30
0.0
 10
32.197192
 20
11.992416
 30
0.0
 10
33.459380
 20
11.931604
 30
0.0
 10
34.720802
 20
11.900650
 30
0.0
 10
35.981458
 20
11.899885
 30
0.0
 10
37.241349
 20
11.929744
 30
0.0
 10
38.500474
 20
11.990666
 30
0.0
 10
38.500474
 20
-0.000006
 30
0.0
 10
49.341833
 20
-0.000006
 30
0.0
 10
49.337567
 20
15.878619
 30
0.0
 10
49.940880
 20
16.389291
 30
0.0
 10
50.516411
 20
16.930697
 30
0.0
 10
51.062739
 20
17.500979
 30
0.0
 10
51.578880
 20
18.098604
 30
0.0
 10
52.063630
 20
18.721713
 30
0.0
 10
52.515677
 20
19.368557
 30
0.0
 10
52.933817
 20
20.037604
 30
0.0
 10
53.316958
 20
20.726885
 30
0.0
 10
53.663896
 20
21.434979
 30
0.0
 10
53.973317
 20
22.159916
 30
0.0
 10
54.244239
 20
22.900057
 30
0.0
 10
54.475239
 20
23.653760
 30
0.0
 10
54.665224
 20
24.419166
 30
0.0
 10
54.812989
 20
25.194744
 30
0.0
 10
54.917442
 20
25.978635
 30
0.0
 10
54.977271
 20
26.769088
 30
0.0
 10
55.018177
 20
27.755760
 30
0.0
 10
55.018396
 20
28.788697
 30
0.0
 10
54.982958
 20
29.831916
 30
0.0
 10
54.917442
 20
30.849322
 30
0.0
 10
54.863302
 20
31.028151
 30
0.0
 10
54.837271
 20
31.173510
 30
0.0
 10
54.837161
 20
31.288135
 30
0.0
 10
54.860458
 20
31.374869
 30
0.0
 10
54.904755
 20
31.436447
 30
0.0
 10
54.967864
 20
31.475822
 30
0.0
 10
55.047161
 20
31.495838
 30
0.0
 10
55.140458
 20
31.499229
 30
0.0
 10
55.359208
 20
31.467401
 30
0.0
 10
55.605083
 20
31.403197
 30
0.0
 10
56.102083
 20
31.267682
 30
0.0
 10
56.774192
 20
31.120682
 30
0.0
 10
57.458333
 20
31.002885
 30
0.0
 10
58.151442
 20
30.916041
 30
0.0
 10
58.850458
 20
30.861901
 30
0.0
 10
59.552317
 20
30.841994
 30
0.0
 10
60.253958
 20
30.858182
 30
0.0
 10
60.952208
 20
30.912104
 30
0.0
 10
61.644114
 20
31.005619
 30
0.0
 10
62.326396
 20
31.140151
 30
0.0
 10
62.996208
 20
31.317666
 30
0.0
 10
63.650271
 20
31.539697
 30
0.0
 10
64.285630
 20
31.807994
 30
0.0
 10
64.899224
 20
32.124307
 30
0.0
 10
65.487771
 20
32.490385
 30
0.0
 10
66.048427
 20
32.907869
 30
0.0
 10
66.578021
 20
33.378401
 30
0.0
 10
66.963349
 20
33.785822
 30
0.0
 10
67.317396
 20
34.227151
 30
0.0
 10
67.637755
 20
34.698557
 30
0.0
 10
67.922458
 20
35.195666
 30
0.0
 10
68.169099
 20
35.714541
 30
0.0
 10
68.375708
 20
36.251026
 30
0.0
 10
68.539880
 20
36.801072
 30
0.0
 10
68.659646
 20
37.360526
 30
0.0
 10
68.732599
 20
37.925229
 30
0.0
 10
68.756771
 20
38.491135
 30
0.0
 10
68.729755
 20
39.054088
 30
0.0
 10
68.649583
 20
39.610041
 30
0.0
 10
68.513849
 20
40.154947
 30
0.0
 10
68.320583
 20
40.684651
 30
0.0
 10
68.067380
 20
41.194994
 30
0.0
 10
67.917755
 20
41.441635
 30
0.0
 10
67.752271
 20
41.681822
 30
0.0
 10
67.232958
 20
42.283932
 30
0.0
 10
66.683458
 20
42.856729
 30
0.0
 10
66.111864
 20
43.408088
 30
0.0
 10
65.526052
 20
43.945776
 30
0.0
 10
64.343927
 20
45.011744
 30
0.0
 10
63.763802
 20
45.555776
 30
0.0
 10
63.201505
 20
46.117526
 30
0.0
 10
59.878146
 20
49.240510
 30
0.0
 10
56.564411
 20
52.373994
 30
0.0
 10
57.752989
 20
53.213557
 30
0.0
 10
58.340771
 20
53.658057
 30
0.0
 10
58.905146
 20
54.129354
 30
0.0
 10
59.431458
 20
54.634994
 30
0.0
 10
59.675802
 20
54.903072
 30
0.0
 10
59.905271
 20
55.182635
 30
0.0
 10
60.118114
 20
55.474666
 30
0.0
 10
60.312364
 20
55.780041
 30
0.0
 10
60.486380
 20
56.099854
 30
0.0
 10
60.638192
 20
56.434979
 30
0.0
 10
60.649130
 20
56.641260
 30
0.0
 10
60.633052
 20
56.838572
 30
0.0
 10
60.592036
 20
57.026369
 30
0.0
 10
60.527943
 20
57.204213
 30
0.0
 10
60.442739
 20
57.371885
 30
0.0
 10
60.338286
 20
57.528729
 30
0.0
 10
60.216661
 20
57.674526
 30
0.0
 10
60.079833
 20
57.808729
 30
0.0
 10
59.929552
 20
57.931010
 30
0.0
 10
59.767786
 20
58.040932
 30
0.0
 10
59.418005
 20
58.222166
 30
0.0
 10
59.045692
 20
58.348932
 30
0.0
 10
58.666599
 20
58.418057
 30
0.0
 10
58.704552
 20
58.587807
 30
0.0
 10
58.796755
 20
58.776260
 30
0.0
 10
58.929536
 20
58.978713
 30
0.0
 10
59.089224
 20
59.190572
 30
0.0
 10
59.434302
 20
59.623041
 30
0.0
 10
59.592458
 20
59.834244
 30
0.0
 10
59.722724
 20
60.035822
 30
0.0
 10
61.354817
 20
62.268429
 30
0.0
 10
63.003755
 20
64.492307
 30
0.0
 10
64.626880
 20
66.732788
 30
0.0
 10
65.415583
 20
67.867160
 30
0.0
 10
66.181755
 20
69.015193
 30
0.0
 10
66.224193
 20
69.205768
 30
0.0
 10
66.239286
 20
69.397415
 30
0.0
 10
66.228677
 20
69.588121
 30
0.0
 10
66.194005
 20
69.775852
 30
0.0
 10
66.136911
 20
69.958607
 30
0.0
 10
66.058927
 20
70.134350
 30
0.0
 10
65.961911
 20
70.301068
 30
0.0
 10
65.847396
 20
70.456732
 30
0.0
 10
65.717021
 20
70.599326
 30
0.0
 10
65.572427
 20
70.726825
 30
0.0
 10
65.415255
 20
70.837212
 30
0.0
 10
65.247146
 20
70.928464
 30
0.0
 10
65.069739
 20
70.998561
 30
0.0
 10
64.884786
 20
71.045479
 30
0.0
 10
64.693708
 20
71.067200
 30
0.0
 10
64.498364
 20
71.061701
 30
0.0
  0
ENDSEC
  0
SECTION
  2
OBJECTS
  0
DICTIONARY
  5
C
330
0
100
AcDbDictionary
  3
ACAD_GROUP
350
D
  3
ACAD_MLINESTYLE
350
17
  0
DICTIONARY
  5
D
330
C
100
AcDbDictionary
  0
DICTIONARY
  5
1A
330
C
100
AcDbDictionary
  0
DICTIONARY
  5
17
330
C
100
AcDbDictionary
  3
STANDARD
350
18
  0
DICTIONARY
  5
19
330
C
100
AcDbDictionary
  0
ENDSEC
  0
EOF
